<svg xmlns="http://www.w3.org/2000/svg" xmlns:xlink="http://www.w3.org/1999/xlink" width="226.456" height="240.489" viewBox="0 0 226.456 240.489">
  <defs>
    <clipPath id="clip-path">
      <rect id="Rectangle_442" data-name="Rectangle 442" width="22.075" height="8.658" fill="none"/>
    </clipPath>
    <clipPath id="clip-path-2">
      <rect id="Rectangle_443" data-name="Rectangle 443" width="24.024" height="14.566" fill="none"/>
    </clipPath>
    <clipPath id="clip-path-3">
      <rect id="Rectangle_444" data-name="Rectangle 444" width="23.646" height="17.108" fill="none"/>
    </clipPath>
    <clipPath id="clip-path-4">
      <rect id="Rectangle_445" data-name="Rectangle 445" width="3.392" height="23.468" fill="none"/>
    </clipPath>
    <clipPath id="clip-path-5">
      <rect id="Rectangle_447" data-name="Rectangle 447" width="15.447" height="11.999" fill="none"/>
    </clipPath>
    <clipPath id="clip-path-7">
      <rect id="Rectangle_449" data-name="Rectangle 449" width="98.073" height="47.98" fill="none"/>
    </clipPath>
    <clipPath id="clip-path-8">
      <rect id="Rectangle_450" data-name="Rectangle 450" width="176.299" height="69.981" fill="none"/>
    </clipPath>
    <linearGradient id="linear-gradient" x1="5.837" y1="0.41" x2="0.512" y2="0.492" gradientUnits="objectBoundingBox">
      <stop offset="0" stop-color="#b63979"/>
      <stop offset="0.999" stop-color="#784988"/>
      <stop offset="1" stop-color="#784988"/>
    </linearGradient>
    <linearGradient id="linear-gradient-2" x1="0" y1="0.5" x2="1" y2="0.5" xlink:href="#linear-gradient"/>
    <linearGradient id="linear-gradient-4" x1="6.799" y1="0.41" x2="1.474" y2="0.492" xlink:href="#linear-gradient"/>
    <linearGradient id="linear-gradient-5" x1="1.985" y1="0.5" x2="2.985" y2="0.5" xlink:href="#linear-gradient"/>
    <linearGradient id="linear-gradient-6" x1="10.432" y1="0.5" x2="11.432" y2="0.5" xlink:href="#linear-gradient"/>
  </defs>
  <g id="Group_1234" data-name="Group 1234" transform="translate(-389.624 -72.326)">
    <g id="Group_1222" data-name="Group 1222" transform="translate(389.624 72.326)">
      <g id="Group_1221" data-name="Group 1221" transform="translate(0 0)">
        <path id="Path_972" data-name="Path 972" d="M477.605,94.574c-.68-22.248-34.937-15.808-27.66,8.106-7.277-8.106-18.409-11.274-29.025.4-4.81,5.293-4.1,15-2.049,21.886-8.881-.4-19.807,1.622-21.514,14.591-1.025,8.511,2.731,14.59,9.56,17.428-22.538,1.216-23.221,36.476-1.025,36.881-6.829,4.459-12.293,8.917-11.609,19.454,1.024,12.158,8.2,13.375,16.391,13.779-11.269,19.049,1.365,34.451,19.123,28.371.342,6.889-1.024,12.969,5.122,17.022,6.489,4.457,17.416,3.242,23.562-.811,1.024,6.484,2.391,10.538,8.2,12.159,5.123.81,8.878-2.432,12.636-1.216,4.78,1.621,7.511,6.079,13.318,3.648,5.123-2.027,7.171-8.917,11.951-11.754,8.878-5.269,18.1,1.216,24.587,8.511,6.147,7.3,18.783,10.539,20.49-3.646,5.122,1.215,12.293,5.674,17.758,1.215,4.1-3.241,3.074-9.321,3.413-14.59,13.66,9.322,24.586-2.837,17.758-19.048,5.8-2.838,8.537.4,13.66-5.269,7.854-8.511,4.782-18.757,2.051-27.269,0,0,2.047.519,5.12-4.75a31.809,31.809,0,0,0,3.074-9.726c1.025-6.891,0-13.374-6.146-16.212,5.462-8.106,10.926-12.565,8.2-24.317-2.049-9.322-8.2-13.781-15.026-15.4,12.293-14.185,1.366-39.718-15.367-35.665,7.257-16.618-10.585-32.423-22.2-17.833-.342-18.2-23.562-22.291-31.076-6.891-3.756-8.511-12.294-13.779-20.49-10.131-6.487,3.243-7.853,8.511-8.536,15.4-3.1-8.108-8.88-12.97-17.416-9.322-5.122,2.432-6.489,8.916-7.171,15" transform="translate(-389.624 -72.326)" fill="#4f2743"/>
        <path id="Path_973" data-name="Path 973" d="M530.786,169.679s-2.725.993-1.557-12.9l9.34,12.919s-3.793-7.956-4.815-14.9c0,0,11.8,13.927,15.9,14.9s32.117,2.963,48.463,20.83,23.749,35.184,25.532,53.931c2.888,30.365-1.4,56.251-12.69,73.623l-.39-4.962S598.5,335.449,580.211,341.9s-72.388,0-72.388,0-30.355-10.423-40.863-40.7-4.671-34.742-4.671-34.742l-4.523,5.45s-1.182-43.583,29.432-74.438c24.13-24.319,43.589-27.795,43.589-27.795" transform="translate(-428.317 -119.156)" fill="#ff4f5b"/>
        <path id="Path_974" data-name="Path 974" d="M473.618,179.181c-8.976,5.611-15.126,61.271,2.718,69.822,11.338,5.434,22.88-16.514,22.849-28.3.039,14.689,2.593,23.374,18.536,23.934,11.958,0,22.821-4.344,23.317-18.339-1.991,23.509,28.9,24.07,30.394.561,3.985,13.993,14.551,25.026,28.9,20.15,20.348-6.915,15-27.222,20.534-28.4,8.54-1.822,14.772-5.523,12.351-20.3-2.989-17.912-15.67-32.957-29.124-36.877,0,0-38.625-39.675-130.474,17.742" transform="translate(-432.36 -115.347)" fill="#4f2743"/>
        <g id="Group_1210" data-name="Group 1210" transform="translate(54.017 128.128)">
          <g id="Group_1209" data-name="Group 1209">
            <g id="Group_1205" data-name="Group 1205" transform="translate(11.168 4.822)">
              <path id="Path_975" data-name="Path 975" d="M648.445,503.56a13.532,13.532,0,0,1-1.721,5.217c-.079.134-.162.267-.25.4a11.4,11.4,0,0,1-1.827,2.167c-.249.231-.507.45-.774.661a15.719,15.719,0,0,1-2.427,1.562c-.221.118-.449.228-.676.335a25.29,25.29,0,0,1-6.914,2.043q-.245.042-.49.075a34.582,34.582,0,0,1-7.13.259c-.175-.01-.347-.025-.518-.039a24.008,24.008,0,0,1-6.607-1.381h0c-.071-.03-.143-.057-.214-.09a13.977,13.977,0,0,1-1.781-.867,11.409,11.409,0,0,1-2.856-2.346c-.05-.056-.1-.113-.144-.171a13.124,13.124,0,0,1-2.258-3.981,19.225,19.225,0,0,1-.585-1.885,2.239,2.239,0,0,1,3.4-2.434,14.124,14.124,0,0,0,1.5.819,12.8,12.8,0,0,0,2.843.921c5.821,1.231,14.343-.092,20.184-1.815.321-.1.627-.2.927-.3a14.372,14.372,0,0,0,4.775-2.791,2.219,2.219,0,0,1,3.684,1.693,17.8,17.8,0,0,1-.135,1.952" transform="translate(-580.634 -447.779)" fill="#4f2743"/>
              <g id="Group_1200" data-name="Group 1200" transform="translate(37.957 54.927)">
                <g id="Group_1199" data-name="Group 1199" clip-path="url(#clip-path)">
                  <path id="Path_976" data-name="Path 976" d="M646.585,513.182a34.821,34.821,0,0,1-7.989,2.584c-.2-.035-6.688-1.26-6.688-1.26-3.363-1.165-4.217-4.232-3.175-5.28,5.822,1.232,14.343-.092,20.185-1.814.321-.1.627-.2.927-.3,1.73,1.652-1,4.8-3.259,6.073" transform="translate(-628.316 -507.109)" fill="#4f2743"/>
                </g>
              </g>
              <path id="Path_977" data-name="Path 977" d="M651.653,523.152a15.76,15.76,0,0,1-2.427,1.562c-.221.118-.449.228-.676.335a25.332,25.332,0,0,1-6.916,2.043c-.163.028-.326.053-.49.074a34.53,34.53,0,0,1-7.13.259c-.174-.009-.346-.024-.517-.039a24.01,24.01,0,0,1-6.608-1.381h0c-.071-.029-.142-.057-.214-.09a14.02,14.02,0,0,1-1.78-.867c.533-1.117.993-1.944.993-1.944,6.206-5.284,11.839-3.748,12.185-1.865.1-2,4.781-4.231,12.5.865a3.246,3.246,0,0,1,1.083,1.048" transform="translate(-588.414 -458.927)" fill="#ff4f5b"/>
              <path id="Path_978" data-name="Path 978" d="M614.981,520.636a13.125,13.125,0,0,1-2.258-3.98c2.986-2.912,3.436,1.143,2.258,3.98" transform="translate(-581.504 -457.032)" fill="#fffcf8"/>
              <path id="Path_979" data-name="Path 979" d="M622.917,528.428a11.973,11.973,0,0,1-4.637-3.214c3.328-3.5,5.445-1.634,4.637,3.214" transform="translate(-584.659 -461.439)" fill="#fffcf8"/>
              <path id="Path_980" data-name="Path 980" d="M636.122,533.353a23.993,23.993,0,0,1-6.607-1.381c2.97-4.017,5.354-2.864,6.607,1.381" transform="translate(-591.04 -464.894)" fill="#fffcf8"/>
              <path id="Path_981" data-name="Path 981" d="M653.133,534.149a34.521,34.521,0,0,1-7.13.259c2.434-4.3,5.16-3.948,7.13-.259" transform="translate(-600.403 -465.909)" fill="#fffcf8"/>
              <path id="Path_982" data-name="Path 982" d="M670.552,530.557a25.286,25.286,0,0,1-6.915,2.043c1.178-5.155,4.257-4.538,6.915-2.043" transform="translate(-610.417 -464.434)" fill="#fffcf8"/>
              <path id="Path_983" data-name="Path 983" d="M686.232,521.778a11.443,11.443,0,0,1-1.827,2.166,14.91,14.91,0,0,1-3.2,2.223c.215-4.066,2.286-5.172,5.028-4.389" transform="translate(-620.393 -460.379)" fill="#fffcf8"/>
              <path id="Path_984" data-name="Path 984" d="M694.159,509.086a13.529,13.529,0,0,1-1.721,5.217c-.907-2.012-1.591-4.371,1.721-5.217" transform="translate(-626.348 -453.305)" fill="#fffcf8"/>
              <g id="Group_1202" data-name="Group 1202" transform="translate(66.869 17.332)">
                <g id="Group_1201" data-name="Group 1201" clip-path="url(#clip-path-2)">
                  <path id="Path_985" data-name="Path 985" d="M695.223,430.429s2.954-9.039,11.32-10.207c9.589-1.34,12.864,9.424,12.7,14.452,0,0-12.067-7.531-24.018-4.244" transform="translate(-695.223 -420.107)" fill-rule="evenodd"/>
                </g>
              </g>
              <path id="Path_986" data-name="Path 986" d="M717.428,439.993c0,8.341-5.686,15.1-12.7,15.1s-12.7-6.761-12.7-15.1,5.686-15.1,12.7-15.1,12.7,6.762,12.7,15.1" transform="translate(-626.541 -405.491)" fill="#fffcf8" fill-rule="evenodd"/>
              <path id="Path_987" data-name="Path 987" d="M720.732,449.91c0,4.558-3.107,8.253-6.94,8.253s-6.939-3.7-6.939-8.253,3.107-8.253,6.939-8.253,6.94,3.7,6.94,8.253" transform="translate(-634.959 -415.013)" fill="#4f2743" fill-rule="evenodd"/>
              <path id="Path_988" data-name="Path 988" d="M732.025,469.756A2.025,2.025,0,1,1,730,467.731a2.025,2.025,0,0,1,2.024,2.025" transform="translate(-646.953 -429.82)" fill="#fff" fill-rule="evenodd"/>
              <path id="Path_989" data-name="Path 989" d="M540.777,399.475c2.052-3.832,7.5-11.314,20.167-15.7a2.56,2.56,0,0,1,3.326,1.838l.816,3.532a2.536,2.536,0,0,1-1.836,3.037c-4.112,1.037-12.582,3.833-18.371,10.234a2.516,2.516,0,0,1-2.963.554,2.543,2.543,0,0,1-1.139-3.491" transform="translate(-540.475 -382.061)" fill="#4f2743" fill-rule="evenodd"/>
              <path id="Path_990" data-name="Path 990" d="M737.863,396.383c-1.951-3.883-7.2-11.505-19.751-16.222a2.56,2.56,0,0,0-3.373,1.75l-.908,3.51a2.535,2.535,0,0,0,1.756,3.083c4.083,1.144,12.479,4.16,18.1,10.71a2.517,2.517,0,0,0,2.947.63,2.543,2.543,0,0,0,1.229-3.461" transform="translate(-638.875 -379.997)" fill="#4f2743" fill-rule="evenodd"/>
              <g id="Group_1204" data-name="Group 1204" transform="translate(8.765 19.399)">
                <g id="Group_1203" data-name="Group 1203" clip-path="url(#clip-path-3)">
                  <path id="Path_991" data-name="Path 991" d="M560.839,442s-1.288-12.875,6.445-16.228c6.738-2.922,14.684,1.833,17.121,8.409Z" transform="translate(-560.759 -424.89)" fill-rule="evenodd"/>
                </g>
              </g>
              <path id="Path_992" data-name="Path 992" d="M586.343,444.633c0,8.341-5.686,15.1-12.7,15.1s-12.7-6.761-12.7-15.1,5.686-15.1,12.7-15.1,12.7,6.762,12.7,15.1" transform="translate(-552.1 -408.127)" fill="#fffcf8" fill-rule="evenodd"/>
              <path id="Path_993" data-name="Path 993" d="M588.382,455.42c0,4.559-3.107,8.253-6.939,8.253s-6.94-3.695-6.94-8.253,3.107-8.253,6.94-8.253,6.939,3.695,6.939,8.253" transform="translate(-559.799 -418.142)" fill="#4f2743" fill-rule="evenodd"/>
              <path id="Path_994" data-name="Path 994" d="M603.59,471.669a2.025,2.025,0,1,1-2.024-2.025,2.025,2.025,0,0,1,2.024,2.025" transform="translate(-574.017 -430.906)" fill="#fff" fill-rule="evenodd"/>
            </g>
            <g id="Group_1208" data-name="Group 1208">
              <path id="Path_995" data-name="Path 995" d="M523.36,401.215a2.919,2.919,0,0,1-.3-.5c-.173-.337-.465-.817-.758-1.475a33.456,33.456,0,0,1-2.1-5.729,36.211,36.211,0,0,1,.329-19.97l.388.162c-.046.085-.095.176-.143.27-2.04,3.838-3.973,7.473-5.691,10.7l-.459.865.1-.973a39.326,39.326,0,0,1,3.033-11.626c.586-1.346,1.123-2.376,1.508-3.067.19-.347.352-.606.456-.782a1.24,1.24,0,0,1,.177-.258,1.179,1.179,0,0,1-.121.289c-.108.213-.241.48-.4.808-.35.707-.851,1.749-1.4,3.1a41.028,41.028,0,0,0-2.863,11.573l-.359-.109,5.655-10.72c.048-.093.1-.185.143-.27l.388.161a36.373,36.373,0,0,0-1.587,10.865,37.375,37.375,0,0,0,3.1,14.642c.269.665.536,1.155.685,1.5a3.118,3.118,0,0,1,.221.535" transform="translate(-514.63 -368.839)" fill="#e23445"/>
              <path id="Path_996" data-name="Path 996" d="M772.366,461.968a1.324,1.324,0,0,1,.189-.285c.155-.206.348-.462.585-.774.236-.347.481-.8.792-1.312l.4-.866.22-.473c.061-.169.125-.341.191-.516a32.77,32.77,0,0,0,1.731-11.577c-.01-.651-.023-1.3-.066-1.922l-.085-1.225.391,1.162c.4,1.2.791,2.35,1.157,3.438l-.283,0a11.885,11.885,0,0,0,.753-4.348,12.25,12.25,0,0,0-.535-3.445,16.687,16.687,0,0,0-1.242-2.858c.008,0,.053.053.132.168s.2.284.335.519a11.124,11.124,0,0,1,.952,2.116,12.122,12.122,0,0,1-.114,7.955l-.145.4-.138-.4c-.369-1.085-.763-2.236-1.171-3.432l.306-.063c.045.64.059,1.286.068,1.944a31.49,31.49,0,0,1-1.838,11.66c-.07.178-.137.35-.2.519s-.157.321-.233.475q-.229.457-.432.867c-.33.507-.592.958-.847,1.3l-.637.743a1.362,1.362,0,0,1-.237.244" transform="translate(-660.994 -407.525)" fill="#e23445"/>
              <path id="Path_997" data-name="Path 997" d="M581.61,506.432c0,1.349-2.817,2.442-6.291,2.442s-6.291-1.093-6.291-2.442,2.817-2.442,6.291-2.442,6.291,1.093,6.291,2.442" transform="translate(-545.522 -445.589)" fill="#e23445"/>
              <path id="Path_998" data-name="Path 998" d="M722.966,506.432c0,1.349-2.817,2.442-6.291,2.442s-6.291-1.093-6.291-2.442,2.817-2.442,6.291-2.442,6.291,1.093,6.291,2.442" transform="translate(-625.795 -445.589)" fill="#e23445"/>
              <g id="Group_1207" data-name="Group 1207" transform="translate(0 21.375)">
                <g id="Group_1206" data-name="Group 1206" clip-path="url(#clip-path-4)">
                  <path id="Path_999" data-name="Path 999" d="M514.629,418.3c.327,1.955.6,3.914.876,5.872l.784,5.879.753,5.879c.12.98.259,1.959.411,2.934.077.487.134.98.236,1.461l.142.726.191.716A30.967,30.967,0,0,1,516.6,436c-.356-1.95-.629-3.912-.888-5.875s-.475-3.93-.65-5.9-.344-3.943-.432-5.923" transform="translate(-514.629 -418.305)" fill="#ff4f5b"/>
                </g>
              </g>
            </g>
          </g>
        </g>
        <path id="Path_1000" data-name="Path 1000" d="M461.632,331.442s-2.453,41.28-22.075,40.63,3.364-48.724,3.364-48.724l16.994,1.471Z" transform="translate(-413.479 -214.877)" fill="#4f2743"/>
        <path id="Path_1001" data-name="Path 1001" d="M808.958,311.416s-.49,17.418,19.132,16.768-.42-24.863-.42-24.863l-14.648-12.509Z" transform="translate(-627.757 -196.401)" fill="#4f2743"/>
        <path id="Path_1003" data-name="Path 1003" d="M706.046,584.9c-.441.8-1.542.869-2.462.83-6.608-.29-13.227.217-19.847.039a1.514,1.514,0,0,1-1.464-1.536l.058-4.309.012-.635v-.052l.066-4.885.039-2.566.013-.467.181-13.308,18.634-4.964c-1.179,4.95-2.333,9.927-3.5,14.876-.039.169-.078.324-.117.493-.156.687-.324,1.361-.479,2.048-.545,2.306-1.089,4.6-1.645,6.907a.458.458,0,0,1-.026.129c-.039.182-.078.376-.13.558-.169.764-.35,1.529-.531,2.306,4.395,1.356,11.728,3.512,11.2,4.535" transform="translate(-555.815 -345.322)" fill="#ff4f5b"/>
        <g id="Group_1216" data-name="Group 1216" transform="translate(126.439 222.605)" opacity="0.14">
          <g id="Group_1215" data-name="Group 1215">
            <g id="Group_1214" data-name="Group 1214" clip-path="url(#clip-path-5)">
              <path id="Path_1004" data-name="Path 1004" d="M697.676,587.479c-.039.168-.078.323-.117.493-.156.687-.324,1.36-.48,2.047-.544,2.307-1.088,4.6-1.646,6.907a.461.461,0,0,1-.026.13c-.039.181-.078.376-.13.557a100.613,100.613,0,0,1-13.049,1.866l.012-.635v-.052l.065-4.885.039-2.566.013-.466a118.973,118.973,0,0,0,15.318-3.395" transform="translate(-682.229 -587.479)"/>
            </g>
          </g>
        </g>
        <path id="Path_1005" data-name="Path 1005" d="M562.163,584.9c.441.8,1.542.869,2.462.83,6.775-.3,13.562.244,20.349.024a1.007,1.007,0,0,0,.968-1.018l-.064-4.811-.013-.635v-.052l-.065-4.885-.04-2.566-.013-.467-.182-13.308-18.634-4.964c1.179,4.95,2.332,9.927,3.5,14.876.039.169.078.324.117.493.156.687.324,1.361.479,2.048.544,2.306,1.088,4.6,1.646,6.907a.456.456,0,0,0,.026.129c.039.182.078.376.13.558.169.764.35,1.529.532,2.306-4.395,1.356-11.728,3.512-11.2,4.535" transform="translate(-487.591 -345.322)" fill="#ff4f5b"/>
        <g id="Group_1219" data-name="Group 1219" transform="translate(82.918 222.605)" opacity="0.14">
          <g id="Group_1218" data-name="Group 1218">
            <g id="Group_1217" data-name="Group 1217" clip-path="url(#clip-path-5)">
              <path id="Path_1006" data-name="Path 1006" d="M581.511,587.479c.039.168.078.323.117.493.156.687.325,1.36.48,2.047.544,2.307,1.088,4.6,1.645,6.907a.458.458,0,0,0,.025.13c.04.181.078.376.13.557a100.614,100.614,0,0,0,13.049,1.866l-.013-.635v-.052l-.065-4.885-.039-2.566-.013-.466a118.966,118.966,0,0,1-15.317-3.395" transform="translate(-581.511 -587.479)"/>
            </g>
          </g>
        </g>
        <g id="Group_1220" data-name="Group 1220" transform="translate(43.262 182.685)">
          <path id="Path_1007" data-name="Path 1007" d="M506.887,495.178c.13.131.1.417-.075.83a16.165,16.165,0,0,1-.88,1.623c-.813,1.322-1.965,3.17-3.148,5.436a44.884,44.884,0,0,0-3.228,7.953,38.072,38.072,0,0,0-1.546,9.426c-.051.8-.011,1.607-.01,2.4.049.8.07,1.589.166,2.373.06.783.194,1.557.3,2.317.063.38.143.756.212,1.129.036.187.071.373.105.557l.131.548a38.154,38.154,0,0,0,1.2,4.135c.48,1.283.964,2.48,1.494,3.553a38.077,38.077,0,0,0,2.9,5c5.483,7.028-3.965,14.616-9.155,5.288a44.254,44.254,0,0,1-4.47-11.36,43.654,43.654,0,0,1-.9-5.274q-.04-.344-.078-.691c-.017-.232-.033-.465-.05-.7-.03-.468-.07-.937-.089-1.411-.018-.948-.056-1.9-.01-2.869.009-.963.1-1.932.178-2.9.123-.968.217-1.937.409-2.894a39.807,39.807,0,0,1,3.519-10.738,38.056,38.056,0,0,1,5.386-8.114,26.869,26.869,0,0,1,5.066-4.608,8.615,8.615,0,0,1,1.709-.95c.438-.17.727-.2.857-.065" transform="translate(-489.74 -495.095)" fill="#ff4f5b"/>
        </g>
        <path id="Path_1008" data-name="Path 1008" d="M753.048,506.386c-.085.164.033.426.32.77a16.475,16.475,0,0,0,1.327,1.283c1.173,1.017,2.825,2.434,4.634,4.24a44.846,44.846,0,0,1,5.465,6.616,38.077,38.077,0,0,1,4.3,8.529c.288.749.493,1.53.731,2.289.194.776.411,1.537.554,2.314.178.766.282,1.543.41,2.3.054.381.09.764.137,1.14.022.188.044.376.066.564s.027.375.041.562a38.163,38.163,0,0,1,.094,4.3c-.073,1.368-.175,2.656-.358,3.838a38.292,38.292,0,0,1-1.269,5.643c-3.121,8.349,8.17,12.751,10.321,2.3a44.235,44.235,0,0,0,.854-12.177,43.845,43.845,0,0,0-.723-5.3q-.067-.339-.134-.682t-.163-.681c-.112-.455-.216-.916-.339-1.372-.268-.911-.519-1.834-.852-2.74-.3-.916-.678-1.813-1.041-2.714-.409-.885-.79-1.782-1.259-2.638a39.869,39.869,0,0,0-6.581-9.186,38.146,38.146,0,0,0-7.571-6.123,26.891,26.891,0,0,0-6.217-2.874,8.662,8.662,0,0,0-1.916-.394c-.467-.031-.751.031-.835.2" transform="translate(-595.991 -318.707)" fill="#ff4f5b"/>
      </g>
    </g>
    <g id="Group_1225" data-name="Group 1225" transform="translate(451.588 137.299)" style="mix-blend-mode: screen;isolation: isolate">
      <g id="Group_1224" data-name="Group 1224" transform="translate(0 0)">
        <g id="Group_1223" data-name="Group 1223" clip-path="url(#clip-path-7)">
          <path id="Path_1009" data-name="Path 1009" d="M539.383,246.753a24.5,24.5,0,0,0-3.44,4.545,18.989,18.989,0,0,0-2.189,5.219,8.693,8.693,0,0,0,.262,5.483,7.15,7.15,0,0,0,3.962,3.63,13.889,13.889,0,0,0,5.434,1.025,11.565,11.565,0,0,0,5.287-1.416,11.356,11.356,0,0,0,5.818-8.819l1.025.1a49.9,49.9,0,0,0-.088,6.8,24.767,24.767,0,0,0,1.231,6.585,12.436,12.436,0,0,0,3.509,5.443,11.79,11.79,0,0,0,5.885,2.627,15.036,15.036,0,0,0,6.521-.309,10.28,10.28,0,0,0,5.337-3.446,13.211,13.211,0,0,0,2.539-5.939,21.366,21.366,0,0,0,.045-6.634l1.443-.2a13.012,13.012,0,0,0,1.749,4.825,11.853,11.853,0,0,0,3.562,3.663,14.42,14.42,0,0,0,9.961,2.137,11.758,11.758,0,0,0,4.789-1.818,8.692,8.692,0,0,0,3.2-3.84,10.072,10.072,0,0,0,.58-5.047,19.771,19.771,0,0,0-1.468-5.05l1.191-.464a11.609,11.609,0,0,0,4.777,5.94,16.22,16.22,0,0,0,7.412,2.533,13.818,13.818,0,0,0,7.669-1.356,8.928,8.928,0,0,0,4.629-5.983,14.148,14.148,0,0,0,.268-3.959,15.82,15.82,0,0,0-.692-3.927c-.048-.159-.081-.325-.141-.48l-.2-.456-.4-.914c-.286-.6-.688-1.139-1.025-1.715-.434-.506-.832-1.049-1.307-1.519l-.739-.681-.372-.34-.409-.3a20.672,20.672,0,0,0-7.331-3.356,35.443,35.443,0,0,0-8.092-1.047,34.514,34.514,0,0,1,8.155.788,21.027,21.027,0,0,1,7.55,3.234l.429.293.393.341.785.688c.505.476.937,1.031,1.4,1.549.37.59.8,1.148,1.12,1.77l.447.95.224.475c.066.161.107.332.162.5a15.594,15.594,0,0,1,.812,4.1,14.922,14.922,0,0,1-.224,4.191,9.82,9.82,0,0,1-4.983,6.642,14.833,14.833,0,0,1-8.217,1.6,17.375,17.375,0,0,1-7.98-2.6,12.645,12.645,0,0,1-5.333-6.554l1.191-.464a21.066,21.066,0,0,1,1.6,5.413,11.385,11.385,0,0,1-.641,5.71,10.045,10.045,0,0,1-3.673,4.464,13.122,13.122,0,0,1-5.341,2.065,15.823,15.823,0,0,1-10.972-2.3,13.307,13.307,0,0,1-4.019-4.093,14.243,14.243,0,0,1-1.936-5.392l1.443-.2a22.784,22.784,0,0,1-.088,7.079,14.589,14.589,0,0,1-2.862,6.564,11.649,11.649,0,0,1-6.047,3.874,16.368,16.368,0,0,1-7.111.306,13.091,13.091,0,0,1-6.5-2.958,13.615,13.615,0,0,1-3.842-6.006,25.985,25.985,0,0,1-1.19-6.924,51.237,51.237,0,0,1,.2-6.953l1.025.1a12.406,12.406,0,0,1-2.055,5.534,12.224,12.224,0,0,1-4.381,3.923,12.368,12.368,0,0,1-5.678,1.431,14.176,14.176,0,0,1-5.7-1.207,9.287,9.287,0,0,1-2.472-1.6,6.81,6.81,0,0,1-1.688-2.42,9.112,9.112,0,0,1-.147-5.759,18.835,18.835,0,0,1,2.361-5.237,24.673,24.673,0,0,1,3.606-4.444" transform="translate(-533.022 -231.548)" fill="#4f2743" opacity="0.19"/>
          <path id="Path_1010" data-name="Path 1010" d="M626.706,231.99a7.443,7.443,0,0,1-.325-5.2,4.2,4.2,0,0,1,1.854-2.114,5.219,5.219,0,0,1,2.776-.559,7.877,7.877,0,0,1,4.953,2.357,9.753,9.753,0,0,1,2.555,4.849l-1.4-.156c.634-1.4,1.02-3.058,1.741-4.629a8.831,8.831,0,0,1,1.419-2.267,4.608,4.608,0,0,1,2.391-1.445,5.055,5.055,0,0,1,2.735.1,4.414,4.414,0,0,1,2.159,1.6,6.5,6.5,0,0,1,1.06,4.885,6.758,6.758,0,0,0-1.611-4.429,3.8,3.8,0,0,0-4.04-1.053,4.878,4.878,0,0,0-2.838,3.166c-.615,1.458-.977,3.049-1.672,4.684l-.9,2.129-.491-2.285a8.492,8.492,0,0,0-2.119-4.164,6.9,6.9,0,0,0-4.048-2.18,4.3,4.3,0,0,0-2.234.276,3.345,3.345,0,0,0-1.621,1.539,5.658,5.658,0,0,0-.561,2.357,13.366,13.366,0,0,0,.217,2.539" transform="translate(-585.846 -222.687)" fill="#4f2743" opacity="0.19"/>
        </g>
      </g>
    </g>
    <g id="Group_1228" data-name="Group 1228" transform="translate(418.426 112.784)" style="mix-blend-mode: screen;isolation: isolate">
      <g id="Group_1227" data-name="Group 1227" transform="translate(0)">
        <g id="Group_1226" data-name="Group 1226" clip-path="url(#clip-path-8)">
          <path id="Path_1011" data-name="Path 1011" d="M817.238,287.583a26.93,26.93,0,0,0,6.439,3.618,7.544,7.544,0,0,0,3.456.452,4.433,4.433,0,0,0,2.821-1.615,4.377,4.377,0,0,0,1.057-3,7.519,7.519,0,0,0-1.037-3.21,14.84,14.84,0,0,0-2.139-2.839,19.792,19.792,0,0,0-2.676-2.39l-1.442-1.05,1.744-.255c2.085-.306,4.042-.2,5.936-.455,1.863-.242,3.709-.851,4.63-2.4.968-1.457.655-3.554-.129-5.247a6.558,6.558,0,0,0-1.69-2.28,3.542,3.542,0,0,0-2.675-.889,3.53,3.53,0,0,1,2.887.6,7.066,7.066,0,0,1,2.053,2.262,7.842,7.842,0,0,1,1.031,2.924,5.76,5.76,0,0,1,0,1.61,3.338,3.338,0,0,1-.2.808l-.15.4-.2.358a5.509,5.509,0,0,1-2.346,2.249,10.157,10.157,0,0,1-3.016.922c-2.026.346-4.057.282-5.893.568l.3-1.3a18.146,18.146,0,0,1,5.227,5.711A8.35,8.35,0,0,1,832.365,287a5.707,5.707,0,0,1-5.115,5.68,8.22,8.22,0,0,1-3.856-.754,17.355,17.355,0,0,1-3.271-1.941,29.774,29.774,0,0,1-2.885-2.406" transform="translate(-661.261 -222.723)" fill="#4f2743" opacity="0.19"/>
        </g>
      </g>
    </g>
    <g id="Group_1231" data-name="Group 1231" transform="translate(514.095 257.371)">
      <g id="Group_1230" data-name="Group 1230">
        <g id="Group_1229" data-name="Group 1229" transform="translate(22.216)">
          <path id="Path_1012" data-name="Path 1012" d="M778.118,500.557a39.307,39.307,0,0,1-13.9,17.292A36.886,36.886,0,0,1,759,520.9q-.644.307-1.315.59c-8.838,3.745-20.917,4.588-28.461,4.711a4.719,4.719,0,0,1,.127,1.052v1.3a4.673,4.673,0,0,1-.264,1.5,67.117,67.117,0,0,0,34.474-7.523,47.191,47.191,0,0,0,5.06-3.058c8.641-5.99,12.453-13.22,14.112-18.76h-3.349A5.552,5.552,0,0,1,778.118,500.557Z" transform="translate(-729.087 -500.557)" fill="#efe6e1"/>
        </g>
        <path id="Path_1013" data-name="Path 1013" d="M700.155,556.137a4.765,4.765,0,0,0-4.724-4.724H682.4a4.725,4.725,0,0,0-4.724,4.724v1.3a4.724,4.724,0,0,0,4.724,4.724H695.43a4.8,4.8,0,0,0,4.724-4.724Z" transform="translate(-677.674 -529.437)" fill="#4f2743"/>
      </g>
    </g>
    <g id="Group_1232" data-name="Group 1232" transform="translate(581.201 197.6)">
      <path id="Path_1014" data-name="Path 1014" d="M862.626,424.677a4.564,4.564,0,0,0,.074-.73V372.36c0-.127-.027-.246-.038-.37a30.56,30.56,0,0,1,9.041,2.716,21.9,21.9,0,0,1,8,6.55c2.6,3.481,4.441,8.2,4.878,14.563.065.95.111,1.924.111,2.949C884.691,418.785,871.807,423.707,862.626,424.677Z" transform="translate(-849.812 -367.775)" fill="url(#linear-gradient)"/>
      <path id="Path_1015" data-name="Path 1015" d="M832.972,373.434v-6.614a4.585,4.585,0,0,1,4.585-4.585h3.718a4.594,4.594,0,0,1,4.547,4.215c.01.124.038.243.038.37v51.587a4.691,4.691,0,0,1-4.585,4.584h-3.718a4.649,4.649,0,0,1-4.585-4.584Z" transform="translate(-832.972 -362.236)" fill="#1e151c"/>
      <path id="Path_1016" data-name="Path 1016" d="M875.071,432.788a32.491,32.491,0,0,0,9.338-9.658c.065.567.13,1.134.172,1.73.065.95.111,1.924.111,2.949,0,20.018-12.883,24.94-22.065,25.91a4.564,4.564,0,0,0,.074-.73V437.748A32.49,32.49,0,0,0,875.071,432.788Z" transform="translate(-849.812 -396.817)" fill="#ff4f5b" opacity="0.49" style="mix-blend-mode: multiply;isolation: isolate"/>
      <path id="Path_1017" data-name="Path 1017" d="M873.691,386.045c1.463-1.551,4.048-.459,5.424.647,1.61,1.294,2.973,3.132,2.518,5.293a1.547,1.547,0,0,1-2.245.914,9.72,9.72,0,0,1-2.805-2.743,6.656,6.656,0,0,0-1.22-1.128c-.412-.279-.933-.315-1.363-.583A1.547,1.547,0,0,1,873.691,386.045Z" transform="translate(-855.849 -375.319)" opacity="0.37" fill="url(#linear-gradient-2)" style="mix-blend-mode: screen;isolation: isolate"/>
      <path id="Path_1018" data-name="Path 1018" d="M895.125,406.707a1.192,1.192,0,0,1,1.96-.518c1.162,1.032.941,3.242-.06,4.279a1.1,1.1,0,0,1-1.82-.48,6.1,6.1,0,0,1-.195-1.592A4.811,4.811,0,0,1,895.125,406.707Z" transform="translate(-868.193 -387.008)" opacity="0.37" fill="url(#linear-gradient-2)" style="mix-blend-mode: screen;isolation: isolate"/>
    </g>
    <g id="Group_1233" data-name="Group 1233" transform="translate(396.785 197.6)">
      <path id="Path_1019" data-name="Path 1019" d="M428.261,424.677a4.575,4.575,0,0,1-.073-.73V372.36c0-.127.027-.246.037-.37a30.561,30.561,0,0,0-9.041,2.716,21.9,21.9,0,0,0-8,6.55c-2.6,3.481-4.441,8.2-4.879,14.563-.065.95-.111,1.924-.111,2.949C406.2,418.785,419.08,423.707,428.261,424.677Z" transform="translate(-406.196 -367.775)" fill="url(#linear-gradient-4)"/>
      <path id="Path_1020" data-name="Path 1020" d="M469.975,373.434v-6.614a4.585,4.585,0,0,0-4.585-4.585h-3.718a4.594,4.594,0,0,0-4.547,4.215c-.01.124-.037.243-.037.37v51.587a4.688,4.688,0,0,0,4.584,4.584h3.718a4.649,4.649,0,0,0,4.585-4.584Z" transform="translate(-435.097 -362.236)" fill="#1e151c"/>
      <path id="Path_1021" data-name="Path 1021" d="M415.816,432.788a32.491,32.491,0,0,1-9.338-9.658c-.065.567-.13,1.134-.172,1.73-.065.95-.111,1.924-.111,2.949,0,20.018,12.884,24.94,22.065,25.91a4.575,4.575,0,0,1-.073-.73V437.748A32.489,32.489,0,0,1,415.816,432.788Z" transform="translate(-406.196 -396.817)" fill="#ff4f5b" opacity="0.49" style="mix-blend-mode: multiply;isolation: isolate"/>
      <path id="Path_1022" data-name="Path 1022" d="M435.067,386.045c-1.463-1.551-4.048-.459-5.424.647-1.61,1.294-2.973,3.132-2.518,5.293a1.547,1.547,0,0,0,2.245.914,9.714,9.714,0,0,0,2.805-2.743,6.655,6.655,0,0,1,1.22-1.128c.412-.279.933-.315,1.363-.583A1.547,1.547,0,0,0,435.067,386.045Z" transform="translate(-418.031 -375.319)" opacity="0.37" fill="url(#linear-gradient-5)" style="mix-blend-mode: screen;isolation: isolate"/>
      <path id="Path_1023" data-name="Path 1023" d="M420.979,406.707a1.192,1.192,0,0,0-1.96-.518c-1.162,1.032-.941,3.242.06,4.279a1.1,1.1,0,0,0,1.82-.48,6.1,6.1,0,0,0,.194-1.592A4.81,4.81,0,0,0,420.979,406.707Z" transform="translate(-413.033 -387.008)" opacity="0.37" fill="url(#linear-gradient-6)" style="mix-blend-mode: screen;isolation: isolate"/>
    </g>
    <path id="Path_1024" data-name="Path 1024" d="M633.572,242.234s7.862-91.819-83.841-91.31-78.584,94.163-78.584,94.163" transform="translate(-45.927 -44.634)" fill="none" stroke="#1e151c" stroke-miterlimit="10" stroke-width="8"/>
    <path id="Path_1025" data-name="Path 1025" d="M563.991,163.31s-13.24-17.211-23.39-8.385S537.414,175,537.414,175" transform="translate(-82.605 -45.477)" fill="#4f2743"/>
    <path id="Path_1026" data-name="Path 1026" d="M734.745,171.048a15.207,15.207,0,0,1,16.256-1.9c9.24,4.391,3.12,18.233,3.12,18.233s20.212-3.089,26.566,7.944S770.4,215.386,770.4,215.386" transform="translate(-195.989 -54.097)" fill="#4f2743"/>
    <path id="Path_1027" data-name="Path 1027" d="M456.277,241.393s1.4,18.548,16.623,10.163,2.729-38.173,2.729-38.173Z" transform="translate(-37.851 -80.104)" fill="#4f2743"/>
  </g>
</svg>
