<?xml version="1.0" encoding="utf-8"?>
<!-- Generator: Adobe Illustrator 24.0.1, SVG Export Plug-In . SVG Version: 6.00 Build 0)  -->
<svg version="1.1" id="Layer_1" xmlns="http://www.w3.org/2000/svg" xmlns:xlink="http://www.w3.org/1999/xlink" x="0px" y="0px"
	 viewBox="0 0 205 217" style="enable-background:new 0 0 205 217;" xml:space="preserve">
<style type="text/css">
	.st0{fill:#B53979;}
</style>
<g id="Group_98_2_" transform="translate(0 -0.036)">
	<g id="Group_93_2_" transform="translate(6.481 15.551)">
		<g id="Group_92_2_">
			<g id="Group_91_1_">
				<path id="Path_77_1_" class="st0" d="M0.6,91.1c0.1,1.5,0.3-0.8,0.1,1C0.5,91.8,0.5,91.4,0.6,91.1z"/>
				<path id="Path_78_1_" class="st0" d="M95.5,181.5c1.3-0.3,2.6-0.6,3.9-0.7c1.4-0.2,2.8-0.4,4.3-0.6s2.9-0.5,4.3-0.7
					c1.4-0.3,2.8-0.7,4.1-1.1c0.6-0.2,0,0.6,1.3,0.1c0.6-0.3,1.3-0.5,2-0.8s1.4-0.5,2.2-0.8c1.5-0.6,3.2-1.1,4.8-1.7
					c0.8-0.3,1.7-0.6,2.5-0.9l2.5-1c1.7-0.6,3.2-1.3,4.8-1.9l-0.3,0.3c1.2-0.4,2.2-1.6,3.4-2.2c0.1,0.1-0.3,0.3,0,0.3
					c0.1-0.2,0.6-0.5,1.1-0.9c0.5-0.2,0.9-0.6,1.2-0.9c0.5-0.2,0.6,0,1.2-0.2l0.4-0.7c0.4-0.5,0.8-0.9,1.2-1.2
					c0.5-0.4,1-0.8,1.6-1.1c0.6-0.4,1.2-0.7,1.7-1.1c0.6-0.4,1.1-0.9,1.6-1.4c-0.1,0.1-0.2,0.4,0,0.3c0.8-0.8,1.7-1.6,2.6-2.5
					l1.4-1.3l0.7-0.6c0.2-0.2,0.5-0.5,0.7-0.7l1.4-1.4c0.5-0.5,1-0.9,1.4-1.4c0.9-1,1.8-1.9,2.6-2.9c0,0.2,0,0.5,0.3,0.4
					c-0.1-0.4,0.9-1.7,1.7-2.7c0.5-0.3,0.8-0.7,1-1.2c0.4-0.7,0.8-1.3,1.3-1.9v0.2c0.2-0.5,0.5-0.9,0.8-1.2s0.5-0.7,0.6-1.1l0.7-0.4
					c-0.1-0.7,1.2-1.2,1.5-2.2h-0.1c0.4-0.8,0.9-1.1,1.2-1.9h0.1c1-1.7,1.8-2.6,1.4-2.8c0.6-0.4-0.8,1.7,0.1,1
					c3.1-5.8,5.8-11.9,7.9-18.1c0.2-0.4,0.5-0.8,0.8-1.2c0.2-1,0.4-2,0.6-3c0,0.2,0.3-0.4,0.4-0.7c0.2-0.4,0.2-0.8,0.2-1.3
					s0-0.9,0.2-1.4c0,0.5,0.1,0.7,0.3,0.6c0-0.6,0-1.3,0.2-1.9c0.1-0.3,0.1-0.7,0.2-1c0-0.3,0.1-0.7,0.1-1c0,0.2,0,0.5,0.1,0.5
					c-0.1-1.5,0.5-2.6,0.5-3.9c0.1,0.2,0.1,0.3,0.1,0.5c0.6-2-0.4-0.7,0-2.4c0,0.4,0.1,0.3,0.2,0.4c-0.1-1-0.1-2,0.1-3
					c0-1.1,0.1-2.1,0.1-3c0,0.1,0.1,0.1,0.1,0.1c0-0.4,0-0.9,0.1-1.4c0-0.5,0-0.9,0-1.4c0-0.9,0-1.9,0-2.9c0.1-0.7,0.6,0.2,0.5-1.7
					c-0.5,0.1-0.3-3.2-0.8-2.1c0-0.4,0-0.9,0-1.4s0-1,0-1.5c0-0.8-0.1-1.6-0.2-2.4c0.2,0.7,0.5-0.8,0.7,0.5l0.2-1
					c0.2,0.1,0,1.1,0.2,0.7c0-0.7-0.5-2.6-0.5-3.2c-0.2-0.6-0.5-1.2-0.8-1.8c-0.3-0.8-0.6-1.6-0.8-2.4c0.3,0.9,0.4-0.6,0.6,0
					l-0.7-1.3c-0.2-0.4-0.5-0.9-0.7-1.3c-0.2-0.6,0.3-0.2,0-1.1c-0.1,0.1-0.3-0.3-0.4-0.6c0-0.1-0.2-0.8-0.3-1.5
					c0-0.2-0.1-0.4-0.1-0.5c0-0.2-0.1-0.3-0.1-0.5s0-0.4,0.1-0.6c0.1-0.3,0.4,1,0.3,0.3c-0.3-1.2-0.5-1.2-0.9-2.4l0,0
					c-0.1-0.5-0.3-0.9-0.5-1.3c-0.2-0.3-0.4-0.5-0.4,0c0.2,0.5,0.2-0.3,0.3,0.5c-0.6-0.9-1-1.9-1.3-3c0.2,0.4,0.3,0.3,0.5,0.4
					c-0.2-0.4-0.4-0.7-0.6-1.1c-0.1-0.2-0.2-0.4-0.3-0.6c-0.1-0.2-0.2-0.4-0.3-0.6c-0.4-0.8-0.8-1.6-1.2-2.4c-0.2,0,0.6,0.5,0.6,0.8
					c-0.2-0.6-0.4-1.1-0.6-1.7c-0.3-0.5-0.5-1.1-0.8-1.6s-0.5-1-0.8-1.5c-0.1-0.2-0.2-0.5-0.3-0.7s-0.2-0.5-0.2-0.7
					c0.2,0.3-0.2,0.3-0.2,0.2c-0.5-1-0.2-1.1-0.6-1.7c0.1-0.1-0.5-0.8-0.9-1.5c-0.3-0.3,0-0.2,0.3,0.4c-0.3-0.5-1.1-1.5-1.9-2.8
					c-0.8-1.3-1.7-2.7-2.2-3.8c-0.1,0.1-1.2-1-1.5-1.5h0.4c-0.2-0.5-1.1-1.5-1-1.7c-0.5-0.4,0.2,0.5,1,1.4c0.2,0.2,0.4,0.4,0.5,0.6
					c0.2,0.2,0.3,0.4,0.4,0.5c0.2,0.2,0.2,0.3-0.1,0c0-0.5-1.7-1.6-1.2-1.5c-0.8-0.8-1.4-1.7-2-2.6c0.2,0.3,0.9,0.5,0.3-0.2
					c-1-1.2-0.4-0.3-1.3-1.2l-0.6-0.6c-0.2,0.1-0.9-1.1-0.7-0.5c0.1-0.3-1.6-1.7-1.2-1.9l0.4-0.1c-0.5-0.4-1-0.7-1.5-0.9
					c0-0.1-0.1-0.3,0-0.3c-0.2,0.1-0.5-0.2-0.8-0.6c-0.3-0.4-0.7-0.8-1.2-1c-0.5-0.6-1-1.3-1.6-1.9c-0.5-0.4-0.9-0.9-1.2-1.5
					c-1-0.6-1.9-1.3-2.7-2.1c0.2,0.1,0.5,0.3,0.6,0.3c-0.4-0.5-0.8-0.8-1.4-1.1c0.1,0-0.2-0.3-0.5-0.7c-0.3-0.4-0.8-1-1.1-1.3
					c-1-0.6-0.9-0.1-1.1,0c-0.5-1.1-2.7-1.7-3.4-2.8c0.4,0.2,1.5,0.7,0.8,0.1c-0.5-1-1.9-0.9-3.1-2l0.1,0.6
					c-0.5-0.6-2.2-1.1-1.8-1.4c-0.5-0.2-1.5-1.2-1.6-0.7c-1.2-0.9-2.5-1.7-3.8-2.4c-1.2-0.5-2.2-1.2-3.1-2.1
					c-0.4-0.1-1.2-0.6-1.1-0.3c0.5,0.5,0.9,0.2,1,0.5c-0.3-0.1-0.4-0.1-0.5,0c-0.7-0.4-1.3-0.7-0.4-0.8c-0.6-0.4-1.2-0.6-1.9-0.6
					c-0.3,0-0.6-0.1-1-0.1c-0.5-0.1-0.9-0.3-1.3-0.5c0.2-0.1,0-0.3-0.6-0.5l-1.3-0.2c-1.4-0.6-0.7-0.7-0.6-1l-0.6-0.2
					c-0.2-0.1-0.4-0.1-0.6-0.2c-0.3-0.1-0.6-0.1-1-0.1l-0.8-0.7c0.6,0.5-0.7,0-1.1-0.1h0.4c-0.5-0.3-1-0.4-1.5-0.5
					c0,0.1,0.3,0.2,0.6,0.4c0.3,0.1,0.6,0.3,0.9,0.4c-0.4,0-1-0.3-1.6-0.2c0.3-0.2-1.2-0.6-1.8-0.8c-0.7-0.3-0.9,0-1.1,0
					c0-0.2-1.2-0.4-0.5-0.4c0.3,0,0.5,0.3,1,0.3c-0.4-0.2-0.3-0.5-1.4-0.6c-0.8,0,0,0.6-1.3,0.1c0.3,0,0.5-0.1,0.8-0.1l-1.3-0.5
					l-0.1,0.3c-0.2-0.1,0-0.1-0.1-0.2c-0.5,0.2-2-0.4-2.4-0.1c-0.7-0.1-1.4-0.4-2-0.6h0.1c-0.8-0.3-1.7-0.4-2.5-0.3V5.2
					c-0.7-0.1-1.4-0.1-2-0.1c-1.1-0.4-0.2-1.1-1.5-0.9c-1.1-0.1-1.8,0.4-1.4,0.6c-1-0.1-2.1-0.2-3.1-0.2s-2,0-3-0.3
					c-0.3,0.1-0.1,0.2-0.7,0.2c-0.4,0-0.8,0-1.1,0h-1.1c-0.8,0-1.5,0.1-2.3,0.1c-0.4,0-0.7,0-1.1,0c-0.4,0-0.7,0-1.1,0
					c-0.7,0-1.3,0-1.9-0.1c0.8-0.2,0-0.3,0-0.4c-0.7,0.3-0.9-0.2-1.1,0.2c0.1,0.2,0,0.4,0.9,0.4c-0.9,0.1-2,0.3-3,0.4
					c-0.8,0.1-1.6,0.1-2.4,0.1c0.5,0.1,0.1,0.2-0.2,0.3c0.1-0.4-1.2-0.2-2.2,0.1l-0.1,0.3l-0.7-0.1c-0.4,0.1-0.3,0.6-1.3,0.5
					c-0.1-0.1-0.2-0.2-0.3-0.2c-1.1,0.6-2.2,1-3.4,1.1c-0.3,0-0.6-0.1-1-0.1c-0.5,0.2-1.1,0.6-0.3,0.5L65.5,8
					c-0.3,0-0.6,0.1-0.8,0.1s-0.4,0-0.6,0c-2.9,1.7-7.2,3.4-10.7,5v-0.2c-1,0.3-0.3,0.5-1,0.7c0.2-0.3-0.9,0-0.2-0.5
					c-1.4,0.5-1.5,1.1-2.3,1.6c0,0.3,0.6-0.5,0.6-0.1c-0.3,0.2-0.6,0.4-1,0.5c-0.5,0.2-0.9,0.5-0.9,0.7c-0.4,0.1-0.3-0.3-0.2-0.5
					l-0.7,0.6c-1.2,0.2,1.8-1.9,0.5-1.8l-0.7,0.5c-0.9,0.1,1.7-1.5-0.2-0.5c-0.7,0.6-1.1,1.5-0.3,1.2c-1.6,1-0.3,1.2-2,2.2
					c-0.3,0.1,0-0.2,0.4-0.4c0.4-0.2,0.7-0.5,0.5-0.5s-0.5,0.1-0.7,0.3c-0.2,0.1-0.4,0.3-0.6,0.4c-0.3,0.3-0.7,0.6-1.1,0.8
					c0.9-0.4,0.4,0.4-0.1,0.7c-1,0.4,0.4-0.6-0.9,0.1c-0.1,0.3-1.1,1.1-0.1,0.6c-0.2,0.7-1.3,0.7-1.7,1.5c-0.6,0,0.8-1.5-0.6-0.7
					c0.4,0.1-1.3,1.5-0.4,1.4c-0.5,0.3-0.8,0.1-0.5-0.3c-0.9,0.3-1.4,1.8-2,1.4v0.5c-0.3,0.1-0.7,0.3-1.1,0.4
					c-0.4,0.3-0.8,0.7-1.1,1.1c-0.4,0.4-0.7,0.6-0.8,0.4c-0.2,0.2-1.5,1.4-0.8,1.2c1-0.6,0.8-1,1.6-1.1c-0.8,0.2-1.2,1.1-1.6,1.6
					l-0.2-0.1c-0.2,0.3-0.9,0.8-1,1.2c0.1-0.3-0.1-0.3-0.3-0.1l-0.1,0.5c-1,1.2-0.6-0.1-1.6,1l0.7-1c-0.2,0.2-0.7,0.4-1.2,0.9
					c0,0.4-0.2,1-0.2,1.3c-0.5,0.7-0.5,0.1-0.9,0.9c0.2-0.3,0.3-0.7,0.5-1c0-0.2-0.8,0.2-1.6,1c-0.4,0.6-0.9,1.7,0,0.9
					c-0.4,0.4-1,0.9-0.9,0.4c-0.8,1,0.3,0.1-0.3,1c-0.4,0.2-1.5,1.1-2.3,1.6l0.4-1.2l-0.5,0.6c0.4-1-0.5,0.2-0.5-0.5
					c-0.4,0.4-0.7,0.9-1,1.4c0.8-0.4,0.6,0.1,0.4,0.6c-0.2,0.6-0.5,1.2-0.1,1.2c-0.3,0.5-0.9,0.9-1.5,1c-0.2,0-0.4,0.2-0.6,0.3
					c-0.3,0.3-0.4,0.7-0.5,1.1c0.3-0.2,0.1,0.9,0.7-0.3c-0.8,1-0.1,1-1.2,2.2c0.5-1.1-1.2,0.7-0.5-0.9c0.1,0.2,0.7-0.7,0.8-0.9
					c-0.5,0.3-0.4-0.4-1.2,0.7c-0.4,0.7-1.1,1.6-0.8,1.7c0.3,0.1,0.7-1,0.7-0.4c-0.9,1.4-1.4,1.4-1.3,2.2c0.5-0.9,0.9-0.9,1.1-0.8
					l-0.5,1.1l-0.1-0.3c-1.2,1.5,0,0.7-1,2.2c-0.3,0.2-0.5,0.3-0.8,0.5c-0.1-0.6,1.6-2.2,0.9-2.2c-0.3,0.4-0.5,0.8-0.7,1.2
					s-0.4,0.8-0.7,1.2c0.1-0.2,0.2-0.6,0.3-0.8c-0.3,0.4-1.1,0.3-1.6,2.1c-0.3,0.9,0.1,0.3,0.2,0.4c-0.9,1.7-1,2.4-1.5,3.5
					c-0.3-0.4-1,2-0.8,0.5c0.8-1.1,1.5-2.4,1.8-3.8c-0.8,0.4,0.8-1.3,0.6-1.9c-0.8,1.4-1.2,1-1.6,1.1c-0.2,0.3-0.3,0.7-0.4,1.1
					c0.2,0.3,0.5-0.2,0.8-0.1c-0.1,0.2-0.2,0.4-0.3,0.6c-0.1,0.2-0.2,0.4-0.3,0.6c-0.2,0.4-0.3,0.8-0.5,1.1
					c-0.2,0.6-0.4,1.2-0.6,1.9c-0.4,0.5-0.6,0.2-0.3-0.5c-0.1,0.2-0.2,0.5-0.3,0.7s-0.2,0.5-0.3,0.7c-0.2,0.5-0.4,1-0.7,1.5
					c-0.2,0.5-0.4,1-0.7,1.4c-0.2,0.5-0.4,0.9-0.6,1.4c0.9-1-0.7,2.1,0,1.4c0.5-1,1.2-1.6,1.2-1c-0.3,0.6-0.2-0.1-0.4,0.1
					c0,0.9-0.9,1-0.8,2c0.5-1.8-0.4-0.6-0.7-1c-0.3,1.4-0.2-0.2-0.7,1.1c-0.2,1.4-0.6,3-1,4.5c-0.5,1-0.8,2.1-1,3.2
					c-0.1,0.3-0.1,0.6-0.2,0.9c0,0.3-0.1,0.6-0.1,0.8c-0.1,0.5-0.2,1-0.3,1.5c-0.4,0.8-0.7,0.1-1,1.1c-0.2,1.1,0.7-0.7,0.1,0.9v-0.2
					c0,0.5-0.9,3-0.3,3.6l-0.4-0.6c-0.1,0.3-0.1,0.6,0,0.9c-0.2,0-0.4,0.3-0.4-0.2c-0.1,0.2-0.2,0.5-0.3,0.8c0,0.3-0.1,0.6-0.1,0.8
					c0,0.6,0,1.1-0.1,1.7l0.4-0.7c0,0.9-0.1,1.7-0.3,2.6c-0.1,0.8-0.2,1.6-0.2,2.5l-0.3-0.1l0.1,1.1C1.7,86,1.4,87,1.6,87.6
					c-0.2-1-0.3-2-0.5-3c0.2-0.8,0.3,0.9,0.6,0.4C2,84.2,2,83.3,1.8,82.5c-0.1,0.4,0,0.8,0,1.2c-0.4,0.2-0.3-0.8-0.5-1.4
					c0,0.4-0.2,0.9-0.1,0.9c-0.1-0.9-0.1-1.7,0.1-2.6c0,0.8,0.3-0.4,0.4-0.1c-0.3-0.1-0.3-1.2,0-2.7c0.6-0.9,0.2-2.7,0.6-4.3
					c0.2,0.9,0.4,1.8,0.3,2.6C3,75.1,2.8,75,3.2,74c-0.3-0.7-0.4-1.5-0.3-2.3h0.3c0.2-1.2-0.2-1.3,0.2-2.8c0.4-1.3,0.8-2.6,1.2-3.8
					c0.4-1.2,0.8-2.4,1.2-3.3h0.3c0-0.4,0-0.8,0.1-1.1c0.1-0.4,0.3-0.9,0.5-1.4c0.4-0.9,0.7-1.8,0.9-2.7c0.6-1.2,1.2-2.4,1.7-3.6
					c0.2-0.5,0.5-1.1,0.8-1.6c0.2-0.4,0.5-0.8,0.8-1.1c1.8-4.1,4.1-8,6.8-11.6l-0.2,0.9c0.3-0.9,0.5-0.3,0.9-1
					c-0.8,0.6,0.4-1.2,0.6-1.8c0.8-0.8,1.5-1.7,2.2-2.7s1.4-1.9,1.9-2.7l0.2,0.1c0.1-0.2,0.2-0.4,0.4-0.6s0.3-0.4,0.5-0.6
					c0.4-0.4,0.7-0.8,1.1-1.2c0.4-0.4,0.8-0.8,1.3-1.2s0.9-0.8,1.4-1.2c0.5-0.1,0.9-0.4,1.2-0.8c0.3-0.5,0.6-1,1-1.5
					c0.4-0.4,0.8-0.9,1.5-1.6c0.3-0.2,0.6-0.5,0.9-0.8c0.2-0.1,0.3-0.3,0.5-0.4s0.4-0.3,0.6-0.4c0.8-0.5,1.5-1,2.1-1.4
					c1-0.9,2-1.8,3-2.6c0.5-0.4,1-0.8,1.6-1.2s1.1-0.7,1.7-1.1s1.1-0.7,1.7-1.1c0.6-0.3,1.2-0.7,1.7-1c0.6-0.3,1.2-0.7,1.7-1.1
					c0.6-0.4,1.2-0.7,1.8-1l0.5,0.1c0.5-0.4,1.1-0.7,1.7-1.1c0.6-0.4,1.2-0.6,1.9-1s1.3-0.6,2-0.9c0.6-0.3,1.3-0.5,2-0.8
					s1.3-0.5,2-0.8c0.2-0.1,0.3-0.1,0.5-0.2s0.3-0.1,0.5-0.2c0.3-0.1,0.6-0.2,1-0.3c0.6-0.2,1.2-0.4,1.8-0.6
					c0.3-0.1,0.6-0.2,0.9-0.3c0.3-0.1,0.6-0.2,0.8-0.3l-0.3,0.6c1.4-0.2,3.1-1,2.6-1.3c0.4-0.1,0.8-0.2,1.1-0.3
					c0.4-0.1,0.8-0.2,1.2-0.3c0.6-0.2,1.3-0.3,2-0.3c1-0.2,1.9-0.5,2.9-0.9c0.7-0.1,1.3-0.2,1.9-0.2c0.6-0.1,1-0.2,1.5-0.2
					c1-0.1,1.9-0.3,3.3-0.5h-0.7c-0.3,0.1-0.3,0.4,0.4,0.3c0.3-0.1,0.7-0.1,1-0.2c0.4,0,0.8-0.1,1.1-0.1c0.7-0.1,1.1-0.2,0.6-0.5
					c0.8,0,1.6,0,2.4-0.1c0.2,0,0.4,0,0.6,0c0.2,0,0.4,0,0.6,0c0.4,0,0.8,0,1.3-0.1c0.8,0,1.7-0.1,2.5-0.1s1.6,0.1,2.3,0.2
					c-0.2-0.2,0.5-0.2,0.8-0.3c0.6,0,1.3,0,1.9,0.1c0.6,0.1,1.3,0.2,1.9,0.2s1.2,0.1,1.8,0.2c0.3,0,0.6,0,0.9,0c0.3,0,0.5,0,0.8,0
					c0.4,0.1-0.7,0.2,0.4,0.4c0.6,0,0-0.2,0.8-0.2c0.5,0,1,0.1,1.6,0.1c0.5,0,1,0.1,1.6,0.2c1,0.2,2.1,0.4,3.1,0.7
					c0.2,0.1,0.5,0.1,0.8,0.2s0.5,0.1,0.7,0.2c0.5,0.1,1,0.3,1.5,0.4s1,0.3,1.4,0.4c0.5,0.1,0.9,0.2,1.4,0.4c3.3,0.7,6.6,1.7,9.8,3
					c0.8,0.3,1.6,0.6,2.4,0.9l2.3,1c0.4,0.2,0.8,0.4,1.1,0.5l0.6,0.3l0.5,0.3c0.7,0.4,1.5,0.7,2.2,1.1l-0.1,0.1
					c0.6,0.2,1.1,0.4,1.6,0.7c0.5,0.3,1,0.7,1.5,1c0.9,0.7,1.8,1.2,2.9,1.5c0.4,0.4,1.6,1.1,1.2,1.1c0.5,0.2,0.9,0.5,1.3,0.7
					c0.5,0.3,1,0.7,1.5,1.1s1,0.8,1.6,1.2c0.3,0.2,0.5,0.4,0.8,0.5c0.3,0.2,0.5,0.4,0.8,0.5c-0.2-0.1-0.3-0.2-0.5-0.3
					c0.9,0.8,1.8,1.6,2.8,2.3c1,0.8,1.9,1.6,2.8,2.5c-0.2-0.1-0.6-0.4-0.8-0.4c0.4,0.4,0.8,0.8,1.3,1c0.5,0.3,0.8,0.6,0.8,1
					c0.4,0.4,0.5,0.1,0.2-0.2c4.3,4.2,8.4,8.6,12.1,13.4c1.1,1.9,1,2.1,0.8,2.1c-0.1,0-0.3-0.1,0.8,1.2c0.1,0.3,0.3,0,0.2,0.1
					c0.9,1,0.5,2.1,1.3,2.7c0.1-0.5,0.5,0.4,0.7,0.3c0.6,1.2,0.8,2,1.1,2.6c0.1,0.3,0.3,0.6,0.5,1s0.5,0.8,0.7,1.1h-0.2
					c0.4,0.5,0.8,1,1.1,1.5c0.2,0.3,0.3,0.5,0.5,0.8s0.3,0.6,0.5,0.9c0.5,1.1,1.1,2.1,1.9,3c5.3,12.2,8,25.5,7.6,38.8
					c-0.3,6.5-1.2,13-2.7,19.4c-1.6,6.4-3.9,12.6-7,18.4c-0.9,1.3-1.4,2-1.9,2.7s-0.9,1.5-1.6,3.1c0-0.2,0.1-0.4-0.1-0.2
					c0.1,0.2-0.1,0.7-0.5,1.2c-0.3,0.5-0.7,1.1-0.6,1.3c-2.6,4.1-5.5,8-8.7,11.6c0.5-0.6,0.5-1.1-0.1-0.4l-0.5,0.9h-0.2
					c-0.4,0.5-0.7,1.2-0.2,0.8c-4.2,4.8-9,9-14.2,12.5s-10.7,6.5-16.4,9.1c-1.4,0.6-3,1.2-4.7,1.9c-0.8,0.4-1.7,0.7-2.5,1
					s-1.6,0.6-2.4,0.9c-4.5,1.1-9,1.9-13.6,2.5c-4.5,0.5-9,0.9-13.8,1.1c0.3-0.2,0.7-0.5,1.1-0.6c0.5-0.2,1-0.4,1.6-0.5
					c0.3-0.1,0.7-0.1,1.1-0.2C94.6,181.7,95,181.6,95.5,181.5z"/>
				<path id="Path_79_1_" class="st0" d="M0.6,89.2c0.2-0.3,0.4-1.4,0.6-0.5C1,88.8,0.8,89.3,0.6,89.2z"/>
				<path id="Path_80_1_" class="st0" d="M8.1,61.6c0-0.1,0.2-0.4,0.3-0.4c-0.1,0.3-0.1,0.7-0.3,0.9C8.3,61.8,8.2,61.8,8.1,61.6z"/>
				<path id="Path_81_1_" class="st0" d="M11.1,55c-0.1,0.9-0.4,1.7-0.7,2.5L11.1,55z"/>
				<path id="Path_82_1_" class="st0" d="M14.8,49.4c0.4-0.4,0.4-0.2,0,0.4C14.7,49.8,14.8,49.6,14.8,49.4z"/>
				<path id="Path_83_1_" class="st0" d="M14.7,48.8c0.2-0.3,0.4-0.6,0.7-0.9C15.3,47.8,14.9,49.1,14.7,48.8z"/>
				<path id="Path_84_1_" class="st0" d="M23.4,37.1c0.2-0.3,0.6-0.9,1-1.1C24,36.2,23.4,37.5,23.4,37.1z"/>
				<path id="Path_85_1_" class="st0" d="M27.6,31.9c0.2-0.1,0.3-0.2,0.4-0.4c0.3-0.2,0.1,0.2-0.1,0.4H27.6z"/>
				<path id="Path_86_1_" class="st0" d="M140.4,20.1l-0.6-0.4l0.2-0.1L140.4,20.1z"/>
				<path id="Path_87_1_" class="st0" d="M173,62.5c0.3,0.7,0,0.5,0,0.7C172.8,62.6,173.3,63.4,173,62.5z"/>
				<path id="Path_88_1_" class="st0" d="M179,91.3v-0.2l0.4,0.1L179,91.3z"/>
			</g>
		</g>
	</g>
	<g id="Group_96_1_" transform="translate(8.106 0.036)">
		<g id="Group_95_2_">
			<g id="Group_94_1_">
				<path id="Path_89_1_" class="st0" d="M28.9,19.7c-1.5,1.1,1-0.3-0.9,0.8C28.2,20.1,28.5,19.9,28.9,19.7z"/>
				<path id="Path_90_1_" class="st0" d="M5.3,173.2c1.2,1.1,2.3,2.2,3.3,3.4c1.2,1.2,2.3,2.5,3.4,3.8c1.2,1.3,2.4,2.5,3.7,3.7
					c1.2,1.1,2.5,2.2,3.9,3.2c0.3,0.2,0.2,0.3,0.1,0.5c0,0.1,0,0.4,0.7,0.8s1.4,0.9,2.1,1.4c0.7,0.5,1.5,1.1,2.3,1.6
					s1.6,1.1,2.4,1.7c0.4,0.3,0.8,0.6,1.2,0.9l1.3,0.9c0.9,0.6,1.7,1.2,2.6,1.8c0.9,0.6,1.8,1.2,2.6,1.8c1.7,1.2,3.5,2.2,5.1,3.3
					l-0.5-0.1c1.2,0.8,3.1,1.1,4.4,1.8c0,0.1-0.5-0.1-0.2,0.2c0.5,0.1,1.1,0.2,1.6,0.5s1.1,0.5,1.7,0.6c0.5,0.3,0.4,0.5,1,1h0.9
					c0.7,0.1,1.4,0.2,2,0.4c0.7,0.2,1.4,0.5,2.2,0.8s1.5,0.6,2.3,0.9s1.6,0.5,2.4,0.6c-0.2,0-0.5,0-0.3,0.1c1.3,0.3,2.7,0.6,4.1,0.9
					l2.2,0.5l1.1,0.2c0.4,0.1,0.8,0.1,1.1,0.2l2.3,0.4c0.8,0.1,1.5,0.3,2.3,0.4c1.5,0.2,3.1,0.4,4.5,0.6c-0.2,0.1-0.5,0.3-0.2,0.5
					c0.3-0.3,2.2-0.2,3.8-0.1c0.2,0.1,0.5,0.2,0.8,0.2c0.4,0,0.8,0,1.1,0c0.9-0.1,1.8-0.1,2.7,0l-0.2,0.1c0.6-0.1,1.1-0.1,1.7,0
					c0.5,0.1,1,0.1,1.5-0.1l0.9,0.3c0.6-0.5,2,0.3,3.1,0v-0.1c1.1-0.2,1.6,0.1,2.6,0l0.1,0.1c2.3-0.2,3.7-0.1,3.6-0.5
					c0.9,0.3-2.2,0.4-0.9,0.7c7.8-0.9,15.5-2.4,23-4.6c0.6-0.1,1.1-0.1,1.7-0.1c1.1-0.4,2.3-0.9,3.3-1.5c-0.2,0.1,0.5,0,1-0.1
					s1-0.3,1.4-0.7c0.4-0.3,0.9-0.6,1.4-0.7c-0.5,0.3-0.7,0.5-0.4,0.6c0.6-0.4,1.3-0.8,2-1.1c0.4-0.2,0.7-0.3,1.1-0.5
					c0.4-0.2,0.7-0.4,1.1-0.6c-0.2,0.2-0.5,0.4-0.4,0.5c1.4-1.1,2.9-1.2,4.1-2.1c-0.1,0.2-0.3,0.3-0.4,0.5c0.4-0.1,0.7-0.3,1.1-0.5
					c0.1-0.1,0.2-0.2,0.2-0.3c0.1-0.2,0.1-0.4,1-0.8c-0.4,0.3-0.2,0.3-0.2,0.4c0.9-0.7,1.9-1.4,3-1.9c1.1-0.7,2.2-1.3,3-1.9
					c-0.1,0.1,0,0.1,0,0.1c0.5-0.3,0.9-0.5,1.4-0.8s0.9-0.6,1.4-0.9c0.9-0.6,1.9-1.2,2.8-2c0.8-0.4,0.1,0.7,1.9-0.7
					c-0.4-0.4,3-2.4,1.6-2.1c0.4-0.3,0.8-0.6,1.3-0.9c0.5-0.4,0.9-0.7,1.4-1c0.8-0.6,1.5-1.2,2.2-1.8c-0.5,0.7,1.1-0.1-0.1,0.9
					l1.1-0.5c0,0.3-1,0.7-0.5,0.7c0.6-0.5,2.2-2.2,2.8-2.6c0.5-0.6,0.8-1.2,1.3-1.9c0.5-0.8,1.2-1.6,1.8-2.3
					c-0.7,0.9,0.8-0.1,0.4,0.5l0.8-1.5c0.3-0.5,0.6-1,0.8-1.5c0.5-0.6,0.4,0.1,1.1-0.8c-0.1,0,0.1-0.5,0.3-0.8
					c0.1-0.1,0.7-0.7,1.2-1.3c0.1-0.1,0.3-0.3,0.4-0.4s0.3-0.3,0.4-0.4c0.2-0.2,0.4-0.3,0.6-0.4c0.4-0.2-0.7,1.1-0.1,0.5
					c0.9-1.1,0.8-1.3,1.8-2.4h0.1c0.4-0.4,0.7-0.9,1-1.4c0.2-0.4,0.2-0.7-0.2-0.3c-0.4,0.5,0.4,0-0.3,0.7c0.5-1.2,1.2-2.3,2-3.3
					c-0.2,0.4-0.1,0.5-0.1,0.7c0.2-0.5,0.5-0.9,0.7-1.3c0.1-0.2,0.2-0.4,0.4-0.7s0.2-0.5,0.4-0.7c0.5-0.9,1-1.8,1.6-2.8
					c-0.2-0.1-0.1,0.9-0.4,1.1c0.5-0.5,0.9-1.1,1.2-1.7c0.4-0.6,0.7-1.3,1-1.9s0.6-1.2,1-1.8c0.2-0.3,0.3-0.5,0.5-0.8
					s0.3-0.5,0.5-0.7c-0.1,0.4-0.4,0-0.3,0c0.7-1.2,0.9-1,1.2-1.8c0.2,0,0.5-1,0.8-1.8c0.1-0.5,0.2-0.2-0.2,0.5
					c0.2-0.6,0.8-2.1,1.5-3.7c0.7-1.6,1.5-3.5,2.1-4.8c0-0.8,0.2-1.7,0.5-2.5l0.2,0.4c0.4-0.5,0.7-2.1,1-2.1
					c0.1-0.7-0.3,0.6-0.7,1.9c-0.1,0.3-0.2,0.6-0.3,0.9c-0.1,0.3-0.2,0.5-0.2,0.7c-0.1,0.3-0.2,0.4,0-0.1c0.1-0.2,0.2-0.4,0.3-0.6
					c0.1-0.3,0.1-0.6,0.2-0.9c0.1-0.6,0.2-1,0.3-0.7c0.2-0.6,0.4-1.3,0.5-1.9c0.2-0.6,0.4-1.2,0.7-1.8c-0.2,0.3,0.1,1.2,0.4,0.1
					c0.5-1.9,0-0.6,0.4-2.1l0.2-1c-0.3-0.1,0.5-1.6,0-1c0.3-0.1,0.5-2.7,1-2.4l0.3,0.4c0.1-0.7,0.1-1.4-0.1-2.1
					c0.1-0.1,0.2-0.3,0.2-0.2c-0.3-0.1-0.1-0.6,0-1.2c0.2-0.6,0.3-1.2,0.2-1.8c0.3-0.8,0.5-1.9,0.7-2.9c0.1-0.8,0.3-1.5,0.6-2.2
					c0-1.4,0.1-2.7,0.3-4.1c0,0.3,0,0.7,0.1,0.8c0.2-0.7,0.2-1.4,0.1-2.1c0,0.1,0.2-0.4,0.3-1c0.2-0.6,0.4-1.4,0.5-1.9
					c-0.1-1.3-0.4-0.9-0.6-1c0.3-0.8,0.4-1.7,0.2-2.5c-0.1-0.9-0.1-1.8,0.1-2.7c0.1,0.5,0.3,1.9,0.4,0.8c0.6-1.2-0.4-2.5-0.1-4.4
					l-0.5,0.5c0.3-0.9-0.4-2.9,0.1-2.7c-0.2-0.6,0.1-2.3-0.4-2.1c0-1.8-0.1-3.6-0.3-5.3c-0.3-1.5-0.4-3-0.1-4.4
					c-0.1-0.5-0.3-1.6-0.5-1.3c-0.1,0.8,0.4,1,0.2,1.3c-0.1-0.4-0.2-0.5-0.3-0.5c-0.1-1-0.2-1.8,0.4-0.9c0-0.8-0.3-1.6-0.7-2.2
					c-0.2-0.3-0.4-0.7-0.5-1c-0.2-0.5-0.3-1.1-0.4-1.6c0.2,0.1,0.2-0.1,0-0.9l-0.7-1.4c-0.3-1.8,0.2-1.1,0.5-1.2
					c-0.1-0.2-0.1-0.5-0.2-0.7c-0.1-0.2-0.2-0.5-0.2-0.7c-0.1-0.4-0.3-0.7-0.5-1l0.1-1.2c0,0.9-0.4-0.7-0.6-1.1l0.2,0.4
					c-0.1-0.6-0.3-1.2-0.5-1.8c-0.1,0.3,0,0.5,0,0.8c0.1,0.4,0.1,0.8,0.2,1.1c-0.3-0.4-0.4-1.2-0.8-1.8c0.4,0.1-0.3-1.6-0.5-2.3
					c-0.2-0.9-0.6-0.9-0.7-1.1c0.1-0.1-0.5-1.4,0-0.8c0.1,0.3,0.1,0.7,0.4,1.1c-0.1-0.6,0.2-0.6-0.4-1.7c-0.5-0.8-0.5,0.4-1-1.2
					c0.2,0.3,0.4,0.5,0.6,0.7l-0.5-1.6h-0.3c0-0.2,0.1-0.1,0.1-0.2c-0.3-0.4-0.6-0.8-0.7-1.3c-0.1-0.3-0.2-0.5-0.4-0.8
					c-0.1-0.2-0.2-0.3-0.4-0.4c-0.4-0.7-0.5-1.6-0.8-2.4l0.1,0.1c-0.1-0.5-0.3-1-0.6-1.5c-0.1-0.2-0.3-0.5-0.4-0.7
					c-0.1-0.2-0.3-0.4-0.4-0.5h0.1c-0.3-0.7-0.8-1.4-1.3-2c-0.4-1.3,0.8-0.9-0.2-2c-0.7-1.2-1.5-1.5-1.4-1c-0.6-1.1-1.2-2.2-1.9-3.2
					s-1.3-2-1.8-3.1c-0.3-0.2-0.2,0-0.7-0.6c-0.2-0.4-0.5-0.8-0.7-1.1c-0.3-0.4-0.5-0.7-0.8-1.1c-0.5-0.7-1.1-1.4-1.7-2.1
					c-0.3-0.4-0.5-0.7-0.8-1s-0.5-0.7-0.8-1c-0.5-0.6-0.9-1.3-1.2-1.9c0.7,0.7,0.3-0.1,0.4-0.3c-0.7-0.5-0.4-1-1-0.9
					c-0.2,0.2-0.3,0.3,0.2,1.1c-0.7-0.8-1.6-1.7-2.4-2.6c-0.7-0.7-1.2-1.5-1.8-2.3c0.3,0.5,0,0.2-0.4,0c0.4-0.2-0.6-1.3-1.6-2
					l-0.3,0.1l-0.4-0.7c-0.4-0.3-0.7,0-1.4-1c0-0.1,0-0.3-0.1-0.4c-1.2-0.7-2.4-1.5-3.4-2.6c-0.2-0.3-0.4-0.6-0.6-1
					c-0.5-0.3-1.3-0.7-0.6,0c-0.8-0.8-1.5-1.4-2-2c-0.3-0.3-0.5-0.5-0.7-0.7s-0.3-0.4-0.4-0.6c-3.6-1.7-8.2-4.9-12.1-7.1l0.2-0.1
					c-1-0.8-0.7,0-1.4-0.5c0.4,0-0.6-0.8,0.3-0.5c-1.4-1-2.1-0.8-3.2-1.2c-0.3,0.1,0.9,0.3,0.5,0.5c-0.4-0.2-0.8-0.4-1.1-0.6
					c-0.5-0.3-1.1-0.5-1.3-0.4c-0.3-0.3,0.1-0.4,0.4-0.5l-1-0.3c-1-1,3,0.5,2-0.5l-0.9-0.4c-0.7-0.8,2.6,0.7,0.4-0.5
					c-1.1-0.3-2.1-0.2-1.3,0.4c-0.5-0.3-1.1-0.4-1.7-0.3c-0.2,0-0.4,0.1-0.6,0c-0.4-0.1-0.8-0.2-1.2-0.4c-0.3-0.2,0.2-0.1,0.7,0.1
					s1,0.4,0.8,0.1c-0.2-0.2-0.5-0.3-0.7-0.5c-0.3-0.1-0.5-0.2-0.8-0.3c-0.5-0.1-1-0.3-1.5-0.5c1,0.5,0,0.5-0.7,0.4
					c-1-0.6,0.9,0-0.7-0.7c-0.3,0.1-1.9-0.4-0.7,0.3c-0.7,0.2-1.6-0.8-2.6-0.7c-0.4-0.5,1.9-0.2,0.2-1c0.2,0.4-2.3-0.4-1.6,0.5
					c-0.7-0.3-0.7-0.6-0.1-0.6c-0.9-0.6-2.6-0.2-2.7-1L119,9.3c-0.3-0.2-0.7-0.4-1.2-0.8c-0.4-0.1-1.2-0.3-1.8-0.4s-1.1-0.2-1-0.5
					c-0.3,0-2.4-0.6-1.6,0c1.2,0.5,1.5,0.1,2.1,0.8c-0.8-0.4-1.7-0.6-2.6-0.5l-0.1-0.2c-0.5,0-1.5-0.3-1.8-0.2
					c0.4,0,0.2-0.2-0.1-0.3l-0.5,0.2c-1.8-0.2-0.3-0.6-2.1-0.9h1.4c-0.5-0.2-1.1-0.4-1.7-0.5c-0.4,0.2-1,0.4-1.4,0.6
					c-1,0-0.4-0.4-1.4-0.3c0.4,0,0.9-0.1,1.3-0.1c0.2-0.1-0.8-0.6-2.1-0.8c-0.9,0-2.2,0.2-0.9,0.5c-0.7-0.1-1.6-0.4-1-0.5
					c-1.5-0.1,0.2,0.3-1.2,0.3c-0.5-0.2-2.1-0.7-3.1-1.1l1.4-0.3l-0.9-0.1c1.2-0.2-0.6-0.4,0.1-0.7c-0.7-0.1-1.4-0.1-2,0
					c0.9,0.4,0.4,0.6-0.3,0.7c-0.7,0.2-1.5,0.3-1.3,0.6c-0.7,0.1-1.5-0.2-2-0.6C93,4,92.7,3.9,92.5,3.9c-0.5,0-1,0-1.4,0.2
					c0.4,0.2-0.8,0.6,0.8,0.4c-1.5-0.1-1.1,0.6-2.9,0.3c1.4-0.2-1.5-0.6,0.5-0.9c-0.1,0.2,1.1,0.2,1.4,0.1c-0.6-0.2,0.1-0.6-1.5-0.6
					c-1,0-2.3,0-2.1,0.4c0,0.3,1.5,0,0.9,0.3c-1.9,0.1-2.3-0.4-3.1,0.2c1.2-0.1,1.5,0.2,1.5,0.5L85.2,5l0.3-0.2
					c-2.3-0.1-0.7,0.4-2.9,0.5c-0.3-0.1-0.7-0.3-1.1-0.4c0.5-0.4,3.2,0,2.8-0.6c-0.6,0-1.1,0.1-1.7,0.2c-0.5,0.1-1.1,0.1-1.6,0.1
					c0.3-0.1,0.7-0.1,1-0.2c-1-0.4-2.1-0.5-3.1-0.1c-1,0.3-0.3,0.2-0.3,0.5c-2.3,0.2-2.9,0.6-4.4,0.8c0.2-0.5-2.6,0.3-1-0.4
					c1.7,0,3.3-0.2,4.9-0.8c-0.9-0.5,1.8-0.1,2.3-0.7c-1.9,0.1-1.8-0.4-2.1-0.7c-0.5,0-0.9,0.1-1.3,0.3c-0.2,0.3,0.5,0.3,0.6,0.6
					c-0.3,0-0.5,0-0.8,0C76.6,3.9,76.3,4,76,4c-0.5,0.1-1,0.2-1.4,0.3c-0.8,0.1-1.5,0.4-2.2,0.6c-0.7-0.1-0.5-0.4,0.3-0.5
					c-0.3,0-0.6,0.1-0.9,0.2s-0.6,0.1-0.9,0.2C70.3,4.9,69.7,5,69,5.2c-0.6,0.1-1.2,0.2-1.9,0.3c-0.6,0.1-1.2,0.2-1.8,0.3
					c1.6,0.2-2.5,0.7-1.4,0.9c1.2-0.2,2.4-0.1,1.8,0.3c-0.8,0.1,0-0.2-0.4-0.3c-0.9,0.5-1.6-0.1-2.5,0.6c2.1-0.7,0.3-0.7,0.6-1.2
					c-1.5,0.6,0-0.3-1.6,0.1c-1.5,0.7-3.4,1.4-5.1,2c-1.3,0.3-2.6,0.7-3.8,1.2l-1,0.4c-0.3,0.1-0.6,0.3-0.9,0.4
					c-0.6,0.3-1.1,0.5-1.6,0.7c-1.1,0.2-0.6-0.5-1.7-0.1c-1.3,0.5,1.1,0.1-0.8,0.6l0.1-0.2c-0.5,0.3-3.5,1.3-3.8,2.1l0.4-0.7
					c-0.3,0.1-0.6,0.3-0.9,0.5c-0.1-0.1-0.5-0.1,0-0.4c-0.3,0-0.6,0.1-0.9,0.3c-0.3,0.1-0.6,0.3-0.9,0.5c-0.6,0.4-1.1,0.8-1.7,1.1
					l0.9-0.1c-0.9,0.6-1.8,1-2.7,1.5c-0.8,0.5-1.7,0.9-2.6,1.5l-0.1-0.3L33.6,18c0.1-0.2-0.2-0.2-0.5,0c-0.4,0.1-0.7,0.4-1,0.7
					c0.4-0.4,0.9-0.8,1.3-1.2l1.3-1.2c0.9-0.4-0.7,0.8-0.1,0.8c1-0.3,1.8-0.8,2.5-1.6c-0.4,0.2-0.8,0.5-1.2,0.9
					c-0.4-0.2,0.6-0.8,1-1.4c-0.4,0.2-0.9,0.4-0.9,0.6c0.8-0.7,1.6-1.2,2.5-1.7c-0.8,0.6,0.6,0,0.3,0.2c-0.1-0.4,1-1.1,2.6-1.8
					c1.3-0.1,2.8-1.6,4.6-2.3c-0.7,0.8-1.5,1.4-2.4,2c1.2-0.4,1.2-0.6,2.4-0.9c0.5-0.8,1.2-1.4,2.1-1.8l0.2,0.2
					c1.3-0.7,1.2-1,2.9-1.6c1.5-0.5,3.1-1,4.5-1.4c1.5-0.4,2.9-0.8,4-1.1l0.2,0.2c0.4-0.3,0.8-0.5,1.2-0.6c0.5-0.2,1-0.3,1.6-0.5
					c1.1-0.2,2.2-0.5,3.2-0.9c1.5-0.2,3.2-0.5,4.7-0.9c0.7-0.1,1.4-0.2,2-0.3c0.5-0.1,1-0.1,1.5,0C79.3,1.4,84.7,1,90,1.2l-1,0.4
					c1-0.3,0.7,0.2,1.6,0.2c-1.1-0.3,1.4-0.4,2.1-0.6c1.4,0.2,2.7,0.3,4.1,0.3c1.4,0.1,2.8,0.1,3.9,0l0.1,0.3c0.3,0,0.6,0,0.9,0
					s0.6,0,0.9,0.1c0.6,0.1,1.2,0.2,1.9,0.3c0.7,0.1,1.3,0.3,2,0.4s1.3,0.4,2,0.5c0.5,0.3,1,0.5,1.6,0.7c0.7-0.1,1.4,0,2.1,0
					c0.7,0.1,1.4,0.2,2.5,0.4c0.4,0.1,0.9,0.2,1.3,0.4c0.2,0.1,0.5,0.1,0.8,0.2s0.5,0.2,0.8,0.3c1,0.4,2,0.7,2.8,1.1
					c1.5,0.3,3,0.7,4.5,1.2c0.7,0.2,1.5,0.5,2.2,0.8s1.5,0.6,2.2,0.9s1.5,0.6,2.2,0.9s1.5,0.7,2.2,1s1.5,0.7,2.2,1s1.5,0.7,2.2,1
					l0.3,0.5c0.7,0.3,1.5,0.6,2.2,1c0.8,0.4,1.5,0.8,2.2,1.2c0.7,0.4,1.5,0.8,2.2,1.3c0.7,0.4,1.4,0.9,2.1,1.4
					c0.7,0.5,1.4,1,2.1,1.4c0.2,0.1,0.3,0.2,0.5,0.4c0.2,0.1,0.3,0.2,0.5,0.4c0.3,0.2,0.6,0.5,1,0.7c0.6,0.5,1.2,0.9,1.9,1.3
					c0.3,0.2,0.6,0.4,0.9,0.6c0.3,0.2,0.6,0.4,0.8,0.6l-0.7,0.1c1.2,1.2,3,2.3,3,1.7c0.3,0.3,0.7,0.6,1,0.9c0.4,0.3,0.8,0.6,1.1,1
					c0.6,0.5,1.2,1.1,1.6,1.8c1.2,1.2,1.7,1.2,2.8,2.2c0.6,0.6,1.1,1.2,1.5,1.7s0.9,0.9,1.2,1.3c0.8,0.9,1.6,1.7,2.7,2.9l-0.5-0.6
					c-0.3-0.2-0.5-0.1,0,0.6c0.2,0.2,0.5,0.5,0.8,0.9c0.3,0.3,0.6,0.7,0.9,1c0.5,0.6,0.9,1,0.8,0.3c0.5,0.8,1.1,1.5,1.7,2.2
					c0.2,0.2,0.3,0.4,0.5,0.6l0.5,0.6c0.3,0.4,0.6,0.8,0.9,1.2c0.6,0.8,1.2,1.6,1.8,2.4c0.5,0.8,1,1.5,1.4,2.4
					c0-0.3,0.5,0.4,0.8,0.6c0.4,0.6,0.8,1.3,1.2,2s0.7,1.4,1.1,2c0.4,0.6,0.7,1.3,1.1,1.9c0.2,0.3,0.4,0.6,0.5,0.9
					c0.2,0.3,0.3,0.5,0.5,0.8c0.1,0.5-0.6-0.5-0.1,0.6c0.4,0.6,0.2-0.1,0.7,0.7c0.3,0.5,0.6,1.1,0.9,1.6c0.3,0.5,0.6,1.1,0.8,1.7
					c0.5,1.1,1,2.3,1.4,3.4c0.1,0.3,0.2,0.6,0.3,0.9s0.2,0.6,0.3,0.9c0.2,0.6,0.4,1.1,0.6,1.7s0.4,1.1,0.6,1.6
					c0.1,0.3,0.2,0.5,0.3,0.8s0.2,0.5,0.3,0.8c0.4,0.9,0.7,1.9,1.1,2.8c0.2,0.5,0.3,1,0.5,1.4c0.2,0.5,0.3,1,0.5,1.5
					c0.3,1,0.6,1.9,0.9,2.9l0.2,0.7l0.2,0.7l0.4,1.5c0.2,1,0.5,2,0.7,2.9c0.2,1,0.4,2,0.5,2.9c0.1,0.5,0.2,1,0.3,1.5l0.1,0.7
					l0.1,0.7c0.1,1,0.3,1.9,0.4,2.9l-0.1-0.1c0.2,0.6,0.3,1.3,0.4,2c0,0.7,0.1,1.5,0.1,2.2c0,1.3,0.1,2.6,0.5,3.8
					c-0.1,0.6,0,2.3-0.2,1.9c0.1,0.6,0.2,1.2,0.2,1.8c0,0.7,0,1.4-0.1,2.2c0,0.8-0.1,1.6-0.1,2.4c0,0.4,0,0.8,0,1.2s0,0.8,0,1.1
					c0-0.2,0-0.5,0-0.7c-0.2,1.4-0.3,2.9-0.3,4.3c-0.1,1.5-0.2,3-0.5,4.4c0-0.3,0-0.9-0.1-1c-0.1,0.6-0.2,1.3-0.1,2
					c0.1,0.5-0.1,1.1-0.4,1.5c-0.1,0.7,0.2,0.5,0.3,0.1c-1.1,7-2.7,14-4.8,20.8c-1,2.4-1.3,2.3-1.4,2.2s-0.1-0.3-0.6,1.6
					c-0.2,0.3,0.1,0.3,0,0.3c-0.4,1.5-1.6,2-1.7,3.1c0.5-0.2-0.1,0.7,0.1,0.9c-0.8,1.4-1.3,2.1-1.7,2.9c-0.2,0.4-0.4,0.7-0.6,1.1
					c-0.2,0.5-0.5,1-0.6,1.4l-0.1-0.3c-0.2,0.7-0.5,1.4-0.8,2.1c-0.1,0.4-0.3,0.7-0.5,1s-0.4,0.7-0.5,1c-0.7,1.2-1.3,2.5-1.7,3.8
					c-8.2,13.4-19.3,24.9-32.5,33.6c-6.5,4.2-13.4,7.7-20.6,10.4c-7.3,2.8-14.8,4.7-22.6,5.6c-1.9,0-2.8,0-3.9,0.1
					c-1,0-2.1,0.2-4.1,0.5c0.2-0.1,0.4-0.1,0.1-0.2c-0.1,0.2-0.8,0.3-1.5,0.3s-1.5,0.1-1.7,0.3c-5.7,0.2-11.4,0-17.1-0.6
					c0.9,0,1.5-0.2,0.3-0.3l-1.2,0.1l-0.2-0.1c-0.8,0-1.6,0-0.9,0.3c-7.4-0.9-14.7-2.7-21.7-5.4c-6.9-2.6-13.5-5.9-19.9-9.7
					c-1.5-0.9-3.2-2.1-5-3.3c-0.9-0.6-1.8-1.2-2.6-1.8l-2.5-1.7c-4.1-3.6-8-7.4-11.6-11.4c-3.5-4-6.9-8.1-10.4-12.6
					c0.5,0.2,0.9,0.4,1.3,0.7c0.5,0.4,1,0.8,1.5,1.2c0.3,0.3,0.6,0.6,0.9,1C4.6,172.4,4.9,172.8,5.3,173.2z"/>
				<path id="Path_91_1_" class="st0" d="M30.8,18.5c0.5,0,1.6-0.6,0.9,0.2C31.4,18.5,30.7,18.7,30.8,18.5z"/>
				<path id="Path_92_1_" class="st0" d="M62.6,6.8c0-0.1,0.5,0,0.6,0c-0.4,0.1-0.7,0.4-1.1,0.4C62.5,7,62.4,6.9,62.6,6.8z"/>
				<path id="Path_93_1_" class="st0" d="M71,5.1c-0.9,0.4-1.9,0.8-2.9,0.9L71,5.1z"/>
				<path id="Path_94_1_" class="st0" d="M79,4.8c0.7,0.1,0.5,0.2-0.4,0.3C78.6,5,78.9,4.9,79,4.8z"/>
				<path id="Path_95_1_" class="st0" d="M79.6,4.3c0.4,0,0.9,0,1.3,0.1C80.9,4.3,79.4,4.7,79.6,4.3z"/>
				<path id="Path_96_1_" class="st0" d="M96.8,4.8c0.6,0,1.1,0,1.7,0.2C98.1,4.8,96.5,5,96.8,4.8z"/>
				<path id="Path_97_1_" class="st0" d="M104.8,5.5c0.2,0.1,0.4,0.1,0.7,0.1c0.5,0.2-0.1,0.2-0.5,0.2L104.8,5.5z"/>
				<path id="Path_98_1_" class="st0" d="M192.9,107.5l-0.1-0.9l0.2,0.1L192.9,107.5z"/>
				<path id="Path_99_1_" class="st0" d="M173.7,168c-0.4,0.8-0.5,0.4-0.6,0.5C173.5,167.9,173.1,168.9,173.7,168z"/>
				<path id="Path_100_1_" class="st0" d="M149.7,193.3l0.2-0.2l0.2,0.4L149.7,193.3z"/>
			</g>
		</g>
	</g>
	<g id="Group_97_2_" transform="translate(0 10.503)">
		<path id="Path_101_1_" class="st0" d="M49.2,120c-2.7,0.3-4.5,3.8-5.3,10.4c-0.7,6.2,0.2,9.2,2.9,8.9c1.5-0.2,2.8-1.2,3.3-2.6
			c0.8-1.6,1.4-4.4,1.9-8.4C52.7,122.5,51.7,119.7,49.2,120z"/>
		<path id="Path_102_1_" class="st0" d="M146.4,109.3l-3.9,0.4l-0.8,6.4l3.6-0.4c1-0.1,1.9-0.5,2.6-1.1c0.7-0.6,1.2-1.5,1.2-2.5
			C149.4,110,148.5,109.1,146.4,109.3z"/>
		<path id="Path_103_1_" class="st0" d="M148.9,91c0.7-1.3,1.1-2.8,1.1-4.2c0.1-1.3-0.1-2.6-0.6-3.8c-0.3-0.9-1.3-1.5-2.3-1.4
			l-1.4,0.1l-0.6,11.1l1.4-0.1C147.6,92.6,148.5,92,148.9,91z"/>
		<path id="Path_104_1_" class="st0" d="M96.9,0.9C43.7,0.9,0.6,44,0.6,97.2s43.1,96.3,96.3,96.3s96.3-43.1,96.3-96.3
			C193.1,44,150,0.9,96.9,0.9L96.9,0.9z M140.6,77.8l6.8-0.7c3-0.3,5.1,0.5,6.5,2.4c1.4,2,2,4.4,1.8,6.9c-0.1,2.8-1,5.5-2.8,7.7
			c-1.5,2-3.8,3.3-6.3,3.5l-7.1,0.8L140.6,77.8z M132.9,84.6l0.3-6.1l4.4-0.5l-1.1,20.5l-4.4,0.5l-4.3-8.5c-0.6-1.3-1.2-2.6-1.6-4
			c0.2,1.1,0.3,2.2,0.2,3.3l-0.5,9.9l-4.4,0.5l1.1-20.5l5.1-0.5l3.7,7.1c0.7,1.2,1.2,2.5,1.7,3.7C132.8,88.2,132.8,86.4,132.9,84.6z
			 M121,66.8c-0.7-0.4-1.4-0.6-2.1-0.6c-4-0.5-6.5-1.4-7.6-2.7c-1.1-1.4-1.6-3.2-1.5-5c0.1-2.5,1.1-4.8,2.8-6.6
			c1.9-1.9,4.5-3.1,7.2-3.3c4.7-0.5,7.7,1.4,8.9,5.6l-6,2.7c-0.3-1.6-1.9-2.6-3.5-2.3l0,0c-1.5,0.2-2.3,0.8-2.4,1.9
			c-0.1,0.4,0.1,0.9,0.5,1.1c0.6,0.3,1.3,0.5,2,0.6c2,0.2,3.9,0.6,5.8,1.2c1.2,0.4,2.2,1.3,2.8,2.4c0.7,1.3,1.1,2.8,0.9,4.4
			c-0.1,2.6-1.2,5.1-3.2,6.9c-2.1,1.9-4.7,3.1-7.5,3.3c-5.6,0.6-8.9-1.8-9.9-7.1l6.6-2.1c0.4,2.1,1.8,3,4.1,2.8
			c1.8-0.2,2.7-0.8,2.7-1.9C121.6,67.6,121.4,67.1,121,66.8z M118.5,87.8l-0.2,4.5l-6.4,0.7l-0.2,3.4l7.9-0.9l-0.3,4.9l-13.2,1.4
			l1.1-20.5l13.2-1.4l-0.2,4.7l-7.9,0.9l-0.2,3L118.5,87.8z M100.5,51.2l7-0.8l-1.4,26.8l-7,0.8L100.5,51.2z M99.9,82.1l4.8-0.5
			l-4.8,8l4.8,12.4l-5.9,0.6l-2.6-7.4l-2,3.2l-0.2,4.7l-5.1,0.5L90,83.1l5.1-0.5l-0.4,8.5L99.9,82.1z M77,53.7l7-0.8l-0.5,9.9
			l5.4-0.6l0.5-9.9l7-0.8L95,78.3l-7,0.8l0.5-10.4l-5.4,0.6l-0.5,10.4l-7,0.8L77,53.7z M85.9,91.3l-0.2,4.5l-6.4,0.7l-0.2,3.4L87,99
			l-0.2,4.9l-13.2,1.4l1.1-20.5l13.2-1.4l-0.2,4.7L79.8,89l-0.1,3L85.9,91.3z M58.8,55.7L75,54l-0.3,6.4l-4.8,0.5l-1.1,20.4L62.1,82
			l1.1-20.4l-4.8,0.5L58.8,55.7z M59.3,86.5l13.2-1.4l-0.2,4.7l-7.9,0.9l-0.2,3l6.4-0.7l-0.2,4.5L64,98.2l-0.2,3.4l7.9-0.9l-0.2,4.9
			L58.3,107L59.3,86.5z M39.3,88.6l1.8,11.5l3-12l4.2-0.5l2,11.5L53.4,87l4.1-0.4l-5.7,21l-4.5,0.5l-1.9-11l-2.9,11.5l-4.7,0.5
			l-3.6-20L39.3,88.6z M60.9,127.9c-0.4,4.8-2.2,9.4-5.1,13.2c-2.4,3.2-5.9,5.3-9.9,5.8c-3.8,0.4-6.8-0.8-8.8-3.6
			c-2.1-2.9-2.8-6.9-2.2-12.1c0.4-4.6,2.2-9,4.9-12.8c2.4-3.3,6.1-5.5,10.2-6c3.8-0.4,6.7,0.8,8.7,3.6
			C60.8,118.8,61.5,122.8,60.9,127.9L60.9,127.9z M80.9,130.2l-8.9,1l-1.5,12.5l-8.1,0.9l4-33.4l19.7-2.2l-0.9,8l-11.6,1.3l-0.6,5.4
			l8.9-1L80.9,130.2z M103.3,127.7l-8.9,1l-1.5,12.5l-8.1,0.9l3.9-33.4l19.7-2.2l-0.9,8l-11.6,1.3l-0.6,5.4l8.9-1L103.3,127.7z
			 M127.8,116.7l-0.9,7.4l-10,1.1l-0.7,5.5l12.3-1.4l-0.9,8l-20.5,2.3l4-33.4l20.5-2.3l-0.9,7.7l-12.3,1.4l-0.6,4.9L127.8,116.7z
			 M158,110.7c-0.2,1.8-0.7,3.6-1.6,5.2c-1,1.8-2.5,3.3-4.3,4.3l3.2,14l-9.3,1l-2.5-12.3l-2.6,0.3l-1.5,12.8l-8.4,0.9l4-33.4
			l14.2-1.6c3.1-0.4,5.5,0.3,7,1.9C157.7,105.5,158.3,107.8,158,110.7L158,110.7z"/>
	</g>
</g>
</svg>
