<svg id="Group_40" data-name="Group 40" xmlns="http://www.w3.org/2000/svg" width="23.932" height="23.748" viewBox="0 0 23.932 23.748">
  <g id="Group_39" data-name="Group 39" transform="translate(0 0)">
    <g id="Group_28" data-name="Group 28" transform="translate(0 4.81)">
      <g id="Group_27" data-name="Group 27">
        <path id="Path_39" data-name="Path 39" d="M5.237,116.751a1.982,1.982,0,0,0-2.286-.372,11.1,11.1,0,0,1,.023-12.75.468.468,0,1,0-.761-.543,11.975,11.975,0,0,0,.023,13.9,1.98,1.98,0,1,0,3-.235Zm-.661,2.139a1.045,1.045,0,1,1,0-1.479A1.047,1.047,0,0,1,4.576,118.89Z" transform="translate(-0.002 -102.89)" fill="#fff"/>
      </g>
    </g>
    <g id="Group_30" data-name="Group 30" transform="translate(6.451 2.404)">
      <g id="Group_29" data-name="Group 29">
        <path id="Path_40" data-name="Path 40" d="M150.619,70.022a.467.467,0,0,0-.653-.105,10.893,10.893,0,0,1-4.465,1.9,1.28,1.28,0,0,1-1.513-1.256V67.135h.041a.983.983,0,0,0,.982-.982v-.789a4.214,4.214,0,0,0,2.711-3.932V59.219a1.776,1.776,0,0,0-.234-3.473V52.832a1.4,1.4,0,1,0-2.8,0v2.9h-2.337v-2.9a1.4,1.4,0,1,0-2.8,0v2.914a1.776,1.776,0,0,0-.234,3.473v2.213a4.214,4.214,0,0,0,2.711,3.932v.789a.983.983,0,0,0,.982.982h.053v3.426a2.214,2.214,0,0,0,2.214,2.212,2.235,2.235,0,0,0,.4-.036,11.822,11.822,0,0,0,4.845-2.063A.467.467,0,0,0,150.619,70.022Zm-5-17.189a.467.467,0,1,1,.935,0v2.9h-.935Zm-5.142,0a.467.467,0,1,1,.935,0v2.9h-.935Zm-1.543,4.674a.842.842,0,0,1,.841-.841h7.479a.841.841,0,1,1,0,1.683h-7.479A.843.843,0,0,1,138.935,57.507Zm1.309,3.926v-2.15h6.544v2.15a3.272,3.272,0,1,1-6.544,0Zm3.29,4.768H143a.047.047,0,0,1-.047-.047V65.6a4.194,4.194,0,0,0,.561.037,4.272,4.272,0,0,0,.561-.037v.552a.047.047,0,0,1-.047.047Z" transform="translate(-138 -51.43)" fill="#fff"/>
      </g>
    </g>
    <g id="Group_32" data-name="Group 32" transform="translate(19.628 19.603)">
      <g id="Group_31" data-name="Group 31">
        <path id="Path_41" data-name="Path 41" d="M420.708,419.5a.468.468,0,0,0-.651.013l-.011.011a.468.468,0,0,0,.674.648l.011-.011A.467.467,0,0,0,420.708,419.5Z" transform="translate(-419.92 -419.379)" fill="#fff"/>
      </g>
    </g>
    <g id="Group_34" data-name="Group 34" transform="translate(4.841 0)">
      <g id="Group_33" data-name="Group 33">
        <path id="Path_42" data-name="Path 42" d="M122.623,11.064A11.993,11.993,0,0,0,103.76,2.182a.467.467,0,1,0,.54.763,11.159,11.159,0,0,1,14.188,1.191,10.967,10.967,0,0,1,1.113,14.3.468.468,0,1,0,.755.552A11.968,11.968,0,0,0,122.623,11.064Z" transform="translate(-103.563 0.002)" fill="#fff"/>
      </g>
    </g>
    <g id="Group_36" data-name="Group 36" transform="translate(3.305 3.397)">
      <g id="Group_35" data-name="Group 35">
        <path id="Path_43" data-name="Path 43" d="M71.506,72.807a.467.467,0,0,0-.661,0l-.008.008a.467.467,0,1,0,.664.658l.007-.008A.467.467,0,0,0,71.506,72.807Z" transform="translate(-70.701 -72.671)" fill="#fff"/>
      </g>
    </g>
    <g id="Group_38" data-name="Group 38" transform="translate(10.849 10.467)">
      <g id="Group_37" data-name="Group 37">
        <path id="Path_44" data-name="Path 44" d="M234.263,225.695a.468.468,0,0,0-.4-.232h-.334l.615-.777a.468.468,0,0,0-.733-.581l-1.215,1.535a.467.467,0,0,0,.366.757h.5l-.573,1.011a.467.467,0,1,0,.813.461l.968-1.708A.466.466,0,0,0,234.263,225.695Z" transform="translate(-232.091 -223.928)" fill="#fff"/>
      </g>
    </g>
  </g>
</svg>
