<svg id="Group_73" data-name="Group 73" xmlns="http://www.w3.org/2000/svg" width="24.46" height="24.46" viewBox="0 0 24.46 24.46">
  <g id="Group_72" data-name="Group 72" transform="translate(0 0)">
    <path id="Path_61" data-name="Path 61" d="M24.353,8.8,20.407,4.853a.393.393,0,0,0-.208-.109l-4.34-.789a.394.394,0,0,0-.459.318.375.375,0,0,0-.006.071,2.315,2.315,0,0,1-.034.374l-2.728-.682V3.909a1.973,1.973,0,1,0-2.367-1.933h.789A1.184,1.184,0,1,1,12.238,3.16a.394.394,0,0,0-.395.395v.481l-2.728.682a2.32,2.32,0,0,1-.034-.374.4.4,0,0,0-.142-.3.385.385,0,0,0-.324-.085l-4.34.789a.393.393,0,0,0-.208.109L.124,8.8a.4.4,0,0,0,0,.558L3.28,12.513a.4.4,0,0,0,.558,0l.9-.9v2.6H1.981A1.967,1.967,0,0,0,.81,17.757a1.954,1.954,0,0,0,0,3.156,1.967,1.967,0,0,0,1.171,3.551h14.2a.4.4,0,0,0,.279-.115l3.156-3.156a.39.39,0,0,0,.112-.279h0V11.608l.9.9a.4.4,0,0,0,.558,0l3.156-3.156A.4.4,0,0,0,24.353,8.8ZM12.238,4.749l2.869.717a3.22,3.22,0,0,1-2.869,1.589A3.219,3.219,0,0,1,9.369,5.467ZM.8,16.179A1.184,1.184,0,0,1,1.981,15H10.66a1.184,1.184,0,0,1,0,2.367H1.981A1.184,1.184,0,0,1,.8,16.179Zm0,3.156a1.184,1.184,0,0,1,1.184-1.184H10.66a1.184,1.184,0,1,1,0,2.367H1.981A1.184,1.184,0,0,1,.8,19.335Zm9.863,4.34H1.981a1.184,1.184,0,0,1,0-2.367H10.66a1.184,1.184,0,0,1,0,2.367Zm7.727-2.367-1.809,1.809m-.789.558H12.228a1.945,1.945,0,0,0-.351-2.729l-.043-.033a1.954,1.954,0,0,0,0-3.156,1.967,1.967,0,0,0-1.173-3.551H5.531V10.819L6.6,9.751l-.558-.558L3.559,11.675l-2.6-2.6L4.54,5.5,8.327,4.81a3.825,3.825,0,0,0,3.911,3.035A3.826,3.826,0,0,0,16.149,4.81l3.787.688,3.58,3.579-2.6,2.6L18.435,9.193l-.558.558,1.068,1.068v9.7" transform="translate(-0.008 -0.004)" fill="#fff"/>
  </g>
</svg>
