<svg id="Group_75" data-name="Group 75" xmlns="http://www.w3.org/2000/svg" width="24.622" height="24.778" viewBox="0 0 24.622 24.778">
  <path id="Path_62" data-name="Path 62" d="M21.295,13.077a2.249,2.249,0,0,0-.681-1.657L16.2,7.134a.666.666,0,0,0-.609-.173.71.71,0,0,0-.085.025L10.036.134A.366.366,0,1,0,9.464.59l5.569,6.979-.333.869-3.419,2.631a.765.765,0,0,1-.754.1l-.365-.15a7.806,7.806,0,0,0-1.654-.471l-.09-1.686a1.5,1.5,0,0,0-.408-.951L.629.111A.366.366,0,0,0,.1.613l7.38,7.8a.771.771,0,0,1,.21.488l.088,1.635a1.078,1.078,0,0,0-.762.824L5.386,19.568a.5.5,0,0,1-.379.388l-2.162.481a2.019,2.019,0,0,0-1.59,1.983v1.118a1.239,1.239,0,0,0,1.237,1.237H8.535a1.9,1.9,0,0,0,1.27-.484L20.546,14.7a2.252,2.252,0,0,0,.749-1.627Zm-2.393-2.3-4.02,4.467a15.407,15.407,0,0,1,.012-2.885l.335-3.406a.364.364,0,0,0,.117-.158l.41-1.07ZM13.5,10.286l.091-.07-.879,3.3a12.37,12.37,0,0,0-.346,4.524l-1.753,1.948a29.118,29.118,0,0,1,1.918-7.328Zm-.46,7.01a11.632,11.632,0,0,1,.379-3.588l.968-3.641-.218,2.222a16.119,16.119,0,0,0,.061,3.684Zm7.022-3.137L9.319,23.744a1.174,1.174,0,0,1-.783.3H2.492a.507.507,0,0,1-.506-.507v-.3h2.44a.365.365,0,1,0,0-.731H1.986v-.083A1.292,1.292,0,0,1,3,21.15l2.162-.481A1.227,1.227,0,0,0,6.1,19.71L6.363,18.4h.88a.365.365,0,1,0,0-.731H6.507l.157-.79H7.711a.365.365,0,1,0,0-.731h-.9l.157-.79h.452a.365.365,0,1,0,0-.731H7.111l.157-.79H8.6a.365.365,0,0,0,0-.731H7.413l.318-1.6a.345.345,0,0,1,.337-.277l.044,0a7.059,7.059,0,0,1,1.773.469l.365.15a1.5,1.5,0,0,0,1.476-.2l.621-.478-.5,1.218a29.845,29.845,0,0,0-2.077,8.532L8.454,22.39A.343.343,0,0,1,8.2,22.5H5.985a.365.365,0,1,0,0,.731H8.2a1.076,1.076,0,0,0,.8-.355l1.4-1.555h0l9.03-10.034.678.657a1.51,1.51,0,0,1-.046,2.213Z" transform="translate(0.002 0.004)" fill="#fff"/>
  <path id="Path_63" data-name="Path 63" d="M335.156,309.78l-.631.659a.366.366,0,1,0,.528.506l.631-.659a.366.366,0,0,0-.528-.506Z" transform="translate(-318.24 -294.681)" fill="#fff"/>
  <path id="Path_64" data-name="Path 64" d="M371.141,261.593l-1.145,1.2a.366.366,0,1,0,.528.506l1.145-1.2a.366.366,0,0,0-.528-.506Z" transform="translate(-351.994 -248.826)" fill="#fff"/>
  <path id="Path_65" data-name="Path 65" d="M171.645,365.951h.372a.365.365,0,1,0,0-.731h-.372a.365.365,0,1,0,0,.731Z" transform="translate(-162.991 -347.546)" fill="#fff"/>
  <path id="Path_66" data-name="Path 66" d="M175.675,303.081h.457a.365.365,0,0,0,0-.731h-.457a.365.365,0,0,0,0,.731Z" transform="translate(-166.826 -287.718)" fill="#fff"/>
  <path id="Path_67" data-name="Path 67" d="M282.3,46.311h2.153a.365.365,0,0,0,0-.731H282.3a.365.365,0,1,0,0,.731Z" transform="translate(-268.286 -43.374)" fill="#fff"/>
  <path id="Path_68" data-name="Path 68" d="M363.915,46.311h.555a.365.365,0,1,0,0-.731h-.555a.365.365,0,0,0,0,.731Z" transform="translate(-345.957 -43.374)" fill="#fff"/>
  <path id="Path_69" data-name="Path 69" d="M361.887,104.525a.365.365,0,0,0-.365-.365h-4.017a.365.365,0,0,0,0,.731h4.017A.365.365,0,0,0,361.887,104.525Z" transform="translate(-339.857 -99.119)" fill="#fff"/>
  <path id="Path_70" data-name="Path 70" d="M450.852,329.42h-2.2a.365.365,0,0,0,0,.731h2.2a.365.365,0,0,0,0-.731Z" transform="translate(-426.596 -313.478)" fill="#fff"/>
  <path id="Path_71" data-name="Path 71" d="M343.519,412.88h-2.2a.365.365,0,0,0,0,.731h2.2a.365.365,0,1,0,0-.731Z" transform="translate(-324.45 -392.899)" fill="#fff"/>
  <path id="Path_72" data-name="Path 72" d="M420.826,412.88h-.511a.365.365,0,1,0,0,.731h.511a.365.365,0,0,0,0-.731Z" transform="translate(-399.627 -392.899)" fill="#fff"/>
</svg>
