<svg id="Group_44" data-name="Group 44" xmlns="http://www.w3.org/2000/svg" width="31.567" height="17.646" viewBox="0 0 31.567 17.646">
  <g id="Group_43" data-name="Group 43">
    <path id="Path_48" data-name="Path 48" d="M30,4.83h-.627V2.5a2.5,2.5,0,0,0-2.5-2.5H17.82a2.5,2.5,0,0,0-2.036,1.054A2.5,2.5,0,0,0,13.747,0H8.058a.462.462,0,1,0,0,.925h5.69A1.576,1.576,0,0,1,15.321,2.5V7.124l-.03-.027a3.024,3.024,0,0,0-2.041-.806h-7.7A1.586,1.586,0,0,0,4.5,4.916a1.53,1.53,0,0,0-.513-.087H3.117V2.5A1.576,1.576,0,0,1,4.691.925H6.208a.462.462,0,0,0,0-.925H4.691a2.5,2.5,0,0,0-2.5,2.5V4.829H1.565A1.567,1.567,0,0,0,0,6.394v4.828A3.262,3.262,0,0,0,3.258,14.48H3.49l-.507,1.363a1.35,1.35,0,0,0,1.253,1.8H4.98a1.345,1.345,0,0,0,1.066-.53L8.04,14.481H23.526l1.993,2.635a1.344,1.344,0,0,0,1.066.53h.744a1.35,1.35,0,0,0,1.253-1.8l-.507-1.363h.232a3.262,3.262,0,0,0,3.258-3.258V6.394A1.565,1.565,0,0,0,30,4.83ZM16.246,2.5A1.576,1.576,0,0,1,17.82.925h9.056A1.576,1.576,0,0,1,28.451,2.5V4.83H27.58a1.6,1.6,0,0,0-1.443.961,1.554,1.554,0,0,0-.118.5h-7.7a3.032,3.032,0,0,0-2.07.833V2.5ZM5.551,7.215h7.7a2.073,2.073,0,0,1,2.07,2.07v.658H5.551ZM5.31,16.558a.415.415,0,0,1-.329.163H4.237a.415.415,0,0,1-.386-.556l.626-1.685h2.4Zm22.021.163h-.744a.414.414,0,0,1-.329-.163l-1.572-2.077h2.4l.626,1.685A.415.415,0,0,1,27.33,16.721Zm.979-3.165H3.258A2.336,2.336,0,0,1,.925,11.223V6.395a.641.641,0,0,1,.64-.64H3.987a.641.641,0,0,1,.64.64v4.012a.463.463,0,0,0,.462.462H22.074a.462.462,0,1,0,0-.925H16.246V9.286a2.073,2.073,0,0,1,2.07-2.07h7.7V9.944H23.923a.462.462,0,0,0,0,.925h2.555a.463.463,0,0,0,.462-.462V6.395a.641.641,0,0,1,.64-.64H30a.641.641,0,0,1,.64.64v4.828h0A2.336,2.336,0,0,1,28.309,13.556Z" transform="translate(0 0)" fill="#fff"/>
  </g>
</svg>
