<svg id="Group_42" data-name="Group 42" xmlns="http://www.w3.org/2000/svg" width="23.898" height="24.743" viewBox="0 0 23.898 24.743">
  <g id="Group_41" data-name="Group 41" transform="translate(0 0)">
    <path id="Path_45" data-name="Path 45" d="M234.186,232.055a.483.483,0,1,1,.476-.4A.488.488,0,0,1,234.186,232.055Z" transform="translate(-222.409 -219.922)" fill="#fff"/>
    <path id="Path_46" data-name="Path 46" d="M21.523,186.636H20.066v-1.773a.483.483,0,0,0-.483-.483H3.469a.483.483,0,0,0-.483.483v1.773H1.53a1.53,1.53,0,1,0,0,3.059H2.987v3.174a3.2,3.2,0,0,0,3.191,3.191h.729a1.851,1.851,0,0,0,.23.879h-.82a1.985,1.985,0,0,0-1.982,1.982v.325h-.94a.483.483,0,1,0,0,.967H19.658a.483.483,0,1,0,0-.967h-.939v-.326a1.985,1.985,0,0,0-1.982-1.982h-.82a1.851,1.851,0,0,0,.23-.879h.729a3.2,3.2,0,0,0,3.191-3.191v-3.174h1.457a1.529,1.529,0,1,0,0-3.059ZM1.53,188.728a.563.563,0,0,1,0-1.126H2.987v1.126H1.53Zm6.342,7.314a2.724,2.724,0,0,1,.9-1.529,2.693,2.693,0,0,1,.895,1.529.9.9,0,1,1-1.791,0Zm3.654.9a.9.9,0,0,1-.9-.9,2.724,2.724,0,0,1,.9-1.529,2.693,2.693,0,0,1,.895,1.529.9.9,0,0,1-.9.9Zm6.227,1.982v.326H5.3v-.326A1.017,1.017,0,0,1,6.315,197.9H16.737A1.017,1.017,0,0,1,17.753,198.921Zm-4.364-2.878a2.724,2.724,0,0,1,.9-1.528,2.705,2.705,0,0,1,.9,1.528.9.9,0,1,1-1.791,0Zm5.711-3.174a2.227,2.227,0,0,1-2.224,2.225h-.966a5.283,5.283,0,0,0-1.321-1.61.483.483,0,0,0-.609,0,5.764,5.764,0,0,0-1.073,1.18,5.715,5.715,0,0,0-1.076-1.181.483.483,0,0,0-.609,0,5.75,5.75,0,0,0-1.073,1.18,5.715,5.715,0,0,0-1.076-1.181.483.483,0,0,0-.609,0,5.32,5.32,0,0,0-1.318,1.609H6.178a2.227,2.227,0,0,1-2.224-2.225V187.6h5.63a.483.483,0,1,0,0-.967H3.953v-1.289H19.1v1.289H13.952a.483.483,0,1,0,0,.967H19.1v5.267Zm2.424-4.141H20.066V187.6h1.457a.563.563,0,1,1,0,1.126Z" transform="translate(0 -175.47)" fill="#fff"/>
    <path id="Path_47" data-name="Path 47" d="M80.928,5.523a2.037,2.037,0,0,0-.743-1.569c0-.012,0-.024,0-.035A1.85,1.85,0,0,0,76.5,3.668a2.122,2.122,0,0,0-1.587-1.029l-4.769-.522A1.524,1.524,0,0,0,68.467.029l-2.288.42A1.525,1.525,0,0,0,65.348,3L61.076,5.179a2.122,2.122,0,0,0-1.115,2.258.483.483,0,0,0,.475.4.455.455,0,0,0,.088-.008L76.277,4.934h.7a.483.483,0,0,0,.483-.488s0-.488,0-.527a.883.883,0,0,1,1.767,0,.911.911,0,0,1-.017.174.483.483,0,0,0,.231.512,1.062,1.062,0,0,1,0,1.836.483.483,0,0,0-.231.512.907.907,0,0,1,.017.174.883.883,0,0,1-1.767,0c0-.034,0-.3,0-.572a.483.483,0,0,0-.483-.489H74.51a.483.483,0,1,0,0,.967h1.978c0,.048,0,.082,0,.095a1.85,1.85,0,0,0,3.7,0c0-.012,0-.024,0-.035a2.038,2.038,0,0,0,.742-1.569ZM65.995,1.631a.551.551,0,0,1,.358-.231L68.641.98a.559.559,0,0,1,.1-.009.557.557,0,0,1,.1,1.105l-.752.138L66.554,2.5a.557.557,0,0,1-.559-.865ZM60.932,6.767a1.147,1.147,0,0,1,.584-.727l5-2.554.209-.038h0l2.288-.42h0l.207-.038,5.585.611a1.147,1.147,0,0,1,.8.473Z" transform="translate(-57.031 -0.004)" fill="#fff"/>
  </g>
</svg>
