<svg id="Group_59" data-name="Group 59" xmlns="http://www.w3.org/2000/svg" width="20.974" height="21.661" viewBox="0 0 20.974 21.661">
  <g id="Group_46" data-name="Group 46" transform="translate(9.661 12.392)">
    <g id="Group_45" data-name="Group 45">
      <path id="Path_49" data-name="Path 49" d="M229.033,292.959a.423.423,0,0,0-.564.2l-.07.147a.423.423,0,1,0,.764.363l.07-.147A.423.423,0,0,0,229.033,292.959Z" transform="translate(-228.358 -292.918)" fill="#fff"/>
    </g>
  </g>
  <g id="Group_48" data-name="Group 48" transform="translate(3.004 9.859)">
    <g id="Group_47" data-name="Group 47">
      <path id="Path_50" data-name="Path 50" d="M73.593,233.149a.423.423,0,0,0-.6,0,.9.9,0,0,1-1.272,0,.423.423,0,0,0-.6.6,1.748,1.748,0,0,0,2.468,0A.423.423,0,0,0,73.593,233.149Z" transform="translate(-71.001 -233.025)" fill="#fff"/>
    </g>
  </g>
  <g id="Group_50" data-name="Group 50" transform="translate(0 0)">
    <g id="Group_49" data-name="Group 49">
      <path id="Path_51" data-name="Path 51" d="M19.851,1.124a3.839,3.839,0,0,0-5.408-.014A10.192,10.192,0,0,0,12.958.516,10.9,10.9,0,0,0,9.719,0,5.986,5.986,0,0,0,4.495,2.514a3.9,3.9,0,0,0-.307.634A7.835,7.835,0,0,0,1.778,8.5,4.059,4.059,0,0,1,.3,11.855a.778.778,0,0,0,.1,1.293c.208.117.442.229.668.338.2.1.484.232.623.321v.753a.8.8,0,0,1-.058.3l-.1.258A1.091,1.091,0,0,0,1.66,16.18v.093a.922.922,0,0,0,.322.7v.5a1.932,1.932,0,0,0,1.93,1.93H5.161a.423.423,0,1,0,0-.846H3.912A1.086,1.086,0,0,1,2.828,17.47v-.73a.423.423,0,0,0-.257-.389l-.018-.008a.077.077,0,0,1-.047-.071v-.239a.422.422,0,0,0-.091-.261l-.074-.095a.245.245,0,0,1-.034-.242l.1-.258a1.636,1.636,0,0,0,.121-.618v-.9c0-.407-.415-.607-1.1-.937-.181-.087-.366-.176-.531-.264A4.908,4.908,0,0,0,2.624,8.5,6.542,6.542,0,0,1,3.946,4.731,5.369,5.369,0,0,0,4.615,7.01a8.5,8.5,0,0,0,4.495,3.565c1.445.651,2.263,1.06,2.27,1.911a1.836,1.836,0,0,1-.427,1.367,1.181,1.181,0,0,1-.778.317.416.416,0,0,0-.361.165.423.423,0,0,0-.06.4,6.117,6.117,0,0,0,1,1.713A4.071,4.071,0,0,0,13.9,18.037l1.136,3.332a.423.423,0,0,0,.4.286.417.417,0,0,0,.137-.023.422.422,0,0,0,.264-.537l-1.119-3.281a8.711,8.711,0,0,0,4.3-5.094,10.256,10.256,0,0,0,.114-5.608,3.835,3.835,0,0,0,.722-5.989ZM18.21,12.463a7.918,7.918,0,0,1-4.124,4.725,3.189,3.189,0,0,1-2.668-1.265,5.386,5.386,0,0,1-.657-1,1.936,1.936,0,0,0,.768-.449,2.615,2.615,0,0,0,.7-1.992c-.011-1.435-1.35-2.038-2.768-2.676a7.7,7.7,0,0,1-4.1-3.192,3.821,3.821,0,0,1-.414-3.072l0-.011a3.081,3.081,0,0,1,.27-.579,5.152,5.152,0,0,1,4.5-2.1h.012a10.138,10.138,0,0,1,2.969.476A7.778,7.778,0,0,1,17.434,5.07,9.669,9.669,0,0,1,18.21,12.463Zm.667-6.2a10.6,10.6,0,0,0-.7-1.6,8.313,8.313,0,0,0-2.956-3.123,2.988,2.988,0,0,1,4.031,4.4A3.027,3.027,0,0,1,18.877,6.267Z" transform="translate(0.002 0)" fill="#fff"/>
    </g>
  </g>
  <g id="Group_52" data-name="Group 52" transform="translate(4.553 13.454)">
    <g id="Group_51" data-name="Group 51">
      <path id="Path_52" data-name="Path 52" d="M113.91,324.369l-1.325-2.3-.045-1.567a2.568,2.568,0,0,0-2.361-2.489,2.346,2.346,0,0,0-2.3,1.328l-.021.044a2.58,2.58,0,0,0,.919,3.254l1.319.86,1.441,2.5a.423.423,0,0,0,.733-.423l-1.28-2.217.51-.294.51-.294,1.167,2.021a.422.422,0,1,0,.731-.423Zm-3.484-1.66-1.186-.773a1.731,1.731,0,0,1-.617-2.183l.021-.044a1.5,1.5,0,0,1,1.347-.852c.039,0,.079,0,.119,0a1.723,1.723,0,0,1,1.584,1.67l.041,1.422Z" transform="translate(-107.613 -318.011)" fill="#fff"/>
    </g>
  </g>
  <g id="Group_54" data-name="Group 54" transform="translate(10.762 20.815)">
    <g id="Group_53" data-name="Group 53">
      <path id="Path_53" data-name="Path 53" d="M255.092,492.124a.423.423,0,1,0,.124.3A.426.426,0,0,0,255.092,492.124Z" transform="translate(-254.37 -492)" fill="#fff"/>
    </g>
  </g>
  <g id="Group_56" data-name="Group 56" transform="translate(5.821 2.222)">
    <g id="Group_55" data-name="Group 55">
      <path id="Path_54" data-name="Path 54" d="M139.782,52.789a.423.423,0,0,0-.555-.223,2.461,2.461,0,0,0-1.264,3.652.423.423,0,1,0,.745-.4,1.788,1.788,0,0,1-.2-1.459,1.813,1.813,0,0,1,1.049-1.016A.423.423,0,0,0,139.782,52.789Z" transform="translate(-137.586 -52.532)" fill="#fff"/>
    </g>
  </g>
  <g id="Group_58" data-name="Group 58" transform="translate(8.605 1.946)">
    <g id="Group_57" data-name="Group 57">
      <path id="Path_55" data-name="Path 55" d="M203.834,46h-.024a.423.423,0,0,0,0,.846h.021a.423.423,0,1,0,0-.846Z" transform="translate(-203.39 -46)" fill="#fff"/>
    </g>
  </g>
</svg>
