<svg id="Group_71" data-name="Group 71" xmlns="http://www.w3.org/2000/svg" width="20.909" height="20.954" viewBox="0 0 20.909 20.954">
  <g id="Group_62" data-name="Group 62" transform="translate(8.876 10.989)">
    <g id="Group_61" data-name="Group 61">
      <path id="Path_56" data-name="Path 56" d="M217.558,268.714a.364.364,0,0,0-.665.3,10,10,0,0,1,.727,3.957,10.662,10.662,0,0,1-.564,3.553.364.364,0,1,0,.683.25,11.23,11.23,0,0,0,.609-3.8A10.746,10.746,0,0,0,217.558,268.714Z" transform="translate(-216.862 -268.498)" fill="#fff"/>
    </g>
  </g>
  <g id="Group_64" data-name="Group 64" transform="translate(4.762 10.989)">
    <g id="Group_63" data-name="Group 63">
      <path id="Path_57" data-name="Path 57" d="M117.307,268.538a.364.364,0,0,0-.48.184,8.142,8.142,0,0,0-.458,1.363.364.364,0,1,0,.706.174,7.439,7.439,0,0,1,.416-1.24A.364.364,0,0,0,117.307,268.538Z" transform="translate(-116.358 -268.506)" fill="#fff"/>
    </g>
  </g>
  <g id="Group_66" data-name="Group 66" transform="translate(4.441 13.623)">
    <g id="Group_65" data-name="Group 65">
      <path id="Path_58" data-name="Path 58" d="M109.792,338.247a10.654,10.654,0,0,1-.564-3.553,12.411,12.411,0,0,1,.081-1.429.364.364,0,1,0-.723-.084,13.132,13.132,0,0,0-.086,1.513,11.23,11.23,0,0,0,.609,3.8.364.364,0,0,0,.342.239.364.364,0,0,0,.341-.489Z" transform="translate(-108.5 -332.859)" fill="#fff"/>
    </g>
  </g>
  <g id="Group_68" data-name="Group 68" transform="translate(0)">
    <g id="Group_67" data-name="Group 67">
      <path id="Path_59" data-name="Path 59" d="M20.909,5.752V.364A.364.364,0,0,0,20.545,0H19.3a.364.364,0,0,0,0,.728h.877V5.388h-7.8V.727h5.757a.364.364,0,1,0,0-.727H12.02a.364.364,0,0,0-.364.364V5.752a.364.364,0,0,0,.364.364H13.3V6.77H12.02a.364.364,0,0,0-.364.364v3.848A6.1,6.1,0,0,0,9.4,9.612V6.77a.364.364,0,0,0-.364-.364H8.82V4.028a.364.364,0,0,0-.364-.364H6.347a.364.364,0,0,0-.364.364v.9H5.129A2.5,2.5,0,0,0,2.582,3.069,2.424,2.424,0,0,0,0,5.288,2.424,2.424,0,0,0,2.582,7.506,2.5,2.5,0,0,0,5.129,5.652h.854v.755H5.765a.364.364,0,0,0-.364.364V9.616a6.176,6.176,0,0,0-3.268,9.066.364.364,0,0,0,.62-.38,5.448,5.448,0,0,1,8.9-6.245v6.8a5.509,5.509,0,0,1-1.62,1.368H4.766a5.469,5.469,0,0,1-1.3-1,.364.364,0,1,0-.525.5A6.179,6.179,0,0,0,4.5,20.912a.367.367,0,0,0,.171.043h5.455a.366.366,0,0,0,.171-.043,6.216,6.216,0,0,0,1.356-.98v.659a.364.364,0,0,0,.364.364h8.525a.364.364,0,0,0,.364-.364V7.134a.364.364,0,0,0-.364-.364h-1.28V6.115h1.28A.363.363,0,0,0,20.909,5.752ZM2.582,6.779A1.7,1.7,0,0,1,.727,5.288,1.7,1.7,0,0,1,2.582,3.8,1.7,1.7,0,0,1,4.437,5.288,1.7,1.7,0,0,1,2.582,6.779ZM6.71,4.392H8.092V6.406H6.71ZM8.674,9.413A6.25,6.25,0,0,0,7.4,9.283a6.183,6.183,0,0,0-1.273.132V7.134H8.674Zm5.353-3.3h4.51V6.77h-4.51ZM20.182,7.5v12.73h-7.8V7.5h7.8Z" transform="translate(0)" fill="#fff"/>
    </g>
  </g>
  <g id="Group_70" data-name="Group 70" transform="translate(13.482 9.789)">
    <g id="Group_69" data-name="Group 69">
      <path id="Path_60" data-name="Path 60" d="M334.647,241.268a.364.364,0,0,0,.364-.364v-1.37a.364.364,0,0,0-.364-.364h-4.874a.364.364,0,0,0-.364.364v7.42a.364.364,0,0,0,.364.364h4.874a.364.364,0,0,0,.364-.364v-4.837a.364.364,0,1,0-.728,0v4.473h-4.146V239.9h4.146V240.9A.364.364,0,0,0,334.647,241.268Z" transform="translate(-329.41 -239.17)" fill="#fff"/>
    </g>
  </g>
</svg>
