<svg id="Group_26" data-name="Group 26" xmlns="http://www.w3.org/2000/svg" width="20.931" height="21.828" viewBox="0 0 20.931 21.828">
  <path id="Path_38" data-name="Path 38" d="M18.055,16.076a2.854,2.854,0,0,0-1.784.624l-2.837-2.837h4.514a2,2,0,0,0,1.95-1.521l1.024-4.094a.265.265,0,0,0,0-.088.01.01,0,0,0,.01-.01,8.3,8.3,0,0,0-2.486-5.762c-.01-.01-.01-.01-.01-.019s-.019-.01-.029-.019A8.251,8.251,0,0,0,12.634,0,.329.329,0,0,0,12.3.331V6.873a1.316,1.316,0,0,0-.955.965H7.4l-2.72-2.73a.34.34,0,0,0-.234-.1H.331a.331.331,0,0,0,0,.663H4.309L6.473,7.838H4.66a.358.358,0,0,0-.263.127.353.353,0,0,0-.058.283l1.024,4.094a2,2,0,0,0,1.95,1.521h4.514L8.988,16.7A2.875,2.875,0,1,0,7.2,21.828a2.888,2.888,0,0,0,2.856-2.554h5.128a2.875,2.875,0,1,0,2.866-3.2ZM15.2,18.63H10.07a2.848,2.848,0,0,0-.6-1.453l3.168-3.168L15.8,17.177A2.934,2.934,0,0,0,15.2,18.63Zm5.06-10.8H13.931a1.116,1.116,0,0,0-.146-.351l4.406-4.406A7.644,7.644,0,0,1,20.258,7.828ZM17.723,2.613,13.317,7.019a1.116,1.116,0,0,0-.351-.146V.673A7.615,7.615,0,0,1,17.723,2.613ZM12.634,7.487a.673.673,0,1,1-.673.673A.674.674,0,0,1,12.634,7.487Zm-1.287,1a1.333,1.333,0,0,0,2.583,0H20.19l-.926,3.685A1.344,1.344,0,0,1,17.957,13.2H12.771L8.062,8.491ZM6.005,12.176,5.089,8.491H7.126L11.835,13.2H7.321A1.356,1.356,0,0,1,6.005,12.176Zm1.209,9a2.218,2.218,0,1,1,0-4.436,2.2,2.2,0,0,1,1.316.439l-1.55,1.55a.331.331,0,0,0,.468.468L9,17.645a2.2,2.2,0,0,1,.439,1.316A2.232,2.232,0,0,1,7.214,21.174Zm10.841,0a2.208,2.208,0,0,1-1.784-3.529l1.55,1.55a.33.33,0,0,0,.468,0,.335.335,0,0,0,0-.468l-1.55-1.55a2.215,2.215,0,1,1,1.316,4Z" transform="translate(0 0)" fill="#fff"/>
</svg>
