<svg id="Group_60" data-name="Group 60" xmlns="http://www.w3.org/2000/svg" width="19.643" height="19.643" viewBox="0 0 19.643 19.643">
  <path id="XMLID_6_" d="M17.5,0H11.582A2.144,2.144,0,0,0,9.822.923,2.144,2.144,0,0,0,8.061,0H2.145A2.147,2.147,0,0,0,0,2.145V8.061A2.143,2.143,0,0,0,.923,9.822,2.144,2.144,0,0,0,0,11.582V17.5a2.147,2.147,0,0,0,2.145,2.145H8.061a2.144,2.144,0,0,0,1.761-.923,2.144,2.144,0,0,0,1.761.923H17.5A2.147,2.147,0,0,0,19.643,17.5V11.582a2.144,2.144,0,0,0-.923-1.761,2.144,2.144,0,0,0,.923-1.761V6.829a.384.384,0,1,0-.767,0V8.061A1.379,1.379,0,0,1,17.5,9.438H11.582a1.379,1.379,0,0,1-1.377-1.377V2.145A1.379,1.379,0,0,1,11.582.767H17.5a1.379,1.379,0,0,1,1.377,1.377V3.376a.384.384,0,1,0,.767,0V2.145A2.147,2.147,0,0,0,17.5,0ZM.767,8.061V2.145A1.379,1.379,0,0,1,2.145.767H8.061A1.379,1.379,0,0,1,9.438,2.145V8.061A1.379,1.379,0,0,1,8.061,9.438H2.145A1.379,1.379,0,0,1,.767,8.061ZM8.061,18.876H2.145A1.379,1.379,0,0,1,.767,17.5V11.582a1.379,1.379,0,0,1,1.377-1.377H8.061a1.379,1.379,0,0,1,1.377,1.377V17.5a1.379,1.379,0,0,1-1.377,1.377ZM17.5,10.205a1.379,1.379,0,0,1,1.377,1.377V17.5A1.379,1.379,0,0,1,17.5,18.876H11.582A1.379,1.379,0,0,1,10.205,17.5V11.582a1.379,1.379,0,0,1,1.377-1.377Zm-7.138-.384a2.155,2.155,0,0,0-.539.539,2.155,2.155,0,0,0-.539-.539,2.155,2.155,0,0,0,.539-.539A2.155,2.155,0,0,0,10.361,9.822Z" fill="#fff"/>
  <path id="XMLID_5_" d="M58.954,302a2.954,2.954,0,1,0,2.954,2.954A2.957,2.957,0,0,0,58.954,302Zm0,5.141a2.187,2.187,0,1,1,2.187-2.187A2.189,2.189,0,0,1,58.954,307.141Z" transform="translate(-53.852 -290.414)" fill="#fff"/>
  <path id="XMLID_4_" d="M299.338,305.077l.952.688-.364,1.112a.785.785,0,0,0,1.209.878l.945-.689.945.69a.774.774,0,0,0,.925,0,.773.773,0,0,0,.285-.879l-.364-1.112.952-.688a.785.785,0,0,0-.46-1.422h-1.176l-.359-1.111a.785.785,0,0,0-1.495,0l-.359,1.111H299.8a.785.785,0,0,0-.46,1.421Zm.45-.653h1.466a.384.384,0,0,0,.365-.266l.445-1.377a.032.032,0,0,1,0-.01.029.029,0,0,1,.025,0,.031.031,0,0,1,0,.01l.445,1.377a.383.383,0,0,0,.365.266h1.465a.031.031,0,0,1,.008.024.029.029,0,0,1-.008.007l-1.179.852a.383.383,0,0,0-.14.43l.451,1.378a.041.041,0,0,1,0,.01.031.031,0,0,1-.02.015s0,0-.01-.005l-1.171-.855a.384.384,0,0,0-.453,0l-1.171.855-.009.005a.038.038,0,0,1-.021-.015.025.025,0,0,1,0-.01l.451-1.378a.384.384,0,0,0-.14-.43l-1.179-.852a.026.026,0,0,1-.008-.007A.029.029,0,0,1,299.787,304.424Z" transform="translate(-287.539 -290.414)" fill="#fff"/>
  <path id="XMLID_3_" d="M60.258,63.47a.941.941,0,0,0-1.629,0l-1.793,3.106a.941.941,0,0,0,.814,1.411h3.586a.941.941,0,0,0,.814-1.411Zm1.129,3.663a.168.168,0,0,1-.15.087H57.649a.173.173,0,0,1-.15-.26l1.793-3.106a.173.173,0,0,1,.3,0l1.793,3.106a.169.169,0,0,1,0,.173Z" transform="translate(-54.532 -60.583)" fill="#fff"/>
  <path id="XMLID_2_" d="M305.128,55.747a.982.982,0,0,0-1.386,0l-1.995,1.995a.982.982,0,0,0,0,1.387l1.995,1.995a.982.982,0,0,0,1.386,0l2-1.995a.982.982,0,0,0,0-1.387Zm1.453,2.839-1.995,1.995a.213.213,0,0,1-.3,0l-1.995-1.995a.213.213,0,0,1,0-.3l1.995-1.995a.213.213,0,0,1,.3,0l1.995,1.995a.213.213,0,0,1,0,.3Z" transform="translate(-289.894 -53.332)" fill="#fff"/>
  <path id="XMLID_1_" d="M492.384,123a.384.384,0,1,0,.271.112A.386.386,0,0,0,492.384,123Z" transform="translate(-473.124 -118.281)" fill="#fff"/>
</svg>
