

<svg xmlns="http://www.w3.org/2000/svg">
<symbol id="Electronics" viewBox="0 0 34 34">
    <g id="Group_40_1_" transform="translate(23.322 -0.877)">
	<g id="Group_39_1_" transform="translate(439.678 208.878)">
		<g id="Group_28_1_" transform="translate(0 6.755)">
			<g id="Group_27_1_" transform="translate(0)">
				<path id="Path_39_1_" class="st0" d="M-455.1-188.3c-0.9-0.9-2.1-1.1-3.2-0.5c-3.8-5.4-3.8-12.5,0-17.9c0.2-0.3,0.2-0.7-0.1-0.9
					s-0.7-0.2-0.9,0.1c0,0,0,0,0,0.1c-4.2,5.9-4.1,13.7,0,19.5c-0.9,1.2-0.6,3,0.6,3.9s3,0.6,3.9-0.6
					C-454-185.8-454.1-187.3-455.1-188.3z M-456-185.3c-0.6,0.6-1.5,0.6-2.1,0s-0.6-1.5,0-2.1s1.5-0.6,2.1,0S-455.4-185.8-456-185.3
					L-456-185.3L-456-185.3z"/>
			</g>
		</g>
		<g id="Group_30_1_" transform="translate(9.059 3.377)">
			<g id="Group_29_1_">
				<path id="Path_40_1_" class="st0" d="M-444.7-181.6c-0.2-0.3-0.6-0.4-0.9-0.2l0,0c-1.9,1.4-4,2.3-6.3,2.7
					c-1,0.2-1.9-0.5-2.1-1.4c0-0.1,0-0.2,0-0.3v-4.8h0.1c0.8,0,1.4-0.6,1.4-1.4v-1.1c2.3-0.9,3.8-3.1,3.8-5.5v-3.1
					c1.3-0.4,2.1-1.7,1.8-3.1c-0.3-1-1.1-1.7-2.1-1.8v-4.1c0-1.1-0.9-2-2-2s-2,0.9-2,2v4.1h-3.3v-4.1c0-1.1-0.9-2-2-2s-2,0.9-2,2
					v4.1c-1.4,0.2-2.3,1.4-2.1,2.8c0.1,1,0.9,1.8,1.8,2.1v3.1c0,2.4,1.5,4.6,3.8,5.5v1.1c0,0.8,0.6,1.4,1.4,1.4h0.1v4.8
					c0,1.7,1.4,3.1,3.1,3.1c0.2,0,0.4,0,0.6-0.1c2.5-0.4,4.8-1.4,6.8-2.9C-444.6-180.9-444.5-181.3-444.7-181.6z M-451.7-205.8
					c0-0.4,0.3-0.6,0.7-0.6c0.3,0,0.6,0.3,0.6,0.6v4.1h-1.3V-205.8z M-459-205.8c0-0.4,0.3-0.7,0.7-0.7s0.7,0.3,0.7,0.7v4.1h-1.3
					L-459-205.8L-459-205.8z M-461.1-199.2c0-0.6,0.5-1.2,1.2-1.2h10.5c0.6,0,1.2,0.5,1.2,1.1s-0.5,1.2-1.1,1.2h-0.1h-10.5
					C-460.6-198-461.1-198.6-461.1-199.2L-461.1-199.2L-461.1-199.2z M-459.3-193.7v-3h9.2v3c0.1,2.5-1.9,4.7-4.4,4.8
					s-4.7-1.9-4.8-4.4C-459.3-193.4-459.3-193.6-459.3-193.7z M-454.7-187h-0.8c0,0-0.1,0-0.1-0.1v-0.8c0.3,0,0.5,0.1,0.8,0.1
					s0.5,0,0.8-0.1v0.8c0,0,0,0.1-0.1,0.1H-454.7z"/>
			</g>
		</g>
		<g id="Group_32_1_" transform="translate(27.567 27.532)">
			<g id="Group_31_1_">
				<path id="Path_41_1_" class="st0" d="M-461.3-207.6c-0.3-0.2-0.7-0.2-0.9,0l0,0c-0.2,0.3-0.2,0.7,0.1,0.9s0.7,0.2,0.9,0l0,0
					C-461.1-206.9-461.1-207.3-461.3-207.6L-461.3-207.6z"/>
			</g>
		</g>
		<g id="Group_34_1_" transform="translate(6.799 0)">
			<g id="Group_33_1_" transform="translate(0 0)">
				<path id="Path_42_1_" class="st0" d="M-435.7-192.2c-0.7-9.3-8.8-16.2-18.1-15.5c-3,0.2-5.9,1.3-8.4,3c-0.3,0.2-0.4,0.6-0.2,0.9
					c0.2,0.3,0.6,0.4,0.9,0.2l0,0c6.2-4.3,14.6-3.6,19.9,1.7c5.4,5.4,6.1,13.9,1.6,20.1c-0.2,0.3-0.2,0.7,0.1,0.9s0.7,0.2,0.9-0.1
					l0,0C-436.5-184.3-435.4-188.2-435.7-192.2z"/>
			</g>
		</g>
		<g id="Group_36_1_" transform="translate(4.641 4.771)">
			<g id="Group_35_1_">
				<path id="Path_43_1_" class="st0" d="M-461.3-207.6c-0.3-0.3-0.7-0.3-0.9,0l0,0l0,0c-0.3,0.3-0.2,0.7,0,0.9
					c0.3,0.3,0.7,0.2,0.9,0l0,0C-461.1-206.9-461.1-207.3-461.3-207.6z"/>
			</g>
		</g>
		<g id="Group_38_1_" transform="translate(15.237 14.701)">
			<g id="Group_37_1_">
				<path id="Path_44_1_" class="st0" d="M-459.4-205.3c-0.1-0.2-0.3-0.3-0.6-0.3h-0.5l0.9-1.1c0.2-0.3,0.2-0.7-0.1-0.9
					s-0.7-0.2-0.9,0.1c0,0,0,0,0,0.1l-1.7,2.1c-0.2,0.3-0.2,0.7,0.1,0.9c0.1,0.1,0.3,0.1,0.4,0.1h0.7l-0.8,1.4
					c-0.2,0.3-0.1,0.7,0.2,0.9s0.7,0.1,0.9-0.2l1.4-2.4C-459.3-204.8-459.3-205.1-459.4-205.3z"/>
			</g>
		</g>
	</g>
    </g>
</symbol>
<symbol id="Fashion" viewBox="0 0 35 35">
    <g id="Group_74" transform="translate(610.992 207.997)">
	<g id="Group_73" transform="translate(0.008 0.004)">
		<g id="Group_72" transform="translate(0 0)">
			<path id="Path_61" class="st0" d="M-577-195.1l-5.5-5.5c-0.1-0.1-0.2-0.1-0.3-0.1l-6.1-1.1c-0.3-0.1-0.6,0.1-0.6,0.4l0,0v0.1
				c0,0.2,0,0.4-0.1,0.5l-3.8-1v-0.2c1.5-0.3,2.5-1.8,2.2-3.3s-1.8-2.5-3.3-2.2c-1.3,0.3-2.2,1.4-2.2,2.7h1.1c0-0.9,0.7-1.7,1.7-1.7
				c0.9,0,1.7,0.7,1.7,1.7s-0.7,1.7-1.7,1.7l0,0c-0.3,0-0.6,0.2-0.6,0.6l0,0v0.7l-3.8,1c0-0.2,0-0.4,0-0.5c0-0.2-0.1-0.3-0.2-0.4
				c-0.1-0.1-0.3-0.1-0.4-0.1l-6.1,1.1c-0.1,0-0.2,0.1-0.3,0.1l-5.5,5.5c-0.2,0.2-0.2,0.6,0,0.8l4.4,4.4c0.2,0.2,0.6,0.2,0.8,0
				l1.3-1.3v3.6h-3.9c-1.5,0-2.8,1.2-2.8,2.8c0,0.9,0.4,1.7,1.1,2.2c-1.2,0.9-1.5,2.6-0.6,3.8c0.2,0.2,0.4,0.4,0.6,0.6
				c-1.2,0.9-1.5,2.6-0.6,3.9c0.5,0.7,1.4,1.1,2.2,1.1h20c0.1,0,0.3-0.1,0.4-0.2l4.4-4.4c0.1-0.1,0.2-0.2,0.2-0.4l0,0v-13.1l1.3,1.3
				c0.2,0.2,0.6,0.2,0.8,0l4.4-4.4C-576.8-194.5-576.8-194.9-577-195.1L-577-195.1z M-594-200.8l4,1c-0.8,1.4-2.4,2.3-4,2.2
				c-1.7,0.1-3.2-0.8-4-2.2L-594-200.8z M-610.1-184.7c0-0.9,0.7-1.7,1.7-1.7l0,0h12.2c0.9,0,1.7,0.7,1.7,1.7s-0.7,1.7-1.7,1.7
				h-12.2C-609.3-183.1-610.1-183.8-610.1-184.7L-610.1-184.7z M-610.1-180.3c0-0.9,0.7-1.7,1.7-1.7l0,0h12.2c0.9,0,1.7,0.7,1.7,1.7
				s-0.7,1.7-1.7,1.7h-12.2C-609.3-178.6-610.1-179.4-610.1-180.3L-610.1-180.3z M-596.2-174.2h-12.2c-0.9,0-1.7-0.7-1.7-1.7
				c0-0.9,0.7-1.7,1.7-1.7h12.2c0.9,0,1.7,0.7,1.7,1.7S-595.3-174.2-596.2-174.2L-596.2-174.2z M-585.4-177.5l-2.5,2.5 M-589-174.2
				h-5c0.9-1.2,0.7-2.9-0.5-3.8l0,0l-0.1-0.1c1.2-0.9,1.5-2.6,0.6-3.8c-0.2-0.2-0.4-0.4-0.6-0.6c1.2-0.9,1.5-2.6,0.6-3.9
				c-0.5-0.7-1.4-1.1-2.2-1.1h-7.2v-4.8l1.5-1.5l-0.8-0.8l-3.5,3.5l-3.7-3.6l5-5l5.3-1c0.5,2.6,2.9,4.4,5.5,4.3
				c2.6,0.1,4.9-1.7,5.5-4.3l5.3,1l5,5l-3.6,3.6l-3.5-3.5l-0.8,0.8l1.5,1.5v13.6"/>
		</g>
	</g>
    </g>
</symbol>
<symbol id="Sports" viewBox="0 0 35 35">
    <g id="Group_75" transform="translate(737.002 208.004)">
	<path id="Path_62" class="st0" d="M-706.8-189.7c0-0.9-0.3-1.7-1-2.3l-6.2-6c-0.2-0.2-0.5-0.3-0.8-0.2h-0.1l-7.7-9.6
		c-0.2-0.2-0.5-0.2-0.7,0s-0.2,0.5-0.1,0.7l7.8,9.8l-0.5,1.2l-4.8,3.7c-0.3,0.2-0.7,0.3-1.1,0.1l-0.5-0.2c-0.8-0.3-1.5-0.5-2.3-0.7
		l-0.1-2.4c0-0.5-0.2-1-0.6-1.3l-10.4-10.9c-0.2-0.2-0.5-0.2-0.7,0s-0.2,0.5,0,0.7l10.4,11c0.2,0.2,0.3,0.4,0.3,0.7l0.1,2.3
		c-0.6,0.2-1,0.6-1.1,1.2l-2.3,11.5c-0.1,0.3-0.3,0.5-0.5,0.5l-3,0.7c-1.3,0.3-2.2,1.4-2.2,2.8v1.6c0,1,0.8,1.7,1.7,1.8h8.5
		c0.7,0,1.3-0.2,1.8-0.7l15.1-13.5C-707.2-188-706.8-188.8-706.8-189.7z M-710.2-192.9l-5.6,6.3c-0.1-1.4-0.1-2.7,0-4.1l0.5-4.8
		c0.1-0.1,0.1-0.1,0.2-0.2l0.6-1.5L-710.2-192.9z M-717.8-193.6l0.1-0.1l-1.2,4.6c-0.6,2.1-0.7,4.2-0.5,6.4l-2.5,2.7
		c0.4-3.5,1.4-7,2.7-10.3L-717.8-193.6z M-718.4-183.8c-0.1-1.7,0.1-3.4,0.5-5l1.4-5.1l-0.3,3.1c-0.2,1.7-0.1,3.5,0.1,5.2
		L-718.4-183.8z M-708.5-188.2l-15.1,13.5c-0.3,0.3-0.7,0.4-1.1,0.4h-8.5c-0.4,0-0.7-0.3-0.7-0.7v-0.4h3.4c0.3,0,0.5-0.2,0.5-0.5
		s-0.2-0.5-0.5-0.5h-3.4v-0.1c0-0.9,0.6-1.6,1.4-1.8l3-0.7c0.7-0.1,1.2-0.7,1.3-1.3l0.4-1.8h1.2c0.3,0,0.5-0.2,0.5-0.5
		s-0.2-0.5-0.5-0.5h-1l0.2-1.1h1.5c0.3,0,0.5-0.2,0.5-0.5s-0.2-0.5-0.5-0.5h-1.3l0.2-1.1h0.6c0.3,0,0.5-0.2,0.5-0.5
		s-0.2-0.5-0.5-0.5h-0.4l0.2-1.1h1.9c0.3,0,0.5-0.2,0.5-0.5s-0.2-0.5-0.5-0.5h-1.7l0.4-2.2c0.1-0.2,0.3-0.4,0.5-0.4
		c0.9,0.1,1.7,0.3,2.5,0.7l0.5,0.2c0.7,0.3,1.5,0.2,2.1-0.3l0.9-0.7l-0.7,1.7c-1.6,3.8-2.5,7.9-2.9,12l-1.9,2.1
		c-0.1,0.1-0.2,0.2-0.4,0.2h-3.1c-0.3,0-0.5,0.2-0.5,0.5s0.2,0.5,0.5,0.5l0,0h3.1c0.4,0,0.8-0.2,1.1-0.5l2-2.2l0,0l12.7-14.1l1,0.9
		c0.8,0.8,0.9,2.2,0,3C-708.5-188.2-708.5-188.2-708.5-188.2L-708.5-188.2z"/>
	<path id="Path_63" class="st0" d="M-713-186.9l-0.9,0.9c-0.2,0.2-0.2,0.5,0,0.7s0.5,0.2,0.7,0l0.9-0.9c0.2-0.2,0.2-0.5,0-0.7
		C-712.4-187.1-712.8-187.1-713-186.9L-713-186.9z"/>
	<path id="Path_64" class="st0" d="M-709.8-190.1l-1.6,1.7c-0.2,0.2-0.2,0.5,0,0.7s0.5,0.2,0.7,0l1.6-1.7c0.2-0.2,0.2-0.5,0-0.7
		S-709.6-190.3-709.8-190.1z"/>
	<path id="Path_65" class="st0" d="M-724.6-182.2h0.5c0.3,0,0.5-0.2,0.5-0.5s-0.2-0.5-0.5-0.5h-0.5c-0.3,0-0.5,0.2-0.5,0.5
		S-724.8-182.2-724.6-182.2L-724.6-182.2z"/>
	<path id="Path_66" class="st0" d="M-724.3-186.5h0.6c0.3,0,0.5-0.2,0.5-0.5s-0.2-0.5-0.5-0.5h-0.6c-0.3,0-0.5,0.2-0.5,0.5
		S-724.6-186.5-724.3-186.5L-724.3-186.5z"/>
	<path id="Path_67" class="st0" d="M-717-203.9h3c0.3,0,0.5-0.2,0.5-0.5s-0.2-0.5-0.5-0.5h-3c-0.3,0-0.5,0.2-0.5,0.5
		S-717.3-203.9-717-203.9L-717-203.9z"/>
	<path id="Path_68" class="st0" d="M-711.5-203.9h0.8c0.3,0,0.5-0.2,0.5-0.5s-0.2-0.5-0.5-0.5h-0.8c-0.3,0-0.5,0.2-0.5,0.5
		C-712-204.2-711.8-203.9-711.5-203.9L-711.5-203.9z"/>
	<path id="Path_69" class="st0" d="M-705.8-200.5c0-0.3-0.2-0.5-0.5-0.5l0,0h-5.6c-0.3,0-0.5,0.2-0.5,0.5s0.2,0.5,0.5,0.5h5.6
		C-706-200-705.8-200.2-705.8-200.5L-705.8-200.5z"/>
	<path id="Path_70" class="st0" d="M-702.7-185.7h-3.1c-0.3,0-0.5,0.2-0.5,0.5s0.2,0.5,0.5,0.5l0,0h3.1c0.3,0,0.5-0.2,0.5-0.5
		S-702.4-185.7-702.7-185.7L-702.7-185.7z"/>
	<path id="Path_71" class="st0" d="M-709.9-180h-3.1c-0.3,0-0.5,0.2-0.5,0.5s0.2,0.5,0.5,0.5l0,0h3.1c0.3,0,0.5-0.2,0.5-0.5
		S-709.7-180-709.9-180L-709.9-180z"/>
	<path id="Path_72" class="st0" d="M-706.9-180h-0.7c-0.3,0-0.5,0.2-0.5,0.5s0.2,0.5,0.5,0.5h0.7c0.3,0,0.5-0.2,0.5-0.5
		S-706.7-180-706.9-180z"/>
    </g>
</symbol>
<symbol id="Home" viewBox="0 0 45 25">
    <g id="Group_44" transform="translate(850 214)">
        <g id="Group_43">
            <path id="Path_48" class="st0" d="M-807.5-207.1h-0.9v-3.3c0-1.9-1.6-3.5-3.5-3.5h-12.7c-1.1,0-2.2,0.6-2.9,1.5
                c-0.7-0.9-1.7-1.5-2.9-1.5h-8c-0.4,0-0.6,0.3-0.6,0.6s0.3,0.6,0.6,0.6h8c1.2,0,2.2,1,2.2,2.2v6.5l0,0c-0.8-0.7-1.8-1.1-2.9-1.1
                h-10.8c-0.1-0.9-0.6-1.6-1.5-1.9c-0.2-0.1-0.5-0.1-0.7-0.1h-1.2v-3.3c0-1.2,1-2.2,2.2-2.2h2.1c0.4,0,0.7-0.3,0.7-0.6
                s-0.3-0.6-0.7-0.6l0,0h-2.1c-1.9,0-3.5,1.6-3.5,3.5v3.3h-0.9c-1.2,0-2.2,1-2.2,2.2v6.8c0,2.5,2.1,4.6,4.6,4.6h0.3l-0.7,1.9
                c-0.3,1,0.2,2.1,1.2,2.4c0.2,0.1,0.4,0.1,0.6,0.1h1c0.6,0,1.1-0.3,1.5-0.8l2.8-3.7h21.8l2.8,3.7c0.4,0.5,0.9,0.7,1.5,0.8h1
                c1.1,0,1.9-0.9,1.9-1.9c0-0.2,0-0.4-0.1-0.6l-0.7-1.9h0.3c2.5,0,4.6-2.1,4.6-4.6v-6.8C-805.3-206.1-806.3-207.1-807.5-207.1z
                M-826.8-210.3c0-1.2,1-2.2,2.2-2.2h12.7c1.2,0,2.2,1,2.2,2.2v3.3h-1.2c-0.9,0-1.7,0.5-2,1.4c-0.1,0.2-0.1,0.5-0.2,0.7h-10.8
                c-1.1,0-2.1,0.4-2.9,1.2C-826.8-203.8-826.8-210.3-826.8-210.3z M-841.8-203.7h10.8c1.6,0,2.9,1.3,2.9,2.9v0.9h-13.7V-203.7z
                M-842.2-190.6c-0.1,0.1-0.3,0.2-0.5,0.2h-1.1c-0.3,0-0.6-0.3-0.6-0.6c0-0.1,0-0.1,0-0.2l0.9-2.4h3.4L-842.2-190.6z M-811.3-190.4
                h-1.1c-0.2,0-0.4-0.1-0.5-0.2l-2.2-2.9h3.4l0.9,2.4c0.1,0.3-0.1,0.6-0.4,0.8C-811.1-190.4-811.2-190.4-811.3-190.4L-811.3-190.4z
                M-809.9-194.8h-35.2c-1.8,0-3.3-1.5-3.3-3.3v-6.8c0-0.5,0.4-0.9,0.9-0.9h3.4c0.5,0,0.9,0.4,0.9,0.9v5.6c0,0.4,0.3,0.6,0.6,0.6
                h23.9c0.4,0,0.6-0.3,0.6-0.6s-0.3-0.6-0.6-0.6h-8.2v-0.9c0-1.6,1.3-2.9,2.9-2.9h10.8v3.8h-2.9c-0.4,0-0.7,0.3-0.7,0.6
                s0.3,0.6,0.7,0.6h3.6c0.4,0,0.7-0.3,0.7-0.6v-5.6c0-0.5,0.4-0.9,0.9-0.9l0,0h3.4c0.5,0,0.9,0.4,0.9,0.9l0,0v6.8l0,0
                C-806.6-196.3-808.1-194.8-809.9-194.8L-809.9-194.8z"/>
        </g>
    </g>
</symbol>
<symbol id="Kitchen" viewBox="0 0 35 35">
    <g id="Group_42" transform="translate(975 207.996)">
	<g id="Group_41" transform="translate(0 0.004)">
		<path id="Path_45" class="st0" d="M-957.6-190.7c-0.4,0-0.7-0.3-0.7-0.7s0.3-0.7,0.7-0.7s0.7,0.3,0.7,0.7v0.1
			C-957.1-191-957.4-190.7-957.6-190.7z"/>
		<path id="Path_46" class="st0" d="M-944.1-192.1h-2.1v-2.5c0-0.4-0.3-0.7-0.7-0.7l0,0h-22.6c-0.4,0-0.7,0.3-0.7,0.7l0,0v2.5h-2
			c-1.2,0-2.2,1-2.2,2.1c0,1.2,1,2.1,2.2,2.1h2v4.4c0,2.5,2,4.5,4.5,4.5h1c0,0.4,0.1,0.9,0.3,1.2h-1.1c-1.5,0-2.8,1.2-2.8,2.8v0.5
			h-1.3c-0.4,0-0.7,0.3-0.7,0.6c0,0.4,0.3,0.7,0.6,0.7c0,0,0,0,0.1,0h22.8c0.4,0,0.7-0.3,0.7-0.6c0-0.4-0.3-0.7-0.7-0.7l0,0h-1.3
			v-0.5c0-1.5-1.2-2.8-2.8-2.8h-1.1c0.2-0.4,0.3-0.8,0.3-1.2h1c2.5,0,4.5-2,4.5-4.5v-4.5h2.1c1.2,0,2.2-1,2.2-2.1
			C-941.9-191.1-942.9-192.1-944.1-192.1L-944.1-192.1z M-972.1-189.1c-0.4,0-0.8-0.4-0.8-0.8c0-0.4,0.4-0.8,0.8-0.8h2.1v1.6H-972.1
			z M-963.1-178.9c0.2-0.8,0.6-1.6,1.3-2.1c0.6,0.6,1.1,1.3,1.3,2.1c0,0.7-0.6,1.3-1.3,1.3C-962.6-177.6-963.1-178.2-963.1-178.9
			L-963.1-178.9z M-958.1-177.6c-0.7,0-1.3-0.6-1.3-1.3c0.2-0.8,0.6-1.6,1.3-2.2c0.7,0.6,1.1,1.3,1.3,2.2
			C-956.8-178.2-957.4-177.6-958.1-177.6z M-949.4-174.8v0.5h-17.5v-0.5c0-0.8,0.6-1.4,1.4-1.4h14.6
			C-949.9-176.2-949.4-175.6-949.4-174.8L-949.4-174.8z M-955.4-178.9c0.2-0.8,0.6-1.6,1.3-2.1c0.6,0.6,1.1,1.3,1.3,2.1
			c0,0.7-0.6,1.3-1.3,1.3C-954.9-177.6-955.4-178.2-955.4-178.9z M-947.4-183.3c0,1.7-1.4,3.1-3.1,3.1h-1.3
			c-0.5-0.9-1.1-1.6-1.9-2.3c-0.2-0.2-0.6-0.2-0.9,0c-0.6,0.5-1.1,1-1.5,1.7c-0.4-0.6-0.9-1.2-1.5-1.7c-0.2-0.2-0.6-0.2-0.8,0
			c-0.6,0.5-1.1,1-1.5,1.7c-0.4-0.6-0.9-1.2-1.5-1.7c-0.2-0.2-0.6-0.2-0.9,0c-0.8,0.6-1.4,1.4-1.8,2.3h-1.4c-1.7,0-3.1-1.4-3.1-3.1
			v-7.4h7.9c0.4,0,0.7-0.3,0.7-0.6s-0.3-0.7-0.6-0.7c0,0,0,0-0.1,0h-7.9v-1.8h21.3v1.8h-7.2c-0.4,0-0.7,0.3-0.7,0.6s0.3,0.7,0.7,0.7
			l0,0h7.2L-947.4-183.3L-947.4-183.3z M-944.1-189.1h-2v-1.6h2.1c0.4,0,0.8,0.4,0.8,0.8S-943.6-189.1-944.1-189.1L-944.1-189.1z"/>
		<path id="Path_47" class="st0" d="M-940.6-200c0-0.9-0.4-1.7-1-2.2c0,0,0,0,0-0.1c0-1.4-1.2-2.6-2.6-2.6c-1.3,0-2.4,1-2.5,2.2
			c-0.5-0.8-1.3-1.4-2.2-1.4l-6.7-0.7c0.4-1.1-0.1-2.3-1.1-2.8c-0.4-0.2-0.8-0.2-1.2-0.1l-3.2,0.6c-1.2,0.2-1.9,1.3-1.7,2.5
			c0.1,0.4,0.3,0.8,0.6,1.1l-6,3.1c-1.2,0.6-1.8,1.9-1.6,3.2c0.1,0.3,0.3,0.6,0.7,0.6h0.1l22.1-4.1h1c0.4,0,0.7-0.3,0.7-0.7l0,0
			v-0.7c0-0.7,0.6-1.2,1.3-1.2s1.2,0.6,1.2,1.2c0,0.1,0,0.2,0,0.2c-0.1,0.3,0.1,0.6,0.3,0.7c0.7,0.4,0.9,1.3,0.5,2
			c-0.1,0.2-0.3,0.4-0.5,0.5s-0.4,0.4-0.3,0.7c0,0.1,0,0.2,0,0.2c0,0.7-0.6,1.2-1.3,1.2s-1.2-0.6-1.2-1.2c0-0.1,0-0.4,0-0.8
			c0-0.4-0.3-0.7-0.7-0.7l0,0h-3.5c-0.4,0-0.7,0.3-0.7,0.6s0.3,0.7,0.7,0.7l0,0h2.8c0,0.1,0,0.1,0,0.1c0,1.4,1.2,2.6,2.6,2.6
			s2.6-1.2,2.6-2.6c0,0,0,0,0-0.1C-941.1-198.3-940.6-199.1-940.6-200L-940.6-200z M-961.6-205.5c0.1-0.2,0.3-0.3,0.5-0.3l3.2-0.6
			h0.1c0.4,0,0.8,0.4,0.8,0.8c0,0.4-0.3,0.7-0.6,0.8l-1.1,0.2l-2.2,0.4c-0.4,0.1-0.8-0.2-0.9-0.6
			C-961.9-205.1-961.8-205.3-961.6-205.5L-961.6-205.5z M-968.8-198.3c0.1-0.4,0.4-0.8,0.8-1l7-3.6l0.3-0.1l0,0l3.2-0.6l0,0l0.3-0.1
			l7.8,0.9c0.4,0.1,0.9,0.3,1.1,0.7L-968.8-198.3z"/>
	</g>
    </g>
</symbol>
<symbol id="Beauty" viewBox="0 0 30 32">
    <g id="Group_59" transform="translate(1104.002 208)">
	<g id="Group_46" transform="translate(13.567 17.405)">
		<g id="Group_45">
			<path id="Path_49" class="st0" d="M-1103-207c-0.3-0.1-0.7,0-0.8,0.3l-0.1,0.2c-0.1,0.3,0,0.6,0.2,0.8c0.3,0.1,0.6,0,0.8-0.2l0,0
				l0.1-0.2C-1102.6-206.5-1102.7-206.9-1103-207z"/>
		</g>
	</g>
	<g id="Group_48" transform="translate(4.217 13.846)">
		<g id="Group_47">
			<path id="Path_50" class="st0" d="M-1100.3-206.9c-0.2-0.2-0.6-0.2-0.8,0c-0.5,0.5-1.3,0.5-1.8,0c-0.2-0.2-0.6-0.2-0.8,0
				s-0.2,0.6,0,0.8c1,1,2.5,1,3.5,0C-1100.1-206.3-1100.1-206.6-1100.3-206.9L-1100.3-206.9z"/>
		</g>
	</g>
	<g id="Group_50" transform="translate(-0.002 0)">
		<g id="Group_49">
			<path id="Path_51" class="st0" d="M-1076.1-205.5c-2.1-2.1-5.5-2.1-7.6,0c-0.7-0.3-1.4-0.6-2.1-0.8c-1.5-0.5-3-0.7-4.6-0.7
				c-3.2,0-6,1.4-7.3,3.5c-0.2,0.3-0.3,0.6-0.4,0.9c-2.1,2-3.3,4.7-3.4,7.5c0.1,1.8-0.7,3.6-2.1,4.7c-0.5,0.4-0.6,1.1-0.2,1.5
				c0.1,0.1,0.2,0.2,0.3,0.3c0.3,0.2,0.6,0.3,0.9,0.5c0.3,0.1,0.7,0.3,0.9,0.4v1.1c0,0.1,0,0.3-0.1,0.4l-0.1,0.4
				c-0.2,0.5-0.1,1.1,0.2,1.5v0.1c0,0.4,0.2,0.7,0.4,1v0.7c0,1.5,1.2,2.7,2.7,2.7h1.8c0.3,0,0.6-0.3,0.6-0.6s-0.3-0.6-0.6-0.6l0,0
				h-1.8c-0.8,0-1.5-0.7-1.5-1.5v-1c0-0.2-0.1-0.4-0.4-0.5l0,0l-0.1-0.1v-0.3c0-0.1,0-0.3-0.1-0.4l-0.1-0.1c-0.1-0.1-0.1-0.2,0-0.3
				l0.1-0.4c0.1-0.3,0.2-0.6,0.2-0.9v-1.3c0-0.6-0.6-0.9-1.5-1.3c-0.2-0.1-0.5-0.2-0.7-0.4c1.6-1.4,2.5-3.4,2.4-5.6
				c0.1-1.9,0.7-3.8,1.9-5.3c0.1,1.1,0.4,2.2,0.9,3.2c1.5,2.9,4.2,4.1,6.3,5c2,0.9,3.2,1.5,3.2,2.7c0.1,0.7-0.1,1.4-0.6,1.9
				c-0.3,0.3-0.7,0.4-1.1,0.4c-0.2,0-0.4,0.1-0.5,0.2c-0.1,0.2-0.2,0.4-0.1,0.6c0.3,0.9,0.8,1.7,1.4,2.4c1.1,1.4,2.7,2.2,4.4,2.2
				l1.6,4.7c0.1,0.2,0.3,0.4,0.6,0.4c0.1,0,0.1,0,0.2,0c0.3-0.1,0.5-0.4,0.4-0.8l0,0l-1.6-4.6c2.9-1.5,5.1-4.1,6-7.1
				c0.8-2.6,0.8-5.3,0.2-7.9c2.5-1.5,3.4-4.9,1.8-7.4C-1075.5-204.8-1075.8-205.2-1076.1-205.5z M-1078.4-189.6
				c-0.9,2.9-3,5.3-5.8,6.6c-1.5,0.1-2.9-0.6-3.8-1.8c-0.4-0.4-0.7-0.9-0.9-1.4c0.4-0.1,0.8-0.3,1.1-0.6c0.7-0.8,1.1-1.8,1-2.8
				c0-2-1.9-2.9-3.9-3.8c-2.1-0.9-4.4-2-5.8-4.5c-0.8-1.3-1-2.9-0.6-4.3l0,0c0.1-0.3,0.2-0.6,0.4-0.8c1.1-1.8,3.5-2.9,6.3-2.9l0,0
				c1.4,0,2.8,0.2,4.2,0.7c2.8,0.8,5.2,2.7,6.6,5.3C-1077.8-196.8-1077.4-193-1078.4-189.6z M-1077.5-198.3c-0.3-0.8-0.6-1.5-1-2.2
				c-1-1.8-2.4-3.3-4.1-4.4c1.8-1.5,4.4-1.2,5.9,0.6c1.3,1.6,1.2,4-0.2,5.6C-1077.1-198.5-1077.3-198.4-1077.5-198.3z"/>
		</g>
	</g>
	<g id="Group_52" transform="translate(6.393 18.896)">
		<g id="Group_51">
			<path id="Path_52" class="st0" d="M-1095.1-198.1l-1.9-3.2l-0.1-2.2c-0.1-1.8-1.5-3.4-3.3-3.5c-1.4-0.1-2.6,0.6-3.2,1.9v0.1
				c-0.8,1.6-0.2,3.6,1.3,4.6l1.8,1.2l2,3.5c0.2,0.3,0.5,0.4,0.8,0.2s0.4-0.5,0.2-0.8l0,0l-1.8-3.1l0.7-0.4l0.7-0.4l1.6,2.8
				c0.2,0.3,0.5,0.4,0.8,0.2C-1095.1-197.5-1095-197.8-1095.1-198.1L-1095.1-198.1z M-1100-200.5l-1.7-1.1c-1-0.7-1.4-2-0.9-3.1
				v-0.1c0.3-0.7,1.1-1.2,1.9-1.2c0.1,0,0.1,0,0.2,0c1.2,0.1,2.2,1.1,2.2,2.4l0.1,2L-1100-200.5z"/>
		</g>
	</g>
	<g id="Group_54" transform="translate(15.113 29.234)">
		<g id="Group_53">
			<path id="Path_53" class="st0" d="M-1103-206.9c-0.2-0.2-0.6-0.2-0.8,0s-0.2,0.6,0,0.8s0.6,0.2,0.8,0c0.1-0.1,0.2-0.3,0.2-0.4
				C-1102.8-206.6-1102.9-206.8-1103-206.9z"/>
		</g>
	</g>
	<g id="Group_56" transform="translate(8.174 3.122)">
		<g id="Group_55">
			<path id="Path_54" class="st0" d="M-1100.9-206.7c-0.1-0.3-0.5-0.4-0.8-0.3l0,0c-1.8,0.6-2.8,2.6-2.1,4.4
				c0.1,0.3,0.2,0.5,0.3,0.7c0.2,0.3,0.5,0.4,0.8,0.3c0.3-0.1,0.4-0.5,0.3-0.8l0,0c-0.4-0.6-0.5-1.4-0.3-2.1
				c0.3-0.7,0.8-1.2,1.5-1.4C-1100.9-206-1100.8-206.4-1100.9-206.7L-1100.9-206.7z"/>
		</g>
	</g>
	<g id="Group_58" transform="translate(12.084 2.734)">
		<g id="Group_57">
			<path id="Path_55" class="st0" d="M-1103.4-207.1L-1103.4-207.1c-0.4,0-0.6,0.3-0.6,0.6s0.3,0.6,0.6,0.6l0,0
				c0.3,0,0.6-0.3,0.6-0.6S-1103-207.1-1103.4-207.1L-1103.4-207.1L-1103.4-207.1z"/>
		</g>
	</g>
    </g>
</symbol>
<symbol id="Perfumes" viewBox="0 0 30 31">
    <g id="Group_71_1_" transform="translate(1236 208)">
        <g id="Group_62_1_" transform="translate(12.465 15.433)">
            <g id="Group_61_1_">
                <path id="Path_56_1_" class="st0" d="M-1234.5-206.8c-0.1-0.2-0.4-0.4-0.7-0.2c-0.2,0.1-0.4,0.4-0.2,0.6c0.7,1.8,1.1,3.6,1,5.6
                    c0,1.7-0.2,3.4-0.8,5c-0.1,0.3,0,0.6,0.3,0.7s0.6,0,0.7-0.3l0,0c0.6-1.7,0.9-3.5,0.9-5.3
                    C-1233.4-202.8-1233.7-204.9-1234.5-206.8z"/>
            </g>
        </g>
        <g id="Group_64_1_" transform="translate(6.688 15.434)">
            <g id="Group_63_1_">
                <path id="Path_57_1_" class="st0" d="M-1234.2-207c-0.3-0.1-0.6,0-0.7,0.3l0,0c-0.3,0.6-0.5,1.3-0.6,1.9
                    c-0.1,0.3,0.1,0.6,0.4,0.6h0.1c0.2,0,0.4-0.2,0.5-0.4c0.1-0.6,0.3-1.2,0.6-1.7C-1233.8-206.6-1233.9-206.9-1234.2-207
                    L-1234.2-207z"/>
            </g>
        </g>
        <g id="Group_66_1_" transform="translate(6.237 19.133)">
            <g id="Group_65_1_">
                <path id="Path_58_1_" class="st0" d="M-1233.7-199.5c-0.5-1.6-0.8-3.3-0.8-5c0-0.7,0-1.3,0.1-2c0-0.3-0.2-0.5-0.5-0.6
                    c-0.3,0-0.5,0.2-0.6,0.4c-0.1,0.7-0.1,1.4-0.1,2.1c0,1.8,0.3,3.6,0.9,5.3c0.1,0.3,0.4,0.4,0.6,0.3S-1233.6-199.2-1233.7-199.5
                    L-1233.7-199.5z"/>
            </g>
        </g>
        <g id="Group_68_1_">
            <g id="Group_67_1_">
                <path id="Path_59_1_" class="st0" d="M-1206.1-199v-7.6c0-0.3-0.2-0.5-0.5-0.5h-1.7c-0.3,0-0.5,0.2-0.5,0.5s0.2,0.5,0.5,0.5h1.2
                    v6.6h-11v-6.6h8.1c0.3,0,0.5-0.2,0.5-0.5s-0.2-0.5-0.5-0.5c0,0,0,0-0.1,0h-8.6c-0.3,0-0.5,0.2-0.5,0.5v7.6c0,0.3,0.2,0.5,0.5,0.5
                    h1.8v0.9h-1.8c-0.3,0-0.5,0.2-0.5,0.5v5.4c-0.9-0.9-2-1.5-3.2-1.9v-4c0-0.3-0.2-0.5-0.5-0.5h-0.3v-3.3c0-0.3-0.2-0.5-0.5-0.5h-3
                    c-0.3,0-0.5,0.2-0.5,0.5v1.3h-1.2c-0.4-1.6-1.9-2.7-3.6-2.6c-1.9-0.1-3.5,1.3-3.6,3.1c0.1,1.9,1.8,3.2,3.6,3.1
                    c1.7,0.1,3.2-1,3.6-2.6h1.2v1.1h-0.3c-0.3,0-0.5,0.2-0.5,0.5v4c-4.5,1.6-7,6.5-5.4,11c0.2,0.6,0.5,1.2,0.8,1.7
                    c0.1,0.2,0.5,0.3,0.7,0.2c0.2-0.2,0.3-0.4,0.2-0.7c-2.2-3.6-1-8.3,2.6-10.5c3.3-2,7.5-1.2,9.9,1.7v9.6c-0.6,0.8-1.4,1.4-2.3,1.9
                    h-7.4c-0.7-0.4-1.3-0.8-1.8-1.4c-0.2-0.2-0.5-0.2-0.7,0s-0.2,0.5,0,0.7l0,0c0.6,0.7,1.4,1.2,2.2,1.7c0.1,0,0.2,0.1,0.2,0.1h7.7
                    c0.1,0,0.2,0,0.2-0.1c0.7-0.4,1.3-0.8,1.9-1.4v0.9c0,0.3,0.2,0.5,0.5,0.5h12c0.3,0,0.5-0.2,0.5-0.5V-197c0-0.3-0.2-0.5-0.5-0.5
                    h-1.8v-0.9h1.8C-1206.4-198.5-1206.1-198.7-1206.1-199L-1206.1-199z M-1231.9-197.5c-1.3,0.1-2.4-0.8-2.6-2.1
                    c0.2-1.3,1.3-2.2,2.6-2.1c1.3-0.1,2.5,0.8,2.6,2.1C-1229.4-198.3-1230.6-197.4-1231.9-197.5z M-1226.1-200.9h1.9v2.8h-1.9V-200.9
                    z M-1223.3-193.8c-0.6-0.1-1.2-0.2-1.8-0.2s-1.2,0.1-1.8,0.2v-3.2h3.6V-193.8z M-1215.8-198.5h6.3v0.9h-6.3V-198.5z
                    M-1207.1-196.5v17.9h-11v-17.9H-1207.1L-1207.1-196.5z"/>
            </g>
        </g>
        <g id="Group_70_1_" transform="translate(18.935 13.748)">
            <g id="Group_69_1_">
                <path id="Path_60_1_" class="st0" d="M-1228.1-204.1c0.3,0,0.5-0.2,0.5-0.5v-1.9c0-0.3-0.2-0.5-0.5-0.5h-6.9
                    c-0.3,0-0.5,0.2-0.5,0.5v10.4c0,0.3,0.2,0.5,0.5,0.5h6.9c0.3,0,0.5-0.2,0.5-0.5v-6.8c0-0.3-0.2-0.5-0.5-0.5s-0.5,0.2-0.5,0.5v6.3
                    h-5.8v-9.4h5.8v1.4C-1228.6-204.3-1228.4-204.1-1228.1-204.1L-1228.1-204.1z"/>
            </g>
        </g>
    </g>
</symbol>
<symbol id="Baby" viewBox="0 0 30 32">
    <g id="Group_26_1_" transform="translate(1365.316 228.092)">
	<path id="Path_38_1_" class="st0" d="M-1339.3-205.4c-0.9,0-1.8,0.3-2.5,0.9l-4-4h6.3c1.3,0,2.4-0.9,2.7-2.1l1.4-5.8v-0.1l0,0l0,0
		c-0.1-3.1-1.3-6-3.5-8.1l0,0l0,0c-2.2-2.1-5.1-3.3-8.1-3.3c-0.3,0-0.5,0.2-0.5,0.5l0,0v9.2c-0.7,0.2-1.2,0.7-1.3,1.4h-5.6l-3.8-3.8
		c-0.1-0.1-0.2-0.1-0.3-0.1h-5.8c-0.3,0-0.5,0.2-0.4,0.5c0,0.2,0.2,0.4,0.4,0.4h5.6l3,3h-2.6c-0.1,0-0.3,0.1-0.4,0.2
		c-0.1,0.1-0.1,0.3-0.1,0.4l1.4,5.8c0.3,1.3,1.4,2.1,2.7,2.1h6.3l-4,4c-1.8-1.4-4.3-1.1-5.7,0.6c-1.4,1.8-1.1,4.3,0.6,5.7
		c0.7,0.6,1.6,0.9,2.5,0.9c2.1,0,3.8-1.6,4-3.6h7.2c0.2,2.2,2.2,3.8,4.5,3.6s3.8-2.2,3.6-4.5
		C-1335.6-203.8-1337.3-205.4-1339.3-205.4L-1339.3-205.4z M-1343.3-201.8h-7.2c-0.1-0.8-0.4-1.4-0.8-2l4.4-4.4l4.4,4.4
		C-1342.9-203.2-1343.2-202.5-1343.3-201.8L-1343.3-201.8z M-1336.2-217h-8.9c0-0.2-0.1-0.3-0.2-0.5l6.2-6.2
		C-1337.4-221.8-1336.4-219.5-1336.2-217L-1336.2-217z M-1339.8-224.3l-6.2,6.2c-0.1-0.1-0.3-0.2-0.5-0.2v-8.7
		C-1344-226.9-1341.6-225.9-1339.8-224.3L-1339.8-224.3z M-1346.9-217.4c0.5,0,0.9,0.4,0.9,0.9s-0.4,0.9-0.9,0.9s-0.9-0.4-0.9-0.9
		l0,0C-1347.9-217-1347.5-217.4-1346.9-217.4L-1346.9-217.4z M-1348.7-216c0.3,1,1.3,1.6,2.3,1.4c0.7-0.2,1.2-0.7,1.4-1.4h8.8
		l-1.3,5.2c-0.2,0.8-1,1.4-1.8,1.4h-7.3l-6.6-6.6L-1348.7-216z M-1356.2-210.9l-1.3-5.2h2.9l6.6,6.6h-6.3
		C-1355.3-209.4-1356-210-1356.2-210.9z M-1354.5-198.2c-1.7,0-3.1-1.4-3.1-3.1s1.4-3.1,3.1-3.1l0,0c0.7,0,1.3,0.2,1.9,0.6l-2.2,2.2
		c-0.2,0.2-0.2,0.5,0,0.7s0.4,0.2,0.6,0l2.2-2.2c0.4,0.5,0.6,1.2,0.6,1.9C-1351.4-199.6-1352.8-198.2-1354.5-198.2L-1354.5-198.2z
		 M-1339.3-198.2c-1.7,0-3.1-1.4-3.1-3.1c0-0.7,0.2-1.3,0.6-1.9l2.2,2.2c0.2,0.2,0.5,0.2,0.6,0l0,0c0.2-0.2,0.2-0.5,0-0.7l-2.2-2.2
		c1.4-1,3.3-0.7,4.4,0.7s0.7,3.3-0.7,4.4C-1338-198.4-1338.7-198.2-1339.3-198.2L-1339.3-198.2z"/>
    </g>
</symbol>
<symbol id="toys" viewBox="0 0 28 28">
    <g id="Group_60_1_" transform="translate(1463 208)">
        <path id="XMLID_12_" class="st0" d="M-1438.4-208h-8.3c-1,0-1.9,0.5-2.5,1.3c-0.6-0.8-1.5-1.3-2.5-1.3h-8.3c-1.7,0-3,1.4-3,3v8.3
            c0,1,0.5,1.9,1.3,2.5c-0.8,0.6-1.3,1.5-1.3,2.5v8.3c0,1.7,1.3,3,3,3h8.3c1,0,1.9-0.5,2.5-1.3c0.6,0.8,1.5,1.3,2.5,1.3h8.3
            c1.7,0,3-1.3,3-3v-8.3c0-1-0.5-1.9-1.3-2.5c0.8-0.6,1.3-1.5,1.3-2.5v-1.7c0-0.3-0.2-0.5-0.5-0.5s-0.5,0.2-0.5,0.5l0,0v1.7
            c0,1.1-0.9,1.9-1.9,1.9h-8.3c-1.1,0-1.9-0.9-1.9-1.9v-8.3c0-1.1,0.9-1.9,1.9-1.9h8.3c1.1,0,1.9,0.9,1.9,1.9v1.7
            c0,0.3,0.2,0.5,0.5,0.5s0.5-0.2,0.5-0.5l0,0v-1.7C-1435.4-206.6-1436.7-208-1438.4-208z M-1461.9-196.6v-8.3c0-1.1,0.9-1.9,1.9-1.9
            h8.3c1.1,0,1.9,0.9,1.9,1.9v8.3c0,1.1-0.9,1.9-1.9,1.9h-8.3C-1461-194.7-1461.9-195.6-1461.9-196.6z M-1451.7-181.4h-8.3
            c-1.1,0-1.9-0.9-1.9-1.9v-8.3c0-1.1,0.9-1.9,1.9-1.9h8.3c1.1,0,1.9,0.9,1.9,1.9v8.3C-1449.7-182.3-1450.6-181.4-1451.7-181.4z
            M-1438.4-193.6c1.1,0,1.9,0.9,1.9,1.9v8.3c0,1.1-0.9,1.9-1.9,1.9h-8.3c-1.1,0-1.9-0.9-1.9-1.9v-8.3c0-1.1,0.9-1.9,1.9-1.9H-1438.4
            z M-1448.4-194.2c-0.3,0.2-0.5,0.5-0.8,0.8c-0.2-0.3-0.5-0.6-0.8-0.8c0.3-0.2,0.6-0.5,0.8-0.8
            C-1449-194.6-1448.7-194.4-1448.4-194.2z"/>
        <path id="XMLID_11_" class="st0" d="M-1455.8-191.7c-2.3,0-4.1,1.9-4.1,4.1s1.9,4.1,4.1,4.1s4.1-1.9,4.1-4.1l0,0
            C-1451.7-189.8-1453.5-191.7-1455.8-191.7z M-1455.8-184.5c-1.7,0-3.1-1.4-3.1-3.1c0-1.7,1.4-3.1,3.1-3.1s3.1,1.4,3.1,3.1
            C-1452.7-185.8-1454.1-184.5-1455.8-184.5z"/>
        <path id="XMLID_10_" class="st0" d="M-1446.4-187.4l1.3,1l-0.5,1.6c-0.2,0.6,0.1,1.2,0.7,1.4c0.3,0.1,0.7,0.1,1-0.2l1.3-1l1.3,1
            c0.4,0.3,0.9,0.3,1.3,0c0.4-0.3,0.6-0.8,0.4-1.2l-0.5-1.6l1.3-1c0.5-0.4,0.6-1,0.3-1.5c-0.2-0.3-0.6-0.5-0.9-0.5h-1.7l-0.5-1.6
            c-0.2-0.6-0.8-0.9-1.4-0.7c-0.3,0.1-0.6,0.4-0.7,0.7l-0.5,1.6h-1.7c-0.6,0-1.1,0.5-1.1,1.1
            C-1446.8-187.9-1446.7-187.6-1446.4-187.4L-1446.4-187.4z M-1445.8-188.3L-1445.8-188.3h2.1c0.2,0,0.4-0.1,0.5-0.4l0.6-1.9l0,0l0,0
            l0,0l0.6,1.9c0.1,0.2,0.3,0.4,0.5,0.4h2l0,0l0,0l0,0l-1.6,1.2c-0.2,0.1-0.3,0.4-0.2,0.6l0.6,1.9l0,0l0,0l0,0l-1.6-1.2
            c-0.2-0.1-0.5-0.1-0.6,0l-1.6,1.2l0,0l0,0l0,0l0.6-1.9c0.1-0.2,0-0.5-0.2-0.6L-1445.8-188.3L-1445.8-188.3L-1445.8-188.3
            L-1445.8-188.3z"/>
        <path id="XMLID_9_" class="st0" d="M-1454.9-203.9c-0.4-0.6-1.2-0.9-1.8-0.5c-0.2,0.1-0.4,0.3-0.5,0.5l-2.5,4.4
            c-0.4,0.6-0.1,1.4,0.5,1.8c0.2,0.1,0.4,0.2,0.6,0.2h5c0.7,0,1.3-0.6,1.3-1.3c0-0.2-0.1-0.5-0.2-0.7L-1454.9-203.9z M-1453.4-198.8
            c0,0.1-0.1,0.1-0.2,0.1h-5c-0.1,0-0.2-0.1-0.2-0.2v-0.1l2.5-4.4c0.1-0.1,0.2-0.2,0.3-0.1l0.1,0.1l2.5,4.4
            C-1453.3-198.9-1453.3-198.8-1453.4-198.8z"/>
        <path id="XMLID_8_" class="st0" d="M-1441.6-204.6c-0.5-0.5-1.4-0.5-1.9,0l-2.8,2.8c-0.5,0.5-0.5,1.4,0,1.9l2.8,2.8
            c0.5,0.5,1.4,0.5,1.9,0l2.8-2.8c0.5-0.5,0.5-1.4,0-1.9L-1441.6-204.6z M-1439.5-200.6l-2.8,2.8c-0.1,0.1-0.3,0.1-0.4,0l-2.8-2.8
            c-0.1-0.1-0.1-0.3,0-0.4l2.8-2.8c0.1-0.1,0.3-0.1,0.4,0l2.8,2.8C-1439.4-200.9-1439.4-200.7-1439.5-200.6z"/>
        <path id="XMLID_7_" class="st0" d="M-1435.9-201.3c-0.3,0-0.5,0.2-0.5,0.5s0.2,0.5,0.5,0.5s0.5-0.2,0.5-0.5c0-0.1-0.1-0.3-0.2-0.4
            C-1435.7-201.3-1435.8-201.3-1435.9-201.3z"/>
    </g>
</symbol>
</svg>
=======
<svg xmlns="http://www.w3.org/2000/svg">
  <symbol id="Electronics" viewBox="0 0 78.2 73">
    <g id="Group_40" transform="translate(23.322 -0.877)">
	<g id="Group_39" transform="translate(439.678 208.878)">
		<g id="Group_28" transform="translate(0 6.755)">
			<g id="Group_27" transform="translate(0)">
				<path id="Path_39" class="st0" d="M-436.9-169.1c-0.9-0.9-2.1-1.1-3.2-0.5c-3.8-5.4-3.8-12.5,0-17.9c0.2-0.3,0.2-0.7-0.1-0.9
					c-0.3-0.2-0.7-0.2-0.9,0.1c0,0,0,0,0,0.1c-4.1,5.9-4.1,13.7,0,19.5c-0.9,1.2-0.6,3,0.6,3.9s3,0.6,3.9-0.6
					C-435.8-166.6-435.9-168.1-436.9-169.1z M-437.8-166.1c-0.6,0.6-1.5,0.6-2.1,0s-0.6-1.5,0-2.1c0.6-0.6,1.5-0.6,2.1,0
					C-437.2-167.6-437.2-166.6-437.8-166.1L-437.8-166.1L-437.8-166.1z"/>
			</g>
		</g>
		<g id="Group_30" transform="translate(9.059 3.377)">
			<g id="Group_29">
				<path id="Path_40" class="st0" d="M-426.5-162.4c-0.2-0.3-0.6-0.4-0.9-0.2l0,0c-1.9,1.4-4,2.3-6.3,2.7c-1,0.2-1.9-0.5-2.1-1.4
					c0-0.1,0-0.2,0-0.3v-4.8h0.1c0.8,0,1.4-0.6,1.4-1.4v-1.1c2.3-0.9,3.8-3.1,3.8-5.5v-3.1c1.3-0.4,2.1-1.7,1.8-3.1
					c-0.3-1-1.1-1.7-2.1-1.8v-4.1c0-1.1-0.9-2-2-2s-2,0.9-2,2v4.1h-3.3v-4.1c0-1.1-0.9-2-2-2s-2,0.9-2,2v4.1
					c-1.4,0.2-2.3,1.4-2.1,2.8c0.1,1,0.9,1.8,1.8,2.1v3.1c0,2.4,1.5,4.6,3.8,5.5v1.1c0,0.8,0.6,1.4,1.4,1.4h0.1v4.8
					c0,1.7,1.4,3.1,3.1,3.1c0.2,0,0.4,0,0.6-0.1c2.5-0.4,4.8-1.4,6.8-2.9C-426.4-161.7-426.3-162.1-426.5-162.4z M-433.5-186.6
					c0-0.4,0.3-0.6,0.7-0.6c0.3,0,0.6,0.3,0.6,0.6v4.1h-1.3V-186.6z M-440.8-186.6c0-0.4,0.3-0.7,0.7-0.7s0.7,0.3,0.7,0.7v4.1h-1.3
					L-440.8-186.6L-440.8-186.6z M-442.9-180c0-0.6,0.5-1.2,1.2-1.2h10.5c0.6,0,1.2,0.5,1.2,1.1c0,0.6-0.5,1.2-1.1,1.2
					c0,0,0,0-0.1,0h-10.5C-442.4-178.8-442.9-179.4-442.9-180L-442.9-180L-442.9-180z M-441.1-174.5v-3h9.2v3
					c0.1,2.5-1.9,4.7-4.4,4.8s-4.7-1.9-4.8-4.4C-441.1-174.2-441.1-174.4-441.1-174.5z M-436.5-167.8h-0.8c0,0-0.1,0-0.1-0.1v-0.8
					c0.3,0,0.5,0.1,0.8,0.1c0.3,0,0.5,0,0.8-0.1v0.8c0,0,0,0.1-0.1,0.1H-436.5z"/>
			</g>
		</g>
		<g id="Group_32" transform="translate(27.567 27.532)">
			<g id="Group_31">
				<path id="Path_41" class="st0" d="M-443.1-188.4c-0.3-0.2-0.7-0.2-0.9,0l0,0c-0.2,0.3-0.2,0.7,0,0.9c0.3,0.2,0.6,0.2,0.9,0l0,0
					C-442.9-187.7-442.9-188.1-443.1-188.4L-443.1-188.4z"/>
			</g>
		</g>
		<g id="Group_34" transform="translate(6.799 0)">
			<g id="Group_33" transform="translate(0 0)">
				<path id="Path_42" class="st0" d="M-417.5-173c-0.7-9.3-8.8-16.2-18.1-15.5c-3,0.2-5.9,1.3-8.4,3c-0.3,0.2-0.4,0.6-0.2,0.9
					c0.2,0.3,0.6,0.4,0.9,0.2c0,0,0,0,0,0c6.2-4.3,14.5-3.6,19.9,1.7c5.4,5.4,6.1,13.9,1.6,20.1c-0.2,0.3-0.2,0.7,0.1,0.9
					c0.3,0.2,0.7,0.2,0.9-0.1c0,0,0,0,0,0C-418.3-165.1-417.2-169-417.5-173z"/>
			</g>
		</g>
		<g id="Group_36" transform="translate(4.641 4.771)">
			<g id="Group_35">
				<path id="Path_43" class="st0" d="M-443.1-188.4c-0.3-0.3-0.7-0.3-0.9,0l0,0l0,0c-0.3,0.3-0.2,0.7,0,0.9c0.3,0.3,0.7,0.2,0.9,0
					l0,0C-442.9-187.7-442.9-188.1-443.1-188.4z"/>
			</g>
		</g>
		<g id="Group_38" transform="translate(15.237 14.701)">
			<g id="Group_37">
				<path id="Path_44" class="st0" d="M-441.2-186.1c-0.1-0.2-0.3-0.3-0.6-0.3h-0.5l0.9-1.1c0.2-0.3,0.2-0.7-0.1-0.9
					s-0.7-0.2-0.9,0.1c0,0,0,0,0,0.1l-1.7,2.1c-0.2,0.3-0.2,0.7,0.1,0.9c0.1,0.1,0.3,0.1,0.4,0.1h0.7l-0.8,1.4
					c-0.2,0.3-0.1,0.7,0.2,0.9c0.3,0.2,0.7,0.1,0.9-0.2l1.4-2.4C-441.1-185.6-441.1-185.9-441.2-186.1z"/>
			</g>
		</g>
	</g>
</g>
    </symbol>
 
<symbol id="fashion" viewBox="0 0 78.2 73"> 
<g id="Group_74" transform="translate(610.992 207.997)">
	<g id="Group_73" transform="translate(0.008 0.004)">
		<g id="Group_72" transform="translate(0 0)">
			<path id="Path_61" class="st0" d="M-555.8-176.2l-5.5-5.5c-0.1-0.1-0.2-0.1-0.3-0.1l-6.1-1.1c-0.3-0.1-0.6,0.1-0.6,0.4l0,0
				c0,0,0,0.1,0,0.1c0,0.2,0,0.4,0,0.5l-3.8-1v-0.2c1.5-0.3,2.5-1.8,2.2-3.3s-1.8-2.5-3.3-2.2c-1.3,0.3-2.2,1.4-2.2,2.7h1.1
				c0-0.9,0.7-1.7,1.7-1.7c0.9,0,1.7,0.7,1.7,1.7s-0.7,1.7-1.7,1.7l0,0c-0.3,0-0.5,0.2-0.5,0.6l0,0v0.7l-3.8,1c0-0.2,0-0.4,0-0.5
				c0-0.2-0.1-0.3-0.2-0.4c-0.1-0.1-0.3-0.1-0.5-0.1l-6.1,1.1c-0.1,0-0.2,0.1-0.3,0.1l-5.5,5.5c-0.2,0.2-0.2,0.6,0,0.8l4.4,4.4
				c0.2,0.2,0.6,0.2,0.8,0l1.3-1.3v3.6h-3.9c-1.5,0-2.8,1.2-2.8,2.8c0,0.9,0.4,1.7,1.1,2.2c-1.2,0.9-1.5,2.6-0.6,3.8
				c0.2,0.2,0.4,0.4,0.6,0.6c-1.2,0.9-1.5,2.6-0.6,3.9c0.5,0.7,1.4,1.1,2.2,1.1h20c0.1,0,0.3-0.1,0.4-0.2l4.4-4.4
				c0.1-0.1,0.2-0.2,0.2-0.4l0,0v-13.1l1.3,1.3c0.2,0.2,0.6,0.2,0.8,0l4.4-4.4C-555.6-175.6-555.6-176-555.8-176.2L-555.8-176.2z
				 M-572.9-181.9l4,1c-0.8,1.4-2.4,2.3-4,2.2c-1.7,0.1-3.2-0.8-4-2.2L-572.9-181.9z M-588.9-165.8c0-0.9,0.7-1.7,1.7-1.7l0,0h12.2
				c0.9,0,1.7,0.7,1.7,1.7s-0.7,1.7-1.7,1.7h-12.2C-588.2-164.2-588.9-164.9-588.9-165.8L-588.9-165.8z M-588.9-161.4
				c0-0.9,0.7-1.7,1.7-1.7l0,0h12.2c0.9,0,1.7,0.7,1.7,1.7s-0.7,1.7-1.7,1.7h-12.2C-588.2-159.7-588.9-160.5-588.9-161.4
				L-588.9-161.4z M-575.1-155.3h-12.2c-0.9,0-1.7-0.7-1.7-1.7c0-0.9,0.7-1.7,1.7-1.7h12.2c0.9,0,1.7,0.7,1.7,1.7
				C-573.4-156-574.2-155.3-575.1-155.3L-575.1-155.3z M-564.2-158.6l-2.5,2.5 M-567.9-155.3h-5c0.9-1.2,0.7-2.9-0.5-3.8l0,0
				l-0.1-0.1c1.2-0.9,1.5-2.6,0.6-3.8c-0.2-0.2-0.4-0.4-0.6-0.6c1.2-0.9,1.5-2.6,0.6-3.9c-0.5-0.7-1.3-1.1-2.2-1.1h-7.2v-4.8
				l1.5-1.5l-0.8-0.8l-3.5,3.5l-3.7-3.6l5-5l5.3-1c0.5,2.6,2.9,4.4,5.5,4.3c2.6,0.1,5-1.7,5.5-4.3l5.3,1l5,5l-3.6,3.6l-3.5-3.5
				l-0.8,0.8l1.5,1.5v13.6"/>
		</g>
	</g>
</g>
</symbol>
<symbol id="sport" viewBox="0 0 78.2 73">
<g id="Group_75" transform="translate(737.002 208.004)">
	<path id="Path_62" class="st0" d="M-683.7-168.2c0-0.9-0.3-1.7-1-2.3l-6.2-6c-0.2-0.2-0.5-0.3-0.9-0.2c0,0-0.1,0-0.1,0l-7.7-9.6
		c-0.2-0.2-0.5-0.2-0.7,0c-0.2,0.2-0.2,0.5-0.1,0.7l7.8,9.8l-0.5,1.2l-4.8,3.7c-0.3,0.2-0.7,0.3-1.1,0.1l-0.5-0.2
		c-0.8-0.3-1.5-0.5-2.3-0.7l-0.1-2.4c0-0.5-0.2-1-0.6-1.3l-10.4-10.9c-0.2-0.2-0.5-0.2-0.7,0c-0.2,0.2-0.2,0.5,0,0.7l10.4,11
		c0.2,0.2,0.3,0.4,0.3,0.7l0.1,2.3c-0.5,0.2-1,0.6-1.1,1.2l-2.3,11.5c0,0.3-0.3,0.5-0.5,0.5l-3,0.7c-1.3,0.3-2.2,1.4-2.2,2.8v1.6
		c0,1,0.8,1.7,1.7,1.8h8.5c0.7,0,1.3-0.2,1.8-0.7l15.1-13.5C-684.1-166.5-683.7-167.3-683.7-168.2z M-687-171.4l-5.7,6.3
		c-0.1-1.4-0.1-2.7,0-4.1l0.5-4.8c0.1-0.1,0.1-0.1,0.2-0.2l0.6-1.5L-687-171.4z M-694.6-172.1l0.1-0.1l-1.2,4.6
		c-0.5,2.1-0.7,4.2-0.5,6.4l-2.5,2.7c0.5-3.5,1.4-7,2.7-10.3L-694.6-172.1z M-695.3-162.3c-0.1-1.7,0.1-3.4,0.5-5l1.4-5.1l-0.3,3.1
		c-0.2,1.7-0.1,3.5,0.1,5.2L-695.3-162.3z M-685.4-166.7l-15.1,13.5c-0.3,0.3-0.7,0.4-1.1,0.4h-8.5c-0.4,0-0.7-0.3-0.7-0.7v-0.4h3.4
		c0.3,0,0.5-0.2,0.5-0.5s-0.2-0.5-0.5-0.5h-3.4v-0.1c0-0.9,0.6-1.6,1.4-1.8l3-0.7c0.7-0.1,1.2-0.7,1.3-1.3l0.4-1.8h1.2
		c0.3,0,0.5-0.2,0.5-0.5s-0.2-0.5-0.5-0.5h-1l0.2-1.1h1.5c0.3,0,0.5-0.2,0.5-0.5s-0.2-0.5-0.5-0.5h-1.3l0.2-1.1h0.6
		c0.3,0,0.5-0.2,0.5-0.5s-0.2-0.5-0.5-0.5h-0.4l0.2-1.1h1.9c0.3,0,0.5-0.2,0.5-0.5s-0.2-0.5-0.5-0.5h-1.7l0.5-2.2
		c0-0.2,0.3-0.4,0.5-0.4c0.9,0.1,1.7,0.3,2.5,0.7l0.5,0.2c0.7,0.3,1.5,0.2,2.1-0.3l0.9-0.7l-0.7,1.7c-1.6,3.8-2.5,7.9-2.9,12
		l-1.9,2.1c-0.1,0.1-0.2,0.2-0.4,0.2h-3.1c-0.3,0-0.5,0.2-0.5,0.5s0.2,0.5,0.5,0.5l0,0h3.1c0.4,0,0.8-0.2,1.1-0.5l2-2.2l0,0
		l12.7-14.1l1,0.9c0.8,0.8,0.9,2.2,0,3C-685.3-166.7-685.4-166.7-685.4-166.7L-685.4-166.7z"/>
	<path id="Path_63" class="st0" d="M-689.8-165.4l-0.9,0.9c-0.2,0.2-0.2,0.5,0,0.7c0.2,0.2,0.5,0.2,0.7,0l0.9-0.9
		c0.2-0.2,0.2-0.5,0-0.7C-689.3-165.6-689.6-165.6-689.8-165.4L-689.8-165.4z"/>
	<path id="Path_64" class="st0" d="M-686.7-168.6l-1.6,1.7c-0.2,0.2-0.2,0.5,0,0.7c0.2,0.2,0.5,0.2,0.7,0l1.6-1.7
		c0.2-0.2,0.2-0.5,0-0.7C-686.2-168.8-686.5-168.8-686.7-168.6z"/>
	<path id="Path_65" class="st0" d="M-701.4-160.7h0.5c0.3,0,0.5-0.2,0.5-0.5s-0.2-0.5-0.5-0.5h-0.5c-0.3,0-0.5,0.2-0.5,0.5
		S-701.7-160.7-701.4-160.7L-701.4-160.7z"/>
	<path id="Path_66" class="st0" d="M-701.2-165h0.6c0.3,0,0.5-0.2,0.5-0.5s-0.2-0.5-0.5-0.5h-0.6c-0.3,0-0.5,0.2-0.5,0.5
		S-701.4-165-701.2-165L-701.2-165z"/>
	<path id="Path_67" class="st0" d="M-693.9-182.4h3c0.3,0,0.5-0.2,0.5-0.5s-0.2-0.5-0.5-0.5h-3c-0.3,0-0.5,0.2-0.5,0.5
		S-694.2-182.4-693.9-182.4L-693.9-182.4z"/>
	<path id="Path_68" class="st0" d="M-688.4-182.4h0.8c0.3,0,0.5-0.2,0.5-0.5s-0.2-0.5-0.5-0.5h-0.8c-0.3,0-0.5,0.2-0.5,0.5
		C-688.9-182.7-688.6-182.4-688.4-182.4L-688.4-182.4z"/>
	<path id="Path_69" class="st0" d="M-682.6-179c0-0.3-0.2-0.5-0.5-0.5l0,0h-5.6c-0.3,0-0.5,0.2-0.5,0.5s0.2,0.5,0.5,0.5h5.6
		C-682.9-178.5-682.6-178.7-682.6-179L-682.6-179z"/>
	<path id="Path_70" class="st0" d="M-679.5-164.2h-3.1c-0.3,0-0.5,0.2-0.5,0.5s0.2,0.5,0.5,0.5l0,0h3.1c0.3,0,0.5-0.2,0.5-0.5
		S-679.2-164.2-679.5-164.2L-679.5-164.2z"/>
	<path id="Path_71" class="st0" d="M-686.8-158.5h-3.1c-0.3,0-0.5,0.2-0.5,0.5s0.2,0.5,0.5,0.5l0,0h3.1c0.3,0,0.5-0.2,0.5-0.5
		S-686.5-158.5-686.8-158.5L-686.8-158.5z"/>
	<path id="Path_72" class="st0" d="M-683.8-158.5h-0.7c-0.3,0-0.5,0.2-0.5,0.5s0.2,0.5,0.5,0.5h0.7c0.3,0,0.5-0.2,0.5-0.5
		S-683.5-158.5-683.8-158.5z"/>
</g>
</symbol>

<symbol id="home"  viewBox="0 0 78.2 73">
<g id="Group_44" transform="translate(850 214)">
	<g id="Group_43">
		<path id="Path_48" class="st0" d="M-791.8-184.8h-0.9v-3.3c0-1.9-1.6-3.5-3.5-3.5h-12.7c-1.1,0-2.2,0.6-2.9,1.5
			c-0.7-0.9-1.7-1.5-2.9-1.5h-8c-0.4,0-0.7,0.3-0.7,0.6s0.3,0.6,0.7,0.6h8c1.2,0,2.2,1,2.2,2.2v6.5l0,0c-0.8-0.7-1.8-1.1-2.9-1.1
			h-10.8c-0.1-0.9-0.6-1.6-1.5-1.9c-0.2-0.1-0.5-0.1-0.7-0.1h-1.2v-3.3c0-1.2,1-2.2,2.2-2.2h2.1c0.4,0,0.6-0.3,0.6-0.6
			s-0.3-0.6-0.6-0.6l0,0h-2.1c-1.9,0-3.5,1.6-3.5,3.5v3.3h-0.9c-1.2,0-2.2,1-2.2,2.2v6.8c0,2.5,2,4.6,4.6,4.6h0.3l-0.7,1.9
			c-0.4,1,0.2,2.1,1.2,2.4c0.2,0.1,0.4,0.1,0.6,0.1h1c0.6,0,1.1-0.3,1.5-0.8l2.8-3.7h21.8l2.8,3.7c0.4,0.5,0.9,0.7,1.5,0.8h1
			c1,0,1.9-0.9,1.9-1.9c0-0.2,0-0.4-0.1-0.6l-0.7-1.9h0.3c2.5,0,4.6-2.1,4.6-4.6v-6.8C-789.6-183.8-790.5-184.8-791.8-184.8z
			 M-811.1-188c0-1.2,1-2.2,2.2-2.2h12.7c1.2,0,2.2,1,2.2,2.2v3.3h-1.2c-0.9,0-1.7,0.5-2,1.4c-0.1,0.2-0.2,0.5-0.2,0.7h-10.8
			c-1.1,0-2.1,0.4-2.9,1.2C-811.1-181.5-811.1-188-811.1-188z M-826.1-181.4h10.8c1.6,0,2.9,1.3,2.9,2.9v0.9h-13.7V-181.4z
			 M-826.4-168.3c-0.1,0.1-0.3,0.2-0.5,0.2h-1c-0.3,0-0.6-0.3-0.6-0.6c0-0.1,0-0.1,0-0.2l0.9-2.4h3.4L-826.4-168.3z M-795.5-168.1
			h-1c-0.2,0-0.3-0.1-0.5-0.2l-2.2-2.9h3.4l0.9,2.4c0.1,0.3,0,0.6-0.3,0.8C-795.4-168.1-795.4-168.1-795.5-168.1L-795.5-168.1z
			 M-794.1-172.5h-35.2c-1.8,0-3.3-1.5-3.3-3.3v-6.8c0-0.5,0.4-0.9,0.9-0.9h3.4c0.5,0,0.9,0.4,0.9,0.9v5.6c0,0.4,0.3,0.6,0.7,0.6
			h23.8c0.4,0,0.7-0.3,0.7-0.6s-0.3-0.6-0.7-0.6h-8.2v-0.9c0-1.6,1.3-2.9,2.9-2.9h10.8v3.8h-2.9c-0.4,0-0.7,0.3-0.7,0.6
			s0.3,0.6,0.7,0.6h3.6c0.4,0,0.7-0.3,0.7-0.6v-5.6c0-0.5,0.4-0.9,0.9-0.9l0,0h3.4c0.5,0,0.9,0.4,0.9,0.9l0,0v6.8l0,0
			C-790.9-174-792.3-172.5-794.1-172.5L-794.1-172.5z"/>
	</g>
</g>
</symbol>

<symbol id="kitchen" viewBox="0 0 78.2 73">
<g id="Group_42" transform="translate(975 207.996)">
	<g id="Group_41" transform="translate(0 0.004)">
		<path id="Path_45" class="st0" d="M-939.4-171.5c-0.4,0-0.7-0.3-0.7-0.7s0.3-0.7,0.7-0.7c0.4,0,0.7,0.3,0.7,0.7c0,0,0,0.1,0,0.1
			C-938.8-171.8-939.1-171.5-939.4-171.5z"/>
		<path id="Path_46" class="st0" d="M-925.7-172.9h-2v-2.5c0-0.4-0.3-0.7-0.7-0.7l0,0h-22.6c-0.4,0-0.7,0.3-0.7,0.7l0,0v2.5h-2
			c-1.2,0-2.2,1-2.2,2.1c0,1.2,1,2.1,2.2,2.1h2v4.4c0,2.5,2,4.5,4.5,4.5h1c0,0.4,0.1,0.9,0.3,1.2h-1.2c-1.5,0-2.8,1.2-2.8,2.8v0.5
			h-1.3c-0.4,0-0.7,0.3-0.7,0.6c0,0.4,0.3,0.7,0.6,0.7c0,0,0,0,0,0h22.8c0.4,0,0.7-0.3,0.7-0.6c0-0.4-0.3-0.7-0.7-0.7c0,0,0,0,0,0
			h-1.3v-0.5c0-1.5-1.2-2.8-2.8-2.8h-1.2c0.2-0.4,0.3-0.8,0.3-1.2h1c2.5,0,4.5-2,4.5-4.5v-4.5h2c1.2,0,2.2-1,2.2-2.1
			C-923.6-171.9-924.5-172.9-925.7-172.9L-925.7-172.9z M-953.8-169.9c-0.4,0-0.8-0.4-0.8-0.8c0-0.4,0.4-0.8,0.8-0.8h2v1.6H-953.8z
			 M-944.9-159.7c0.2-0.8,0.6-1.6,1.3-2.1c0.6,0.6,1.1,1.3,1.3,2.1c0,0.7-0.6,1.3-1.3,1.3C-944.3-158.4-944.9-159-944.9-159.7
			L-944.9-159.7z M-939.7-158.4c-0.7,0-1.3-0.6-1.3-1.3c0.2-0.8,0.6-1.6,1.3-2.2c0.7,0.6,1.1,1.3,1.3,2.2
			C-938.5-159-939-158.4-939.7-158.4z M-931-155.6v0.5h-17.5v-0.5c0-0.8,0.6-1.4,1.4-1.4h14.6C-931.6-157-931-156.4-931-155.6
			L-931-155.6z M-937.1-159.7c0.2-0.8,0.6-1.6,1.3-2.1c0.6,0.6,1.1,1.3,1.3,2.1c0,0.7-0.6,1.3-1.3,1.3
			C-936.6-158.4-937.1-159-937.1-159.7z M-929.1-164.1c0,1.7-1.4,3.1-3.1,3.1h-1.3c-0.5-0.9-1.1-1.6-1.9-2.3c-0.2-0.2-0.6-0.2-0.9,0
			c-0.6,0.5-1.1,1-1.5,1.7c-0.4-0.6-0.9-1.2-1.5-1.7c-0.2-0.2-0.6-0.2-0.8,0c-0.6,0.5-1.1,1-1.5,1.7c-0.4-0.6-0.9-1.2-1.5-1.7
			c-0.2-0.2-0.6-0.2-0.9,0c-0.8,0.6-1.4,1.4-1.9,2.3h-1.4c-1.7,0-3.1-1.4-3.1-3.1v-7.4h7.9c0.4,0,0.7-0.3,0.7-0.6s-0.3-0.7-0.7-0.7
			c0,0,0,0,0,0h-7.9v-1.8h21.3v1.8h-7.2c-0.4,0-0.7,0.3-0.7,0.6s0.3,0.7,0.6,0.7c0,0,0,0,0,0h7.2L-929.1-164.1L-929.1-164.1z
			 M-925.7-169.9h-2v-1.6h2c0.4,0,0.8,0.4,0.8,0.8S-925.3-169.9-925.7-169.9L-925.7-169.9z"/>
		<path id="Path_47" class="st0" d="M-922.4-180.8c0-0.9-0.4-1.7-1-2.2c0,0,0,0,0-0.1c0-1.4-1.2-2.6-2.6-2.6c-1.3,0-2.4,1-2.5,2.2
			c-0.5-0.8-1.3-1.4-2.2-1.4l-6.7-0.7c0.5-1.1-0.1-2.3-1.2-2.8c-0.4-0.2-0.8-0.2-1.2-0.1l-3.2,0.6c-1.2,0.2-1.9,1.3-1.7,2.5
			c0.1,0.4,0.3,0.8,0.5,1.1l-6,3.1c-1.2,0.6-1.8,1.9-1.6,3.2c0.1,0.3,0.3,0.6,0.7,0.6c0,0,0.1,0,0.1,0l22.1-4.1h1
			c0.4,0,0.7-0.3,0.7-0.7v0c0,0,0-0.7,0-0.7c0-0.7,0.6-1.2,1.3-1.2c0.7,0,1.2,0.6,1.2,1.2c0,0.1,0,0.2,0,0.2
			c-0.1,0.3,0.1,0.6,0.3,0.7c0.7,0.4,1,1.3,0.5,2c-0.1,0.2-0.3,0.4-0.5,0.5c-0.2,0.1-0.4,0.4-0.3,0.7c0,0.1,0,0.2,0,0.2
			c0,0.7-0.6,1.2-1.3,1.2c-0.7,0-1.2-0.6-1.2-1.2c0-0.1,0-0.4,0-0.8c0-0.4-0.3-0.7-0.7-0.7h0h-3.5c-0.4,0-0.7,0.3-0.7,0.6
			s0.3,0.7,0.7,0.7c0,0,0,0,0,0h2.8c0,0.1,0,0.1,0,0.1c0,1.4,1.2,2.6,2.6,2.6s2.6-1.2,2.6-2.6c0,0,0,0,0-0.1
			C-922.7-179.1-922.4-179.9-922.4-180.8L-922.4-180.8z M-943.3-186.3c0.1-0.2,0.3-0.3,0.5-0.3l3.2-0.6c0,0,0.1,0,0.1,0
			c0.4,0,0.8,0.4,0.8,0.8c0,0.4-0.3,0.7-0.6,0.8l-1.1,0.2l-2.2,0.4c-0.4,0.1-0.8-0.2-0.9-0.6C-943.5-185.9-943.5-186.1-943.3-186.3
			L-943.3-186.3z M-950.5-179.1c0.1-0.4,0.4-0.8,0.8-1l7-3.6l0.3-0.1l0,0l3.2-0.6l0,0l0.3-0.1l7.8,0.9c0.5,0.1,0.9,0.3,1.1,0.7
			L-950.5-179.1z"/>
	</g>
</g>
</symbol>

</svg>
