<svg xmlns="http://www.w3.org/2000/svg" xmlns:xlink="http://www.w3.org/1999/xlink" width="105.664" height="61.668" viewBox="0 0 105.664 61.668">
  <defs>
    <linearGradient id="linear-gradient" y1="0.5" x2="1" y2="0.5" gradientUnits="objectBoundingBox">
      <stop offset="0" stop-color="#b83979"/>
      <stop offset="0.999" stop-color="#78498a"/>
    </linearGradient>
  </defs>
  <g id="Group_1239" data-name="Group 1239" transform="translate(-631.111 -32.332)">
    <path id="Path_27" data-name="Path 27" d="M115.826,22.8a3.381,3.381,0,0,0-2.394-1h0a3.4,3.4,0,0,0-2.406.991L88.337,45.429a1.376,1.376,0,0,0-.224.28l-.8.8h-.075L85.732,48,84.46,49.269a3.46,3.46,0,0,1-2.743.636,4.752,4.752,0,0,1-2.549-1.6c-3.559-3.372-7-6.882-10.459-10.36L79.168,27.508a3.394,3.394,0,0,0-2.387-5.8h0a3.4,3.4,0,0,0-2.406.991L63.915,33.131,61.347,30.55a10.466,10.466,0,0,0-14.785-.037l-8.415,8.365-2.406,2.394-.087.087-1.6-1.608L20.432,26.068a3.578,3.578,0,0,0-.281-.256l-3.2-3.216a3.394,3.394,0,1,0-4.806,4.793l17.1,17.154s6.607,6.645,6.607,6.651l1.49,1.5.019.012.86.866a10.459,10.459,0,0,0,14.785.037l7.873-7.829,3.029-3.017q2.927,2.945,5.847,5.89c1.689,1.7,3.466,3.31,5.155,5.005A10.466,10.466,0,0,0,89.7,53.7L112.41,31.092a3.222,3.222,0,0,0,.436-.536l2.967-2.961A3.382,3.382,0,0,0,115.826,22.8ZM51.679,45.342c-.056.056-.1.112-.143.162l-.923.923H50.57l-1.5,1.49L47.9,49.082a3.681,3.681,0,0,1-4.862-.293l-2.593-2.606.162-.162L42.934,43.7l8.409-8.371a3.67,3.67,0,0,1,5.186.012L59.1,37.93Z" transform="translate(619.96 10.734)" fill="url(#linear-gradient)"/>
    <text id="RAWA" transform="translate(651 90)" fill="#fff" font-size="16" font-family="SegoeUI, Segoe UI" letter-spacing="0.268em"><tspan x="0" y="0">RAWA</tspan></text>
  </g>
</svg>
